<?xml version="1.0" standalone="no"?>
<!DOCTYPE svg PUBLIC "-//W3C//DTD SVG 1.1//EN" "http://www.w3.org/Graphics/SVG/1.1/DTD/svg11.dtd" >
<svg>
<metadata>
Created by FontForge 20090914 at Wed Nov 14 11:45:04 2012
 By www-data
Copyright (c) 2012 by Jovanny Lemonad. All rights reserved.
</metadata>
<defs>
<font id="RussoOne" horiz-adv-x="630" >
  <font-face 
    font-family="Russo One"
    font-weight="400"
    font-stretch="normal"
    units-per-em="1000"
    panose-1="2 0 5 3 5 0 0 2 0 4"
    ascent="800"
    descent="-200"
    x-height="530"
    cap-height="700"
    bbox="-260 -279.002 1210 926"
    underline-thickness="50"
    underline-position="-50"
    unicode-range="U+0020-U+2122"
  />
<missing-glyph horiz-adv-x="300" 
 />
    <glyph glyph-name=".notdef" horiz-adv-x="300" 
 />
    <glyph glyph-name="space" unicode=" " horiz-adv-x="300" 
 />
    <glyph glyph-name="space" unicode="&#xa0;" horiz-adv-x="300" 
 />
    <glyph glyph-name="exclam" unicode="!" horiz-adv-x="280" 
d="M50 150h180v-150h-180v150zM70 210l-20 210v280h180v-280l-20 -210h-140z" />
    <glyph glyph-name="quotedbl" unicode="&#x22;" horiz-adv-x="400" 
d="M50 450l-20 160v90h150v-90l-20 -160h-110zM240 450l-20 160v90h150v-90l-20 -160h-110z" />
    <glyph glyph-name="numbersign" unicode="#" horiz-adv-x="730" 
d="M70 0l32 150h-92v130h120l30 140h-110v130h138l32 150h160l-32 -150h120l32 150h160l-32 -150h92v-130h-120l-30 -140h110v-130h-138l-32 -150h-160l32 150h-120l-32 -150h-160zM290 280h120l30 140h-120z" />
    <glyph glyph-name="dollar" unicode="$" horiz-adv-x="629" 
d="M210 480c0 -40 19.999 -60 59.999 -60h139c65.333 0 113.333 -15.333 144 -46s46 -78.667 46 -144v-50c0 -65.333 -15.167 -113.333 -45.5 -144s-78.166 -46 -143.499 -46h-28l8 -90h-150l10 95c-28 1.33301 -54.667 2.83301 -80 4.5l-67 4.5c-22.667 2 -44 4 -64 6v135
l122 -8c34 -2 70 -3.66699 108 -5s71.333 -2 100 -2c15.333 0 27.5 4.5 36.5 13.5s13.5 21.167 13.5 36.5v100h-189c-70 0 -120.833 15.833 -152.5 47.5s-47.5 82.5 -47.5 152.5v20c0 70 15.833 120.833 47.5 152.5s82.5 47.5 152.5 47.5h20l-10 90h150l-10 -90h160v-140
h-270c-40 0 -60 -20 -60 -60v-20z" />
    <glyph glyph-name="percent" unicode="%" horiz-adv-x="860" 
d="M150 0l400 700h150l-390 -700h-160zM360 465c0 -40 -10.833 -70.833 -32.5 -92.5s-52.5 -32.5 -92.5 -32.5h-90c-40 0 -70.833 10.833 -92.5 32.5s-32.5 52.5 -32.5 92.5v120c0 40 10.833 70.833 32.5 92.5s52.5 32.5 92.5 32.5h90c40 0 70.833 -10.833 92.5 -32.5
s32.5 -52.5 32.5 -92.5v-120zM240 585c0 23.333 -11.667 35 -35 35h-30c-23.333 0 -35 -11.667 -35 -35v-120c0 -23.333 11.667 -35 35 -35h30c23.333 0 35 11.667 35 35v120zM840 115c0 -40 -10.833 -70.833 -32.5 -92.5s-52.5 -32.5 -92.5 -32.5h-90
c-40 0 -70.833 10.833 -92.5 32.5s-32.5 52.5 -32.5 92.5v120c0 40 10.833 70.833 32.5 92.5s52.5 32.5 92.5 32.5h90c40 0 70.833 -10.833 92.5 -32.5s32.5 -52.5 32.5 -92.5v-120zM720 235c0 23.333 -11.667 35 -35 35h-30c-23.333 0 -35 -11.667 -35 -35v-120
c0 -23.333 11.667 -35 35 -35h30c23.333 0 35 11.667 35 35v120z" />
    <glyph glyph-name="ampersand" unicode="&#x26;" horiz-adv-x="720" 
d="M50 520c0 60.667 15.334 105.832 46.001 135.499s78.667 44.5 144 44.5h320v-140h-270c-40 0 -60 -20 -60 -60v-30c0 -40 20 -60 60 -60h160l15 80h165v-80h80v-140h-80v-260c-45.333 -4 -91.333 -7.33301 -138 -10c-40 -2.66699 -84 -5 -132 -7s-94.667 -3 -140 -3
c-65.333 0 -113.333 15.333 -144 46s-46 78.667 -46 144c0 27.333 3.5 51.5 10.5 72.5s16 38.833 27 53.5s23.667 26.334 38 35.001s29.166 15 44.499 19c-30 10 -54.167 27.5 -72.5 52.5s-27.5 57.5 -27.5 97.5v10zM260.001 129.998c20 0 41 0.166992 63 0.5
s42.667 0.833008 62 1.5c22 0.666992 43.667 1.66699 65 3v135h-180c-40 0 -60 -20 -60 -60v-30c0 -15.333 4.5 -27.5 13.5 -36.5s21.167 -13.5 36.5 -13.5z" />
    <glyph glyph-name="quotesingle" unicode="'" horiz-adv-x="210" 
d="M50 450l-20 160v90h150v-90l-20 -160h-110z" />
    <glyph glyph-name="parenleft" unicode="(" horiz-adv-x="325" 
d="M30 295c0 103.333 19 200.333 57 291s92.333 168.667 163 234l85 -70c-42.667 -65.333 -74.167 -135.5 -94.5 -210.5s-30.5 -156.5 -30.5 -244.5s10.167 -169.5 30.5 -244.5s51.833 -145.167 94.5 -210.5l-85 -70c-70.667 65.333 -125 143.333 -163 234
s-57 187.667 -57 291z" />
    <glyph glyph-name="parenright" unicode=")" horiz-adv-x="325" 
d="M295 295c0 -103.333 -19 -200.333 -57 -291s-92.333 -168.667 -163 -234l-85 70c42.667 65.333 74.167 135.5 94.5 210.5s30.5 156.5 30.5 244.5s-10.167 169.5 -30.5 244.5s-51.833 145.167 -94.5 210.5l85 70c70.667 -65.333 125 -143.333 163 -234
s57 -187.667 57 -291z" />
    <glyph glyph-name="asterisk" unicode="*" horiz-adv-x="495" 
d="M310 365v-125h-125v125l-115 -65l-60 100l120 70l-120 70l60 100l115 -65v125h125v-125l115 65l60 -100l-120 -70l120 -70l-60 -100z" />
    <glyph glyph-name="plus" unicode="+" horiz-adv-x="540" 
d="M340 420h170v-140h-170v-170h-140v170h-170v140h170v170h140v-170z" />
    <glyph glyph-name="comma" unicode="," horiz-adv-x="240" 
d="M30 150h180v-140l-70 -110h-90l40 100h-60v150z" />
    <glyph glyph-name="hyphen" unicode="-" horiz-adv-x="470" 
d="M30 280v140h410v-140h-410z" />
    <glyph glyph-name="period" unicode="." horiz-adv-x="240" 
d="M30 150h180v-150h-180v150z" />
    <glyph glyph-name="slash" unicode="/" horiz-adv-x="470" 
d="M0 0l300 700h170l-290 -700h-180z" />
    <glyph glyph-name="zero" unicode="0" horiz-adv-x="670" 
d="M450 510c0 40 -20 60 -60 60h-110c-40 0 -60 -20 -60 -60v-320c0 -40 20 -60 60 -60h110c40 0 60 20 60 60v320zM630 190c0 -70 -15.833 -120.833 -47.5 -152.5s-82.5 -47.5 -152.5 -47.5h-190c-70 0 -120.833 15.833 -152.5 47.5s-47.5 82.5 -47.5 152.5v320
c0 70 15.833 120.833 47.5 152.5s82.5 47.5 152.5 47.5h190c70 0 120.833 -15.833 152.5 -47.5s47.5 -82.5 47.5 -152.5v-320z" />
    <glyph glyph-name="one" unicode="1" horiz-adv-x="405" 
d="M165 0v545l-115 -40l-50 115l185 80h160v-700h-180z" />
    <glyph glyph-name="two" unicode="2" horiz-adv-x="590" 
d="M560 480c0 -21.333 -2.99902 -40.665 -8.99902 -57.998s-14.333 -33.333 -25 -48s-23.334 -28.334 -38.001 -41.001s-30.667 -25.334 -48 -38.001l-215 -155h335v-140h-540v190l360 260v50c0 40 -20 60 -60 60h-280v140h320c70 0 120.833 -15.833 152.5 -47.5
s47.5 -82.5 47.5 -152.5v-20z" />
    <glyph glyph-name="three" unicode="3" horiz-adv-x="610" 
d="M580 180c0 -65.333 -15.333 -113.331 -46 -143.998s-78.667 -46 -144 -46c-40 0 -81.833 1 -125.5 3s-83.5 4.33301 -119.5 7c-42.667 2.66699 -84.334 6 -125.001 10v135l118 -8c34 -2 69.833 -3.66699 107.5 -5s72.5 -2 104.5 -2c15.333 0 27.5 4.5 36.5 13.5
s13.5 21.167 13.5 36.5v40c0 40 -20 60 -60 60h-210v140h190c40 0 60 20 60 60v20c0 40 -20 60 -60 60h-290v140h340c65.333 0 113.333 -14.833 144 -44.5s46 -74.834 46 -135.501c0 -40 -9.16699 -72.5 -27.5 -97.5s-42.5 -42.5 -72.5 -52.5
c14.667 -4 29.334 -10.333 44.001 -19s27.5 -20.334 38.5 -35.001s20 -32.5 27 -53.5s10.5 -45.167 10.5 -72.5v-10z" />
    <glyph glyph-name="four" unicode="4" horiz-adv-x="650" 
d="M390 140h-370v140l240 420h200l-240 -420h170v150h180v-150h70v-140h-70v-140h-180v140z" />
    <glyph glyph-name="five" unicode="5" horiz-adv-x="600" 
d="M230 560l0.000976562 -129.999h160c65.333 0 113.333 -14.833 144 -44.5s46 -74.834 46 -135.501v-70c0 -65.333 -15.333 -113.333 -46 -144s-78.667 -46 -144 -46c-40 0 -81.833 1 -125.5 3s-83.5 4.33301 -119.5 7c-42.667 2.66699 -84.334 6 -125.001 10v135l118 -8
c34 -2 69.833 -3.66699 107.5 -5s72.5 -2 104.5 -2c15.333 0 27.5 4.5 36.5 13.5s13.5 21.167 13.5 36.5v50c0 40 -20 60 -60 60h-290v410h480v-140h-300z" />
    <glyph glyph-name="six" unicode="6" 
d="M220 430c19.333 4 39 7.33203 59 9.99902c17.333 2.66699 35.833 5 55.5 7s38.167 3 55.5 3h70c45.333 0 81.666 -13.667 108.999 -41s41 -63.666 41 -108.999v-130c0 -60.667 -15.333 -105.834 -46 -135.501s-78.667 -44.5 -144 -44.5h-190
c-65.333 0 -113.333 14.833 -144 44.5s-46 74.834 -46 135.501v350c0 65.333 15.333 113.333 46 144s78.667 46 144 46c32.667 0 68.167 -1 106.5 -3s74.166 -4.33301 107.499 -7c38.667 -2.66699 77.334 -6 116.001 -10v-135c-36.667 2 -73 4.33301 -109 7
c-15.333 0.666992 -31.166 1.5 -47.499 2.5l-48.5 3c-16 1 -31.167 1.66699 -45.5 2s-27.5 0.5 -39.5 0.5c-15.333 0 -27.5 -4.5 -36.5 -13.5s-13.5 -21.167 -13.5 -36.5v-90zM340 309.999c-14 0 -28.168 -0.5 -42.501 -1.5s-27.166 -2.16699 -38.499 -3.5
c-13.333 -2 -26.333 -3.66699 -39 -5v-110c0 -40 20 -60 60 -60h90c40 0 60 20 60 60v85c0 10 -3.33301 18.333 -10 25s-15 10 -25 10h-55z" />
    <glyph glyph-name="seven" unicode="7" horiz-adv-x="560" 
d="M10 700h540v-140l-230 -560h-200l240 560h-350v140z" />
    <glyph glyph-name="eight" unicode="8" horiz-adv-x="670" 
d="M270 280c-40 0 -60 -20 -60 -60v-40c0 -15.333 4.5 -27.5 13.5 -36.5s21.167 -13.5 36.5 -13.5h150c15.333 0 27.5 4.5 36.5 13.5s13.5 21.167 13.5 36.5v40c0 40 -20 60 -60 60h-130zM290 570c-40 0 -60 -20 -60 -60v-30c0 -40 20 -60 60 -60h90c40 0 60 20 60 60v30
c0 40 -20 60 -60 60h-90zM640 180c0 -65.333 -15.333 -113.333 -46 -144s-78.667 -46 -144 -46h-230c-65.333 0 -113.333 15.333 -144 46s-46 78.667 -46 144v10c0 27.333 3.5 51.5 10.5 72.5s16 38.833 27 53.5s23.667 26.334 38 35.001s29.166 15 44.499 19
c-30 10 -54.167 27.5 -72.5 52.5s-27.5 57.5 -27.5 97.5v10c0 60.667 15.333 105.834 46 135.501s78.667 44.5 144 44.5h190c65.333 0 113.333 -14.833 144 -44.5s46 -74.834 46 -135.501v-10c0 -40 -9.16699 -72.5 -27.5 -97.5s-42.5 -42.5 -72.5 -52.5
c14.667 -4 29.334 -10.333 44.001 -19s27.5 -20.334 38.5 -35.001s20 -32.5 27 -53.5s10.5 -45.167 10.5 -72.5v-10z" />
    <glyph glyph-name="nine" unicode="9" 
d="M410 270c-19.333 -4 -39.001 -7.33203 -59.001 -9.99902c-17.333 -2.66699 -35.833 -5 -55.5 -7s-38.167 -3 -55.5 -3h-70c-45.333 0 -81.666 13.667 -108.999 41s-41 63.666 -41 108.999v130c0 60.667 15.333 105.834 46 135.501s78.667 44.5 144 44.5h190
c65.333 0 113.333 -14.833 144 -44.5s46 -74.834 46 -135.501v-350c0 -65.333 -15.333 -113.333 -46 -144s-78.667 -46 -144 -46c-32.667 0 -68.167 1 -106.5 3s-74.166 4.33301 -107.499 7c-38.667 2.66699 -77.334 6 -116.001 10v135l109 -8
c30.667 -2 62.5 -3.66699 95.5 -5s61.5 -2 85.5 -2c15.333 0 27.5 4.5 36.5 13.5s13.5 21.167 13.5 36.5v90zM409.999 510.001c0 40 -20 60 -60 60h-90c-40 0 -60 -20 -60 -60v-85c0 -10 3.33301 -18.333 10 -25s15 -10 25 -10h55c13.333 0 27.333 0.5 42 1.5
s27.667 2.16699 39 3.5c13.333 1.33301 26.333 3 39 5v110z" />
    <glyph glyph-name="colon" unicode=":" horiz-adv-x="240" 
d="M30 150h180v-150h-180v150zM30 530h180v-150h-180v150z" />
    <glyph glyph-name="semicolon" unicode=";" horiz-adv-x="240" 
d="M30 530h180v-150h-180v150zM30 150h180v-140l-70 -110h-90l50 100h-70v150z" />
    <glyph glyph-name="less" unicode="&#x3c;" horiz-adv-x="510" 
d="M470 150v-150l-450 200v130l450 200v-150l-285 -115z" />
    <glyph glyph-name="equal" unicode="=" horiz-adv-x="490" 
d="M40 390v130h410v-130h-410zM40 180v130h410v-130h-410z" />
    <glyph glyph-name="greater" unicode="&#x3e;" horiz-adv-x="510" 
d="M325 265l-285 115v150l450 -200v-130l-450 -200v150z" />
    <glyph glyph-name="question" unicode="?" horiz-adv-x="580" 
d="M145 210v140l235 85v85c0 15.333 -4.5 27.5 -13.5 36.5s-21.167 13.5 -36.5 13.5c-29.333 0 -62.166 -0.833008 -98.499 -2.5s-71.166 -3.5 -104.499 -5.5c-38.667 -2.66699 -77.667 -5 -117 -7v135c38.667 4 78.667 7.33301 120 10c35.333 2.66699 74.166 5 116.499 7
s83.5 3 123.5 3c65.333 0 113.333 -15.333 144 -46s46 -78.667 46 -144v-45c0 -25.333 -2.33301 -47.166 -7 -65.499s-12.334 -34.5 -23.001 -48.5s-24.667 -26.333 -42 -37s-38.333 -20.334 -63 -29.001l-100 -35v-50h-180zM145 150h180v-150h-180v150z" />
    <glyph glyph-name="at" unicode="@" horiz-adv-x="770" 
d="M410 170c-45.333 0 -81.6641 13.667 -108.997 41s-41 63.666 -41 108.999v35c0 45.333 13.667 81.666 41 108.999s63.666 41 108.999 41h170v30c0 12.667 -4.33301 23.334 -13 32.001s-19.334 13 -32.001 13h-265c-20 0 -36.667 -6.66699 -50 -20s-20 -30 -20 -50v-320
c0 -20 6.66699 -36.667 20 -50s30 -20 50 -20c38 0 79 0.666992 123 2s85 3 123 5l134 8v-125c-42.667 -4 -86.334 -7.33301 -131.001 -10c-38 -2.66699 -80 -5 -126 -7s-90.333 -3 -133 -3c-70.667 0 -125 19 -163 57s-57 92.333 -57 163v280c0 70.667 19 125 57 163
s92.333 57 163 57h320c50 0 89.167 -14.167 117.5 -42.5s42.5 -67.5 42.5 -117.5v-370h-140l-10 50c-16 -11.333 -32.667 -21.333 -50 -30c-15.333 -7.33301 -32.5 -14.166 -51.5 -20.499s-38.5 -9.5 -58.5 -9.5h-20zM480.002 305c10 0 20.833 1 32.5 3s22.5 4.33301 32.5 7
c12 2.66699 23.667 6 35 10v55h-115c-10 0 -18.333 -3.33301 -25 -10s-10 -15 -10 -25v-5c0 -10 3.33301 -18.333 10 -25s15 -10 25 -10h15z" />
    <glyph glyph-name="A" unicode="A" horiz-adv-x="710" 
d="M185 0h-195l265 700h200l265 -700h-195l-45 125h-250zM275 255h160l-80 235z" />
    <glyph glyph-name="B" unicode="B" horiz-adv-x="710" 
d="M60 700l399.998 0.00195312c65.333 0 113.333 -14.833 144 -44.5s46 -74.834 46 -135.501c0 -40 -8.66699 -72.5 -26 -97.5s-38.666 -42.5 -63.999 -52.5c14.667 -4 29.334 -10.333 44.001 -19s27.5 -20.334 38.5 -35.001s20 -32.5 27 -53.5s10.5 -45.167 10.5 -72.5
c0 -65.333 -15.333 -113.333 -46 -144s-78.667 -46 -144 -46h-430v700zM499.998 220.002c0 40 -20 60 -60 60h-200v-140h200c40 0 60 20 60 60v20zM469.998 500.002c0 40 -20 60 -60 60h-170v-140h170c40 0 60 20 60 60v20z" />
    <glyph glyph-name="C" unicode="C" horiz-adv-x="620" 
d="M230 -10c-65.333 0 -113.334 15.333 -144.001 46s-46 78.667 -46 144v320c0 70 15.833 120.833 47.5 152.5s82.5 47.5 152.5 47.5h360v-140h-320c-40 0 -60 -20 -60 -60v-320c0 -15.333 4.5 -27.5 13.5 -36.5s21.167 -13.5 36.5 -13.5
c12.667 0 27.334 0.166992 44.001 0.5s34 0.833008 52 1.5l54.5 2c18.333 0.666992 36.166 1.66699 53.499 3l126 8v-135c-44.667 -4 -89 -7.33301 -133 -10c-38 -2.66699 -78.167 -5 -120.5 -7s-81.166 -3 -116.499 -3z" />
    <glyph glyph-name="D" unicode="D" horiz-adv-x="720" 
d="M450 700c75.333 0 132.5 -19.5 171.5 -58.5s58.5 -96.167 58.5 -171.5v-240c0 -75.333 -19.5 -132.5 -58.5 -171.5s-96.167 -58.5 -171.5 -58.5h-390v700h390zM500 470c0 60 -30 90 -90 90h-170v-420h170c60 0 90 30 90 90v240z" />
    <glyph glyph-name="E" unicode="E" horiz-adv-x="635" 
d="M615 0h-555v700h555v-140h-375v-135h295v-140h-295v-145h375v-140z" />
    <glyph glyph-name="F" unicode="F" horiz-adv-x="625" 
d="M240 0h-180v700h555v-140h-375v-165h295v-140h-295v-255z" />
    <glyph glyph-name="G" unicode="G" horiz-adv-x="700" 
d="M230 -10c-65.333 0 -113.332 15.3311 -143.999 45.998s-46 78.667 -46 144v320c0 70 15.833 120.833 47.5 152.5s82.5 47.5 152.5 47.5h360v-140h-320c-40 0 -60 -20 -60 -60v-320c0 -15.333 4.5 -27.5 13.5 -36.5s21.167 -13.5 36.5 -13.5
c20 0 42.167 0.166992 66.5 0.5s47.166 0.833008 68.499 1.5c24.667 0.666992 49.667 1.66699 75 3v145h-130v120h310v-385c-50 -5.33301 -100.333 -9.66602 -151 -12.999c-43.333 -3.33301 -90 -6.16602 -140 -8.49902s-96.333 -3.5 -139 -3.5z" />
    <glyph glyph-name="H" unicode="H" horiz-adv-x="730" 
d="M670 0h-180v285h-250v-285h-180v700h180v-275h250v275h180v-700z" />
    <glyph glyph-name="I" unicode="I" horiz-adv-x="420" 
d="M390 0h-360v140h90v420h-90v140h360v-140h-90v-420h90v-140z" />
    <glyph glyph-name="J" unicode="J" horiz-adv-x="460" 
d="M10 135c20.667 -1.33301 41.001 -2.33301 61.001 -3c17.333 -0.666992 35 -1.16699 53 -1.5s33.333 -0.5 46 -0.5c15.333 0 27.5 4.5 36.5 13.5s13.5 21.167 13.5 36.5v380h-130v140h310v-520c0 -65.333 -15.333 -113.333 -46 -144s-78.667 -46 -144 -46
c-22.667 0 -45.834 0.5 -69.501 1.5s-45.167 2.16699 -64.5 3.5c-22.667 1.33301 -44.667 3 -66 5v135z" />
    <glyph glyph-name="K" unicode="K" horiz-adv-x="676" 
d="M240 0h-180v700h180v-275h90l156 275h190l-196 -345l195 -355h-190l-155 285h-90v-285z" />
    <glyph glyph-name="L" unicode="L" horiz-adv-x="615" 
d="M240 140h365v-140h-545v700h180v-560z" />
    <glyph glyph-name="M" unicode="M" horiz-adv-x="900" 
d="M660 390l-140 -250h-140l-140 250v-390h-180v700h190l200 -370l200 370h190v-700h-180v390z" />
    <glyph glyph-name="N" unicode="N" horiz-adv-x="730" 
d="M670 0h-190l-240 420v-420h-180v700h190l240 -420v420h180v-700z" />
    <glyph glyph-name="O" unicode="O" horiz-adv-x="730" 
d="M510 510c0 40 -20 60 -60 60h-170c-40 0 -60 -20 -60 -60v-320c0 -40 20 -60 60 -60h170c40 0 60 20 60 60v320zM690 190c0 -70 -15.833 -120.833 -47.5 -152.5s-82.5 -47.5 -152.5 -47.5h-250c-70 0 -120.833 15.833 -152.5 47.5s-47.5 82.5 -47.5 152.5v320
c0 70 15.833 120.833 47.5 152.5s82.5 47.5 152.5 47.5h250c70 0 120.833 -15.833 152.5 -47.5s47.5 -82.5 47.5 -152.5v-320z" />
    <glyph glyph-name="P" unicode="P" horiz-adv-x="710" 
d="M60 700h420c70 0 120.833 -15.833 152.5 -47.5s47.5 -82.5 47.5 -152.5v-100c0 -70 -15.833 -120.833 -47.5 -152.5s-82.5 -47.5 -152.5 -47.5h-240v-200h-180v700zM500 500c0 40 -20 60 -60 60h-200v-220h200c40 0 60 20 60 60v100z" />
    <glyph glyph-name="Q" unicode="Q" horiz-adv-x="730" 
d="M270 -10l-30.001 0.000976562c-70 0 -120.833 15.833 -152.5 47.5s-47.5 82.5 -47.5 152.5v320c0 70 15.833 120.833 47.5 152.5s82.5 47.5 152.5 47.5h250c70 0 120.833 -15.833 152.5 -47.5s47.5 -82.5 47.5 -152.5v-320c0 -70 -15.833 -120.833 -47.5 -152.5
s-82.5 -47.5 -152.5 -47.5h-50v-10c0 -10 3.33301 -18.333 10 -25s15 -10 25 -10h75v-105c-14 -2 -28.333 -3.66699 -43 -5c-12.667 -1.33301 -26.5 -2.5 -41.5 -3.5s-30.167 -1.5 -45.5 -1.5c-45.333 0 -81.666 13.667 -108.999 41s-41 63.666 -41 108.999v10z
M509.999 510.001c0 40 -20 60 -60 60h-170c-40 0 -60 -20 -60 -60v-320c0 -40 20 -60 60 -60h170c40 0 60 20 60 60v320z" />
    <glyph glyph-name="R" unicode="R" horiz-adv-x="720" 
d="M60 700h420c70 0 120.833 -15.833 152.5 -47.5s47.5 -82.5 47.5 -152.5v-90c0 -55.333 -9.16699 -98.333 -27.5 -129s-47.5 -51 -87.5 -61l125 -220h-195l-115 210h-140v-210h-180v700zM500 500c0 40 -20 60 -60 60h-200v-210h200c40 0 60 20 60 60v90z" />
    <glyph glyph-name="S" unicode="S" horiz-adv-x="670" 
d="M210 480c0 -40 20 -60 60 -60h180c65.333 0 113.333 -15.333 144 -46s46 -78.667 46 -144v-50c0 -65.333 -15.333 -113.333 -46 -144s-78.667 -46 -144 -46c-20 0 -41.167 0.333008 -63.5 1s-45 1.5 -68 2.5l-69 3c-23 1 -44.833 2.16699 -65.5 3.5
c-48.667 2.66699 -97 6 -145 10v135l142 -8c39.333 -2 80 -3.66699 122 -5s77.667 -2 107 -2c15.333 0 27.5 4.5 36.5 13.5s13.5 21.167 13.5 36.5v90h-230c-70 0 -120.833 15.833 -152.5 47.5s-47.5 82.5 -47.5 152.5v30c0 70 15.833 120.833 47.5 152.5
s82.5 47.5 152.5 47.5h351v-140h-311c-40 0 -60 -20 -60 -60v-20z" />
    <glyph glyph-name="T" unicode="T" horiz-adv-x="620" 
d="M400 0h-180v560h-210v140h600v-140h-210v-560z" />
    <glyph glyph-name="U" unicode="U" horiz-adv-x="750" 
d="M510 700h180v-510c0 -70 -15.833 -120.833 -47.5 -152.5s-82.5 -47.5 -152.5 -47.5h-230c-70 0 -120.833 15.833 -152.5 47.5s-47.5 82.5 -47.5 152.5v510h180v-510c0 -40 20 -60 60 -60h150c40 0 60 20 60 60v510z" />
    <glyph glyph-name="V" unicode="V" horiz-adv-x="710" 
d="M355 210l170 490h195l-265 -700h-200l-265 700h195z" />
    <glyph glyph-name="W" unicode="W" horiz-adv-x="980" 
d="M570 700l120 -450l105 450h195l-190 -700h-190l-120 435l-120 -435h-190l-190 700h195l105 -450l120 450h160z" />
    <glyph glyph-name="X" unicode="X" horiz-adv-x="660" 
d="M465 700h200l-225 -350l230 -350h-200l-140 220l-140 -220h-200l230 350l-225 350h199l136 -220z" />
    <glyph glyph-name="Y" unicode="Y" horiz-adv-x="670" 
d="M-20 700h190l165 -340l165 340h190l-265 -515v-185h-180v185z" />
    <glyph glyph-name="Z" unicode="Z" horiz-adv-x="610" 
d="M590 560l-350 -420h350v-140h-570v140l350 420h-350v140h570v-140z" />
    <glyph glyph-name="bracketleft" unicode="[" horiz-adv-x="360" 
d="M60 800h300v-140h-120v-730h120v-140h-300v1010z" />
    <glyph glyph-name="backslash" unicode="\" horiz-adv-x="470" 
d="M290 0l-290 700h170l300 -700h-180z" />
    <glyph glyph-name="bracketright" unicode="]" horiz-adv-x="360" 
d="M300 -210h-300v140h120v730h-120v140h300v-1010z" />
    <glyph glyph-name="asciicircum" unicode="^" horiz-adv-x="510" 
d="M330 700l180 -300h-150l-105 180l-105 -180h-150l180 300h150z" />
    <glyph glyph-name="underscore" unicode="_" horiz-adv-x="470" 
d="M30 -190v140h410v-140h-410z" />
    <glyph glyph-name="grave" unicode="`" horiz-adv-x="250" 
d="M110 540l-110 170h170l60 -170h-120z" />
    <glyph glyph-name="a" unicode="a" horiz-adv-x="595" 
d="M260 130c12.667 0 26 1 40 3s27 4.33301 39 7c14 2.66699 27.667 6 41 10v60h-145c-10 0 -18.333 -3.33301 -25 -10s-10 -15 -10 -25v-10c0 -10 3.33301 -18.333 10 -25s15 -10 25 -10h25zM175 -10c-45.333 0 -81.667 13.667 -109 41s-41 63.666 -41 108.999v45
c0 45.333 13.667 81.666 41 108.999s63.666 41 108.999 41h205v40c0 10 -3.33301 18.333 -10 25s-15 10 -25 10c-26.667 0 -55.5 -0.833008 -86.5 -2.5s-60.167 -3.5 -87.5 -5.5c-32 -2.66699 -64 -5 -96 -7v125c36.667 4 74 7.33301 112 10
c32.667 2.66699 68.334 5 107.001 7s75.667 3 111 3c45.333 0 81.666 -13.667 108.999 -41s41 -63.666 41 -108.999v-390h-155l-10 50c-17.333 -11.333 -36 -21.333 -56 -30c-17.333 -7.33301 -36.666 -14.166 -57.999 -20.499s-43.333 -9.5 -66 -9.5h-35z" />
    <glyph glyph-name="b" unicode="b" horiz-adv-x="620" 
d="M405 370c0 10 -3.33301 18.333 -10 25s-15 10 -25 10h-25c-16.667 0 -32 -0.5 -46 -1.5s-26.667 -2.16699 -38 -3.5c-12.667 -2 -24.667 -3.66699 -36 -5v-260h140c26.667 0 40 13.333 40 40v195zM580 160c0 -50 -14.166 -89.168 -42.499 -117.501
s-67.5 -42.5 -117.5 -42.5h-370v700h175v-180c19.333 4 39 7.33301 59 10c17.333 2.66699 35.833 5 55.5 7s38.167 3 55.5 3h35c45.333 0 81.666 -13.667 108.999 -41s41 -63.666 41 -108.999v-230z" />
    <glyph glyph-name="c" unicode="c" horiz-adv-x="550" 
d="M40 370c0 50 14.166 89.168 42.499 117.501s67.5 42.5 117.5 42.5h320v-135h-265c-26.667 0 -40 -13.333 -40 -40v-195c0 -10 3.33301 -18.333 10 -25s15 -10 25 -10c26 0 54.667 0.666992 86 2s60.666 3 87.999 5l96 8v-130c-37.333 -4 -75 -7.33301 -113 -10
c-32.667 -2.66699 -68.167 -5 -106.5 -7s-75.166 -3 -110.499 -3c-45.333 0 -81.666 13.667 -108.999 41s-41 63.666 -41 108.999v230z" />
    <glyph glyph-name="d" unicode="d" 
d="M425 0l-10.002 50c-17.333 -11.333 -36 -21.333 -56 -30c-17.333 -7.33301 -36.666 -14.166 -57.999 -20.499s-43.333 -9.5 -66 -9.5h-45c-45.333 0 -81.666 13.667 -108.999 41s-41 63.666 -41 108.999v230c0 50 14.167 89.167 42.5 117.5s67.5 42.5 117.5 42.5h205v170
h175v-700h-155zM404.998 395h-150c-26.667 0 -40 -13.333 -40 -40v-185c0 -10 3.33301 -18.333 10 -25s15 -10 25 -10h35c12.667 0 26 1 40 3s27 4.33301 39 7c14 2.66699 27.667 6 41 10v240z" />
    <glyph glyph-name="e" unicode="e" horiz-adv-x="600" 
d="M255 415c-26.667 0 -40 -13.333 -40 -40v-55h170v55c0 26.667 -13.333 40 -40 40h-90zM40 380c0 50 14.167 89.168 42.5 117.501s67.5 42.5 117.5 42.5h200c50 0 89.167 -14.167 117.5 -42.5s42.5 -67.5 42.5 -117.5v-185h-345v-40c0 -10 3.33301 -18.333 10 -25
s15 -10 25 -10c28.667 0 59.834 0.666992 93.501 2s65.167 3 94.5 5l102 8v-125c-38.667 -4 -78.334 -7.33301 -119.001 -10c-34.667 -2.66699 -72.334 -5 -113.001 -7s-80 -3 -118 -3c-45.333 0 -81.666 13.667 -108.999 41s-41 63.666 -41 108.999v240z" />
    <glyph glyph-name="f" unicode="f" horiz-adv-x="450" 
d="M300 575c-10 0 -18.3359 -3.33203 -25.0029 -9.99902s-10 -15 -10 -25v-50h165v-135h-165v-355h-175v355h-70v135h70v70c0 45.333 13.667 81.666 41 108.999s63.666 41 108.999 41c22.667 0 47.834 -0.5 75.501 -1.5s53.834 -2.16699 78.501 -3.5
c28.667 -2 57.334 -3.66699 86.001 -5v-135c-19.333 1.33301 -39.333 3 -60 5c-17.333 1.33301 -36.666 2.5 -57.999 3.5s-42 1.5 -62 1.5z" />
    <glyph glyph-name="g" unicode="g" horiz-adv-x="620" 
d="M40 370c0 50 14.1689 89.167 42.502 117.5s67.5 42.5 117.5 42.5h370v-560c0 -45.333 -13.667 -81.666 -41 -108.999s-63.666 -41 -108.999 -41c-38 0 -77.333 1 -118 3s-78.334 4.33301 -113.001 7c-40.667 2.66699 -80.334 6 -119.001 10v130l102 -8
c29.333 -2 60.666 -3.66699 93.999 -5s64.666 -2 93.999 -2c10 0 18.333 3.33301 25 10s10 15 10 25v50c-19.333 -4 -39 -7.33301 -59 -10c-17.333 -2.66699 -35.833 -5 -55.5 -7s-38.167 -3 -55.5 -3h-35c-45.333 0 -81.666 13.667 -108.999 41s-41 63.666 -41 108.999v200
zM215.002 190c0 -10 3.33398 -18.333 10.001 -25s15 -10 25 -10h25c16 0 31.167 0.5 45.5 1.5s27.166 2.16699 38.499 3.5c12.667 1.33301 24.667 3 36 5v230h-140c-26.667 0 -40 -13.333 -40 -40v-165z" />
    <glyph glyph-name="h" unicode="h" 
d="M345 405c-14 0 -28.167 -0.500977 -42.5 -1.50098s-27.166 -2.16699 -38.499 -3.5c-13.333 -2 -26.333 -3.66699 -39 -5v-395h-175v700h175v-180c19.333 4 39 7.33301 59 10c17.333 2.66699 35.833 5 55.5 7s38.167 3 55.5 3h45c45.333 0 81.666 -13.667 108.999 -41
s41 -63.666 41 -108.999v-390h-175v370c0 10 -3.33301 18.333 -10 25s-15 10 -25 10h-35z" />
    <glyph glyph-name="i" unicode="i" horiz-adv-x="320" 
d="M270 510v-510h-175v375h-75v135h250zM95 710h175v-140h-175v140z" />
    <glyph glyph-name="j" unicode="j" horiz-adv-x="300" 
d="M250 -30c0 -45.333 -13.668 -81.667 -41.001 -109s-63.666 -41 -108.999 -41c-22.667 0 -45.334 0.5 -68.001 1.5s-43 2.16699 -61 3.5c-21.333 1.33301 -41.666 3 -60.999 5v130h130c10 0 18.333 3.33301 25 10s10 15 10 25v515h175v-540zM74.999 709.999h175v-140h-175
v140z" />
    <glyph glyph-name="k" unicode="k" horiz-adv-x="600" 
d="M225 210v-210h-175v700h175v-355h80l110 185h185l-150 -255l150 -275h-185l-115 210h-75z" />
    <glyph glyph-name="l" unicode="l" horiz-adv-x="340" 
d="M50 700l174.999 0.000976562v-535c0 -10 3.33301 -18.333 10 -25s15 -10 25 -10h60v-130c-13.333 -2 -27 -3.66699 -41 -5c-12 -1.33301 -25 -2.5 -39 -3.5s-27.333 -1.5 -40 -1.5c-45.333 0 -81.666 13.667 -108.999 41s-41 63.666 -41 108.999v560z" />
    <glyph glyph-name="m" unicode="m" horiz-adv-x="925" 
d="M670 395c-11.333 0 -23.6689 -1 -37.002 -3s-25.666 -4.33301 -36.999 -7c-13.333 -2.66699 -27 -6 -41 -10v-375h-175v360c0 10 -3.33301 18.333 -10 25s-15 10 -25 10h-5c-11.333 0 -23.666 -1 -36.999 -3s-25.666 -4.33301 -36.999 -7
c-13.333 -2.66699 -27 -6 -41 -10v-375h-175v530h155l10 -50c17.333 11.333 36 21.333 56 30c17.333 7.33301 36.666 14.166 57.999 20.499s43.333 9.5 66 9.5h10c30 0 55.167 -5.66699 75.5 -17s36.833 -25.666 49.5 -42.999c16.667 11.333 35.334 21.333 56.001 30
c17.333 7.33301 37.833 14.166 61.5 20.499s49.5 9.5 77.5 9.5h10c45.333 0 81.666 -13.667 108.999 -41s41 -63.666 41 -108.999v-390h-175v360c0 10 -3.33301 18.333 -10 25s-15 10 -25 10h-5z" />
    <glyph glyph-name="n" unicode="n" 
d="M205 530l10.002 -50c17.333 11.333 36 21.333 56 30c17.333 7.33301 36.666 14.166 57.999 20.499s43.333 9.5 66 9.5h45c45.333 0 81.666 -13.667 108.999 -41s41 -63.666 41 -108.999v-390h-175v360c0 10 -3.33301 18.333 -10 25s-15 10 -25 10h-35
c-12.667 0 -26 -1 -40 -3s-27 -4.33301 -39 -7c-14 -2.66699 -27.667 -6 -41 -10v-375h-175v530h155z" />
    <glyph glyph-name="o" unicode="o" 
d="M590 150c0 -50 -14.167 -89.167 -42.5 -117.5s-67.5 -42.5 -117.5 -42.5h-230c-50 0 -89.167 14.167 -117.5 42.5s-42.5 67.5 -42.5 117.5v230c0 50 14.167 89.167 42.5 117.5s67.5 42.5 117.5 42.5h230c50 0 89.167 -14.167 117.5 -42.5s42.5 -67.5 42.5 -117.5v-230z
M415 365c0 26.667 -13.333 40 -40 40h-120c-26.667 0 -40 -13.333 -40 -40v-200c0 -26.667 13.333 -40 40 -40h120c26.667 0 40 13.333 40 40v200z" />
    <glyph glyph-name="p" unicode="p" 
d="M225 135h150c26.667 0 40 13.333 40 40v185c0 10 -3.33301 18.333 -10 25s-15 10 -25 10h-35c-12.667 0 -26 -1 -40 -3s-27 -4.33301 -39 -7c-14 -2.66699 -27.667 -6 -41 -10v-240zM225 0l0.00195312 -170h-175v700h155l10 -50c17.333 11.333 36 21.333 56 30
c17.333 7.33301 36.666 14.166 57.999 20.499s43.333 9.5 66 9.5h45c45.333 0 81.666 -13.667 108.999 -41s41 -63.666 41 -108.999v-230c0 -50 -14.167 -89.167 -42.5 -117.5s-67.5 -42.5 -117.5 -42.5h-205z" />
    <glyph glyph-name="q" unicode="q" horiz-adv-x="620" 
d="M215 160c0 -10 3.33398 -18.333 10.001 -25s15 -10 25 -10h25c16 0 31.167 0.5 45.5 1.5s27.166 2.16699 38.499 3.5c12.667 1.33301 24.667 3 36 5v260h-140c-26.667 0 -40 -13.333 -40 -40v-195zM40.001 370c0 50 14.166 89.168 42.499 117.501s67.5 42.5 117.5 42.5
h370v-700h-175v180c-19.333 -4 -39 -7.33301 -59 -10c-17.333 -2.66699 -35.833 -5 -55.5 -7s-38.167 -3 -55.5 -3h-35c-45.333 0 -81.666 13.667 -108.999 41s-41 63.666 -41 108.999v230z" />
    <glyph glyph-name="r" unicode="r" horiz-adv-x="460" 
d="M205 530l9.99902 -65c15.333 13.333 32.333 25.666 51 36.999c16 9.33301 34.833 18 56.5 26s45.834 12 72.501 12h45v-155h-85c-17.333 0 -33.833 -1.66699 -49.5 -5s-29.5 -6.66602 -41.5 -9.99902c-14 -4.66699 -27 -9.66699 -39 -15v-355h-175v530h155z" />
    <glyph glyph-name="s" unicode="s" horiz-adv-x="580" 
d="M195 365c0 -10 3.33398 -18.333 10.001 -25s15 -10 25 -10h180c45.333 0 81.666 -13.667 108.999 -41s41 -63.666 41 -108.999v-40c0 -45.333 -13.667 -81.666 -41 -108.999s-63.666 -41 -108.999 -41c-42.667 0 -86.334 1 -131.001 3s-85.667 4.33301 -123 7
c-43.333 2.66699 -85.333 6 -126 10v130l109 -8c32 -2 66.667 -3.66699 104 -5s73 -2 107 -2c10 0 18.333 3.33301 25 10s10 15 10 25v35h-215c-45.333 0 -81.666 13.667 -108.999 41s-41 63.666 -41 108.999v35c0 45.333 13.667 81.666 41 108.999s63.666 41 108.999 41
h340v-130h-280c-10 0 -18.333 -3.33301 -25 -10s-10 -15 -10 -25z" />
    <glyph glyph-name="t" unicode="t" horiz-adv-x="440" 
d="M255 530l124.999 0.000976562v-135h-125v-230c0 -10 3.33301 -18.333 10 -25s15 -10 25 -10h130v-130c-19.333 -2 -39.666 -3.66699 -60.999 -5c-18 -1.33301 -38.333 -2.5 -61 -3.5s-45.334 -1.5 -68.001 -1.5c-45.333 0 -81.666 13.667 -108.999 41
s-41 63.666 -41 108.999v255h-60v135h60l20 120h155v-120z" />
    <glyph glyph-name="u" unicode="u" horiz-adv-x="640" 
d="M435 0l-10.002 50c-17.333 -11.333 -36 -21.333 -56 -30c-17.333 -7.33301 -36.666 -14.166 -57.999 -20.499s-43.333 -9.5 -66 -9.5h-45c-45.333 0 -81.666 13.667 -108.999 41s-41 63.666 -41 108.999v390h175v-360c0 -10 3.33301 -18.333 10 -25s15 -10 25 -10h35
c12.667 0 26 1 40 3s27 4.33301 39 7c14 2.66699 27.667 6 41 10v375h175v-530h-155z" />
    <glyph glyph-name="v" unicode="v" horiz-adv-x="580" 
d="M405 530h185l-200 -530h-200l-200 530h185l115 -360z" />
    <glyph glyph-name="w" unicode="w" horiz-adv-x="880" 
d="M610 210l90 320h190l-165 -530h-185l-100 320l-100 -320h-185l-165 530h190l90 -320l90 320h160z" />
    <glyph glyph-name="x" unicode="x" horiz-adv-x="550" 
d="M360 530h195l-160 -265l165 -265h-195l-90 160l-90 -160h-195l165 265l-160 265h195l85 -160z" />
    <glyph glyph-name="y" unicode="y" horiz-adv-x="570" 
d="M405 530h185l-200 -550c-19.333 -52.667 -44.333 -92.5 -75 -119.5s-72.334 -40.5 -125.001 -40.5c-12.667 0 -26.5 0.5 -41.5 1.5s-29.167 2.16699 -42.5 3.5c-15.333 1.33301 -30.666 3 -45.999 5v130h90c25.333 0 41.833 7 49.5 21s6.16699 33.667 -4.5 59l-205 490
h185l125 -340z" />
    <glyph glyph-name="z" unicode="z" horiz-adv-x="535" 
d="M515 395l-275 -260h275v-135h-495v135l275 260h-275v135h495v-135z" />
    <glyph glyph-name="braceleft" unicode="{" horiz-adv-x="370" 
d="M90 650c0 45.333 13.667 81.668 41 109.001s63.666 41 108.999 41h130v-140h-65c-10 0 -18.333 -3.33301 -25 -10s-10 -15 -10 -25v-205c0 -28 -7.5 -52.667 -22.5 -74s-37.5 -38.333 -67.5 -51c30 -12.667 52.5 -29.667 67.5 -51s22.5 -46 22.5 -74v-205
c0 -10 3.33301 -18.333 10 -25s15 -10 25 -10h65v-140h-130c-45.333 0 -81.666 13.667 -108.999 41s-41 63.666 -41 108.999v250c0 10 -3.33301 18.333 -10 25s-15 10 -25 10h-45v140h45c10 0 18.333 3.33301 25 10s10 15 10 25v250z" />
    <glyph glyph-name="bar" unicode="|" horiz-adv-x="300" 
d="M240 -170h-180v870h180v-870z" />
    <glyph glyph-name="braceright" unicode="}" horiz-adv-x="370" 
d="M280 400c0 -10 3.33301 -18.335 10 -25.002s15 -10 25 -10h45v-140h-45c-10 0 -18.333 -3.33301 -25 -10s-10 -15 -10 -25v-250c0 -45.333 -13.667 -81.666 -41 -108.999s-63.666 -41 -108.999 -41h-130v140h65c10 0 18.333 3.33301 25 10s10 15 10 25v205
c0 28 7.5 52.667 22.5 74s37.5 38.333 67.5 51c-30 12.667 -52.5 29.667 -67.5 51s-22.5 46 -22.5 74v205c0 10 -3.33301 18.333 -10 25s-15 10 -25 10h-65v140h130c45.333 0 81.666 -13.667 108.999 -41s41 -63.666 41 -108.999v-250z" />
    <glyph glyph-name="asciitilde" unicode="~" horiz-adv-x="501" 
d="M10 330c9.33301 23.333 21.333 44.0029 36 62.0029c12.667 15.333 28.667 29.666 48 42.999s43 20 71 20c21.333 0 38.833 -3.16699 52.5 -9.5s26 -13.166 37 -20.499l32 -20.5c10.333 -6.33301 23.166 -9.5 38.499 -9.5c12.667 0 24.334 2.66699 35.001 8
s20.334 11.666 29.001 18.999c9.33301 8 18.333 17.333 27 28l75 -80c-10 -24 -22.333 -45 -37 -63c-12.667 -15.333 -28.667 -29.5 -48 -42.5s-43 -19.5 -71 -19.5c-21.333 0 -38.833 3.16699 -52.5 9.5s-26 13.166 -37 20.499s-21.833 14.166 -32.5 20.499
s-23.334 9.5 -38.001 9.5c-12.667 0 -24.5 -2.83301 -35.5 -8.5s-20.5 -12.167 -28.5 -19.5c-9.33301 -8 -18 -17 -26 -27z" />
    <glyph glyph-name="exclamdown" unicode="&#xa1;" horiz-adv-x="280" 
d="M50 530h180v-150h-180v150zM210 320l20 -210v-280h-180v280l20 210h140z" />
    <glyph glyph-name="cent" unicode="&#xa2;" horiz-adv-x="550" 
d="M239 -9c-8.66699 -0.666992 -17.168 -1.00195 -25.501 -1.00195h-23.5c-45.333 0 -81.666 13.667 -108.999 41s-41 63.666 -41 108.999v230c0 50 14.167 89.167 42.5 117.5s67.5 42.5 117.5 42.5h40l-10 90h150l-10 -90h150v-135h-265c-26.667 0 -40 -13.333 -40 -40
v-195c0 -10 3.33301 -18.333 10 -25s15 -10 25 -10c26 0 54.667 0.666992 86 2s60.666 3 87.999 5l96 8v-130c-13.333 -1.33301 -28 -2.66602 -44 -3.99902c-13.333 -1.33301 -29.166 -2.66602 -47.499 -3.99902s-37.833 -2.66602 -58.5 -3.99902l10 -88h-150z" />
    <glyph glyph-name="sterling" unicode="&#xa3;" horiz-adv-x="565" 
d="M295 575c-10 0 -18.3311 -3.33203 -24.998 -9.99902s-10 -15 -10 -25v-110h155v-135h-155v-55c0 -17.333 -1.66699 -32.333 -5 -45s-6.66602 -23 -9.99902 -31c-4.66699 -9.33301 -9.66699 -17.333 -15 -24h325v-140h-535v120c43.333 0 65 18.333 65 55v120h-70v135h70
v130c0 45.333 13.667 81.666 41 108.999s63.666 41 108.999 41c25.333 0 53.333 -0.5 84 -1.5s60 -2.16699 88 -3.5c32 -2 64.667 -3.66699 98 -5v-135c-23.333 1.33301 -47 3 -71 5c-20.667 1.33301 -43.334 2.5 -68.001 3.5s-48.334 1.5 -71.001 1.5z" />
    <glyph glyph-name="currency" unicode="&#xa4;" horiz-adv-x="730" 
d="M260 0h-180v110h-70l10 105h60v40h-70l10 109h60v336h420c70 0 120.833 -15.833 152.5 -47.5s47.5 -82.5 47.5 -152.5v-40c0 -70.667 -15.667 -122.5 -47 -155.5s-82.333 -49.5 -153 -49.5h-240v-40h260v-105h-260v-110zM520 500c0 40 -20 60 -60 60h-200v-200h200
c40 0 60 20 60 60v80z" />
    <glyph glyph-name="yen" unicode="&#xa5;" horiz-adv-x="670" 
d="M245 0v130h-155v105h130l-20 40h-110v105h55l-165 320h190l165 -340l165 340h190l-165 -320h55v-105h-110l-20 -40h130v-105h-155v-130h-180z" />
    <glyph glyph-name="brokenbar" unicode="&#xa6;" horiz-adv-x="300" 
d="M240 330h-180v370h180v-370zM60 -170v370h180v-370h-180z" />
    <glyph glyph-name="section" unicode="&#xa7;" horiz-adv-x="590" 
d="M30 550c0 45.333 13.667 81.666 41 108.999s63.666 41 108.999 41h320v-130h-255c-10 0 -18.333 -3.33301 -25 -10s-10 -15 -10 -25v-20c0 -19.333 13.333 -31 40 -35l160 -25c48 -7.33301 85 -23.5 111 -48.5s39 -58.833 39 -101.5v-60c0 -25.333 -5 -48.333 -15 -69
s-25 -36 -45 -46c20 -12.667 35 -28.334 45 -47.001s15 -38 15 -58v-55c0 -45.333 -13.667 -81.666 -41 -108.999s-63.666 -41 -108.999 -41c-42.667 0 -85.834 1 -129.501 3s-83.5 4.33301 -119.5 7c-41.333 2.66699 -81.666 6 -120.999 10v135l102 -8
c30 -2 62.833 -3.66699 98.5 -5s70.5 -2 104.5 -2c10 0 18.333 3.33301 25 10s10 15 10 25v50l-200 30c-48 7.33301 -85 23.5 -111 48.5s-39 58.833 -39 101.5v65c0 25.333 5 48.333 15 69s25 36 45 46c-20 12.667 -35 28.334 -45 47.001s-15 38 -15 58v40zM210 245
c0 -19.333 13.333 -31 40 -35l95 -15c10 0 18.333 3.33301 25 10s10 15 10 25v90l-135 20c-10 0 -18.333 -3.33301 -25 -10s-10 -15 -10 -25v-60z" />
    <glyph glyph-name="dieresis" unicode="&#xa8;" horiz-adv-x="400" 
d="M230 805h170v-140h-170v140zM0 805h170v-140h-170v140z" />
    <glyph glyph-name="copyright" unicode="&#xa9;" horiz-adv-x="850" 
d="M20 490c0 70.667 19 125 57 163s92.333 57 163 57h370c70.667 0 125 -19 163 -57s57 -92.333 57 -163v-280c0 -70.667 -19 -125 -57 -163s-92.333 -57 -163 -57h-370c-70.667 0 -125 19 -163 57s-57 92.333 -57 163v280zM680 520c0 20 -6.66699 36.667 -20 50
s-30 20 -50 20h-370c-20 0 -36.667 -6.66699 -50 -20s-20 -30 -20 -50v-340c0 -20 6.66699 -36.667 20 -50s30 -20 50 -20h370c20 0 36.667 6.66699 50 20s20 30 20 50v340zM595 170c-23.333 -2.66699 -48 -5.33301 -74 -8c-22 -2 -46.5 -3.66699 -73.5 -5
s-54.5 -2 -82.5 -2c-38 0 -67.5 10.5 -88.5 31.5s-31.5 50.5 -31.5 88.5v135c0 40 10.833 70.833 32.5 92.5s52.5 32.5 92.5 32.5h225v-100h-175c-23.333 0 -35 -11.667 -35 -35v-115c0 -20 10 -30 30 -30c18.667 0 38.5 0.666992 59.5 2s40.5 3 58.5 5l62 8v-100z" />
    <glyph glyph-name="ordfeminine" unicode="&#xaa;" horiz-adv-x="365" 
d="M160 425c7.33301 0 14.832 0.666992 22.499 2s14.834 3 21.501 5l21 8v50h-70c-16.667 0 -25 -8.33301 -25 -25v-15c0 -16.667 8.33301 -25 25 -25h5zM344.999 350l-105.001 0.000976562l-10 30c-12 -7.33301 -24.333 -14 -37 -20
c-11.333 -5.33301 -23.833 -10 -37.5 -14s-27.167 -6 -40.5 -6h-5c-30 0 -54.167 9.16699 -72.5 27.5s-27.5 42.5 -27.5 72.5v30c0 30 9.16699 54.167 27.5 72.5s42.5 27.5 72.5 27.5h115v30c0 20 -10 30 -30 30c-14 0 -29.667 -0.833008 -47 -2.5
s-33.666 -3.5 -48.999 -5.5c-18 -2.66699 -36 -5 -54 -7v80c18 2 37 4.33301 57 7c17.333 2 37 3.83301 59 5.5s45 2.5 69 2.5c38 0 66.667 -9.33301 86 -28s29 -44.334 29 -77.001v-255z" />
    <glyph glyph-name="guillemotleft" unicode="&#xab;" horiz-adv-x="611" 
d="M341 90l-101 -90l-230 265l230 265l101 -89l-152 -176zM439 265l152 -175l-101 -90l-230 265l230 265l101 -89z" />
    <glyph glyph-name="logicalnot" unicode="&#xac;" horiz-adv-x="540" 
d="M500 220h-140v90h-320v140h460v-230z" />
    <glyph glyph-name="uni00AD" unicode="&#xad;" horiz-adv-x="470" 
d="M30 280v140h410v-140h-410z" />
    <glyph glyph-name="registered" unicode="&#xae;" horiz-adv-x="850" 
d="M20 490c0 70.667 19 125 57 163s92.333 57 163 57h370c70.667 0 125 -19 163 -57s57 -92.333 57 -163v-280c0 -70.667 -19 -125 -57 -163s-92.333 -57 -163 -57h-370c-70.667 0 -125 19 -163 57s-57 92.333 -57 163v280zM680 520c0 20 -6.66699 36.667 -20 50
s-30 20 -50 20h-370c-20 0 -36.667 -6.66699 -50 -20s-20 -30 -20 -50v-340c0 -20 6.66699 -36.667 20 -50s30 -20 50 -20h370c20 0 36.667 6.66699 50 20s20 30 20 50v340zM425 265l-40 -0.000976562v-100h-140v370h255c40 0 70.833 -10.833 92.5 -32.5
s32.5 -52.5 32.5 -92.5v-10c0 -32.667 -6.5 -58.167 -19.5 -76.5s-28.167 -31.166 -45.5 -38.499l65 -120h-145zM450 354.999c23.333 0 35 11.667 35 35v20c0 23.333 -11.667 35 -35 35h-65v-90h65z" />
    <glyph glyph-name="macron" unicode="&#xaf;" horiz-adv-x="300" 
d="M0 785h300v-120h-300v120z" />
    <glyph glyph-name="degree" unicode="&#xb0;" horiz-adv-x="390" 
d="M370 465c0 -40 -10.833 -70.833 -32.5 -92.5s-52.5 -32.5 -92.5 -32.5h-100c-40 0 -70.833 10.833 -92.5 32.5s-32.5 52.5 -32.5 92.5v120c0 40 10.833 70.833 32.5 92.5s52.5 32.5 92.5 32.5h100c40 0 70.833 -10.833 92.5 -32.5s32.5 -52.5 32.5 -92.5v-120zM250 585
c0 23.333 -11.667 35 -35 35h-40c-23.333 0 -35 -11.667 -35 -35v-120c0 -23.333 11.667 -35 35 -35h40c23.333 0 35 11.667 35 35v120z" />
    <glyph glyph-name="plusminus" unicode="&#xb1;" horiz-adv-x="540" 
d="M340 440h170v-140h-170v-110h155v-140h-450v140h155v110h-170v140h170v150h140v-150z" />
    <glyph glyph-name="twosuperior" unicode="&#xb2;" horiz-adv-x="345" 
d="M325 594c0 -22 -4.83301 -41 -14.5 -57s-23.167 -30 -40.5 -42l-95 -65h150v-90h-305v100l185 130v20c0 20 -10 30 -30 30h-145v90h180c38 0 66.667 -9.33301 86 -28s29 -44.667 29 -78v-10z" />
    <glyph glyph-name="threesuperior" unicode="&#xb3;" horiz-adv-x="350" 
d="M320 616c0 -20.667 -4.83398 -37.501 -14.501 -50.501s-22.5 -22.167 -38.5 -27.5c16 -4 30.5 -13.167 43.5 -27.5s19.5 -36.166 19.5 -65.499c0 -32.667 -9.66699 -58.334 -29 -77.001s-48 -28 -86 -28c-26.667 0 -51.667 0.666992 -75 2s-44 3 -62 5
c-21.333 2.66699 -40.666 5.33398 -57.999 8.00098v85l56 -8c16 -2 33.167 -3.66699 51.5 -5s35.833 -2 52.5 -2c20 0 30 10 30 30s-10 30 -30 30h-110v80h100c20 0 30 10 30 30s-10 30 -30 30h-145v85h180c38 0 66.667 -8.83301 86 -26.5s29 -40.167 29 -67.5z" />
    <glyph glyph-name="acute" unicode="&#xb4;" horiz-adv-x="260" 
d="M10 635l60 170h180l-110 -170h-130z" />
    <glyph glyph-name="mu" unicode="&#xb5;" horiz-adv-x="640" 
d="M50 530l175.999 -0.000976562v-350c0 -10 3.33301 -18.333 10 -25s15 -10 25 -10h34c12.667 0 26 1 40 3s27 4.33301 39 7c14 2.66699 27.667 6 41 10v365h175v-530h-155l-10 50c-17.333 -9.33301 -36 -17.666 -56 -24.999c-17.333 -6.66699 -36.666 -12.5 -57.999 -17.5
s-43.333 -7.5 -66 -7.5h-19v-170h-176v700z" />
    <glyph glyph-name="mu" unicode="&#x3bc;" horiz-adv-x="640" 
d="M50 530l175.999 -0.000976562v-350c0 -10 3.33301 -18.333 10 -25s15 -10 25 -10h34c12.667 0 26 1 40 3s27 4.33301 39 7c14 2.66699 27.667 6 41 10v365h175v-530h-155l-10 50c-17.333 -9.33301 -36 -17.666 -56 -24.999c-17.333 -6.66699 -36.666 -12.5 -57.999 -17.5
s-43.333 -7.5 -66 -7.5h-19v-170h-176v700z" />
    <glyph glyph-name="paragraph" unicode="&#xb6;" horiz-adv-x="690" 
d="M20 540c0 50 14.167 89.167 42.5 117.5s67.5 42.5 117.5 42.5h490v-140h-90v-730h-155v730h-60v-730h-155v430h-30c-50 0 -89.167 14.167 -117.5 42.5s-42.5 67.5 -42.5 117.5v120v0z" />
    <glyph glyph-name="periodcentered" unicode="&#xb7;" horiz-adv-x="300" 
d="M60 425h180v-150h-180v150z" />
    <glyph glyph-name="cedilla" unicode="&#xb8;" horiz-adv-x="220" 
d="M110 20v-40h10c32.667 0 57.5 -8 74.5 -24s25.5 -38 25.5 -66s-8.5 -50 -25.5 -66s-41.833 -24 -74.5 -24h-120v65h100c23.333 0 35 8.33301 35 25s-11.667 25 -35 25h-75v105h85z" />
    <glyph glyph-name="onesuperior" unicode="&#xb9;" horiz-adv-x="250" 
d="M100 340v270l-60 -20l-30 75l100 45h110v-370h-120z" />
    <glyph glyph-name="ordmasculine" unicode="&#xba;" horiz-adv-x="380" 
d="M360 465c0 -40 -10.833 -70.833 -32.5 -92.5s-52.5 -32.5 -92.5 -32.5h-90c-40 0 -70.833 10.833 -92.5 32.5s-32.5 52.5 -32.5 92.5v120c0 40 10.833 70.833 32.5 92.5s52.5 32.5 92.5 32.5h90c40 0 70.833 -10.833 92.5 -32.5s32.5 -52.5 32.5 -92.5v-120zM240 585
c0 23.333 -11.667 35 -35 35h-30c-23.333 0 -35 -11.667 -35 -35v-120c0 -23.333 11.667 -35 35 -35h30c23.333 0 35 11.667 35 35v120z" />
    <glyph glyph-name="guillemotright" unicode="&#xbb;" horiz-adv-x="611" 
d="M20 441l101 89l230 -265l-230 -265l-101 90l152 175zM422 265l-152 176l101 89l230 -265l-230 -265l-101 90z" />
    <glyph glyph-name="onequarter" unicode="&#xbc;" horiz-adv-x="750" 
d="M70 0l400 700h150l-390 -700h-160zM100 340v270l-60 -20l-30 75l100 45h110v-370h-120zM585 65h-195v90l115 205h125l-115 -205h70v65h110v-65h35v-90h-35v-75h-110v75z" />
    <glyph glyph-name="onehalf" unicode="&#xbd;" horiz-adv-x="785" 
d="M70 0l400 700h150l-390 -700h-160zM100 340v270l-60 -20l-30 75l100 45h110v-370h-120zM755 244c0 -22 -4.83301 -41 -14.5 -57s-23.167 -30 -40.5 -42l-95 -65h150v-90h-305v100l185 130v20c0 20 -10 30 -30 30h-145v90h180c38 0 66.667 -9.33301 86 -28
s29 -44.667 29 -78v-10z" />
    <glyph glyph-name="threequarters" unicode="&#xbe;" horiz-adv-x="820" 
d="M140 0l400 700h150l-390 -700h-160zM655 65h-195v90l115 205h125l-115 -205h70v65h110v-65h35v-90h-35v-75h-110v75zM320 616c0 -20.667 -4.83398 -37.501 -14.501 -50.501s-22.5 -22.167 -38.5 -27.5c16 -4 30.5 -13.167 43.5 -27.5s19.5 -36.166 19.5 -65.499
c0 -32.667 -9.66699 -58.334 -29 -77.001s-48 -28 -86 -28c-26.667 0 -51.667 0.666992 -75 2s-44 3 -62 5c-21.333 2.66699 -40.666 5.33398 -57.999 8.00098v85l56 -8c16 -2 33.167 -3.66699 51.5 -5s35.833 -2 52.5 -2c20 0 30 10 30 30s-10 30 -30 30h-110v80h100
c20 0 30 10 30 30s-10 30 -30 30h-145v85h180c38 0 66.667 -8.83301 86 -26.5s29 -40.167 29 -67.5z" />
    <glyph glyph-name="questiondown" unicode="&#xbf;" horiz-adv-x="580" 
d="M435 320l-0.00292969 -140.002l-235 -85v-85c0 -15.333 4.5 -27.5 13.5 -36.5s21.167 -13.5 36.5 -13.5c28.667 0 61.334 0.666992 98.001 2s71.667 3 105 5l117 8v-135c-38.667 -4 -78.667 -7.33301 -120 -10c-35.333 -2.66699 -74.166 -5 -116.499 -7
s-83.5 -3 -123.5 -3c-65.333 0 -113.333 15.333 -144 46s-46 78.667 -46 144v45c0 24.667 2.33301 46.334 7 65.001s12.334 35 23.001 49s24.5 26.333 41.5 37s38.167 20.334 63.5 29.001l100 35v50h180zM434.997 379.998h-180v150h180v-150z" />
    <glyph glyph-name="Agrave" unicode="&#xc0;" horiz-adv-x="710" 
d="M185 0h-195l265 700h200l265 -700h-195l-45 125h-250zM275 255h160l-80 235zM295 730l-110 170h170l60 -170h-120z" />
    <glyph glyph-name="Aacute" unicode="&#xc1;" horiz-adv-x="710" 
d="M185 0h-195l265 700h200l265 -700h-195l-45 125h-250zM275 255h160l-80 235zM285 731l60 170h180l-110 -170h-130z" />
    <glyph glyph-name="Acircumflex" unicode="&#xc2;" horiz-adv-x="710" 
d="M185 0h-195l265 700h200l265 -700h-195l-45 125h-250zM275 255h160l-80 235zM165 731l120 170h140l120 -170h-125l-65 80l-65 -80h-125z" />
    <glyph glyph-name="Atilde" unicode="&#xc3;" horiz-adv-x="710" 
d="M185 0h-195l265 700h200l265 -700h-195l-45 125h-250zM275 255h160l-80 235zM530 841c-6 -21.333 -14.0029 -40.666 -24.0029 -57.999c-9.33301 -14.667 -21.166 -27.834 -35.499 -39.501s-32.833 -17.5 -55.5 -17.5c-14 0 -26.167 2.66699 -36.5 8s-20 11 -29 17
l-26.5 17c-8.66699 5.33301 -18 8 -28 8c-9.33301 0 -17 -2 -23 -6s-11 -8.66699 -15 -14c-4.66699 -6 -8.66699 -12.667 -12 -20l-65 40c5.33301 20.667 13.333 39.667 24 57c8.66699 14.667 20.334 28 35.001 40s33.334 18 56.001 18c14 0 26.167 -2.66699 36.5 -8
s20 -11 29 -17l26.5 -17c8.66699 -5.33301 18 -8 28 -8c8.66699 0 16.167 2 22.5 6s11.5 8.66699 15.5 14c4.66699 6 8.66699 12.667 12 20z" />
    <glyph glyph-name="Adieresis" unicode="&#xc4;" horiz-adv-x="710" 
d="M185 0h-195l265 700h200l265 -700h-195l-45 125h-250zM275 255h160l-80 235zM385 871h170v-140h-170v140zM155 871h170v-140h-170v140z" />
    <glyph glyph-name="Aring" unicode="&#xc5;" horiz-adv-x="710" 
d="M185 0h-195l265 700h200l265 -700h-195l-45 125h-250zM275 255h160l-80 235zM385 926c32.667 0 57.5 -8 74.5 -24s25.5 -38 25.5 -66v-15c0 -28 -8.5 -50 -25.5 -66s-41.833 -24 -74.5 -24h-60c-32.667 0 -57.5 8 -74.5 24s-25.5 38 -25.5 66v15c0 28 8.5 50 25.5 66
s41.833 24 74.5 24h60zM400 831c0 20 -10 30 -30 30h-30c-20 0 -30 -10 -30 -30v-5c0 -20 10 -30 30 -30h30c20 0 30 10 30 30v5z" />
    <glyph glyph-name="AE" unicode="&#xc6;" horiz-adv-x="995" 
d="M-10 0l265 700h720v-140h-335v-135h255v-140h-255v-145h335v-140h-515v125h-230l-45 -125h-195zM275 255h185v305h-80z" />
    <glyph glyph-name="Ccedilla" unicode="&#xc7;" horiz-adv-x="620" 
d="M230 -10c-65.333 0 -113.334 15.333 -144.001 46s-46 78.667 -46 144v320c0 70 15.833 120.833 47.5 152.5s82.5 47.5 152.5 47.5h360v-140h-320c-40 0 -60 -20 -60 -60v-320c0 -15.333 4.5 -27.5 13.5 -36.5s21.167 -13.5 36.5 -13.5
c12.667 0 27.334 0.166992 44.001 0.5s34 0.833008 52 1.5l54.5 2c18.333 0.666992 36.166 1.66699 53.499 3l126 8v-135c-44.667 -4 -89 -7.33301 -133 -10c-38 -2.66699 -78.167 -5 -120.5 -7s-81.166 -3 -116.499 -3zM359.999 20v-40h10c32.667 0 57.5 -8 74.5 -24
s25.5 -38 25.5 -66s-8.5 -50 -25.5 -66s-41.833 -24 -74.5 -24h-120v65h100c23.333 0 35 8.33301 35 25s-11.667 25 -35 25h-75v105h85z" />
    <glyph glyph-name="Egrave" unicode="&#xc8;" horiz-adv-x="635" 
d="M615 0h-555v700h555v-140h-375v-135h295v-140h-295v-145h375v-140zM302 731l-110 170h170l60 -170h-120z" />
    <glyph glyph-name="Eacute" unicode="&#xc9;" horiz-adv-x="635" 
d="M615 0h-555v700h555v-140h-375v-135h295v-140h-295v-145h375v-140zM267 731l60 170h180l-110 -170h-130z" />
    <glyph glyph-name="Ecircumflex" unicode="&#xca;" horiz-adv-x="635" 
d="M615 0h-555v700h555v-140h-375v-135h295v-140h-295v-145h375v-140zM147 731l120 170h140l120 -170h-125l-65 80l-65 -80h-125z" />
    <glyph glyph-name="Edieresis" unicode="&#xcb;" horiz-adv-x="635" 
d="M615 0h-555v700h555v-140h-375v-135h295v-140h-295v-145h375v-140zM367 901h170v-140h-170v140zM137 901h170v-140h-170v140z" />
    <glyph glyph-name="Igrave" unicode="&#xcc;" horiz-adv-x="420" 
d="M390 0h-360v140h90v420h-90v140h360v-140h-90v-420h90v-140zM165 730l-110 170h170l60 -170h-120z" />
    <glyph glyph-name="Iacute" unicode="&#xcd;" horiz-adv-x="420" 
d="M390 0h-360v140h90v420h-90v140h360v-140h-90v-420h90v-140zM140 731l60 170h180l-110 -170h-130z" />
    <glyph glyph-name="Icircumflex" unicode="&#xce;" horiz-adv-x="420" 
d="M390 0h-360v140h90v420h-90v140h360v-140h-90v-420h90v-140zM20 730l120 170h140l120 -170h-125l-65 80l-65 -80h-125z" />
    <glyph glyph-name="Idieresis" unicode="&#xcf;" horiz-adv-x="420" 
d="M390 0h-360v140h90v420h-90v140h360v-140h-90v-420h90v-140zM240 901h170v-140h-170v140zM10 901h170v-140h-170v140z" />
    <glyph glyph-name="Eth" unicode="&#xd0;" horiz-adv-x="740" 
d="M80 420v280h390c75.333 0 132.5 -19.5 171.5 -58.5s58.5 -96.167 58.5 -171.5v-240c0 -75.333 -19.5 -132.5 -58.5 -171.5s-96.167 -58.5 -171.5 -58.5h-390v285h-60v135h60zM520 470c0 60 -30 90 -90 90h-170v-140h120v-135h-120v-145h170c60 0 90 30 90 90v240z" />
    <glyph glyph-name="Ntilde" unicode="&#xd1;" horiz-adv-x="730" 
d="M670 0h-190l-240 420v-420h-180v700h190l240 -420v420h180v-700zM540 851c-6 -21.333 -14.0029 -40.666 -24.0029 -57.999c-9.33301 -14.667 -21.166 -27.834 -35.499 -39.501s-32.833 -17.5 -55.5 -17.5c-14 0 -26.167 2.66699 -36.5 8s-20 11 -29 17l-26.5 17
c-8.66699 5.33301 -18 8 -28 8c-9.33301 0 -17 -2 -23 -6s-11 -8.66699 -15 -14c-4.66699 -6 -8.66699 -12.667 -12 -20l-65 40c5.33301 20.667 13.333 39.667 24 57c8.66699 14.667 20.334 28 35.001 40s33.334 18 56.001 18c14 0 26.167 -2.66699 36.5 -8s20 -11 29 -17
l26.5 -17c8.66699 -5.33301 18 -8 28 -8c8.66699 0 16.167 2 22.5 6s11.5 8.66699 15.5 14c4.66699 6 8.66699 12.667 12 20z" />
    <glyph glyph-name="Ograve" unicode="&#xd2;" horiz-adv-x="730" 
d="M510 510c0 40 -20 60 -60 60h-170c-40 0 -60 -20 -60 -60v-320c0 -40 20 -60 60 -60h170c40 0 60 20 60 60v320zM690 190c0 -70 -15.833 -120.833 -47.5 -152.5s-82.5 -47.5 -152.5 -47.5h-250c-70 0 -120.833 15.833 -152.5 47.5s-47.5 82.5 -47.5 152.5v320
c0 70 15.833 120.833 47.5 152.5s82.5 47.5 152.5 47.5h250c70 0 120.833 -15.833 152.5 -47.5s47.5 -82.5 47.5 -152.5v-320zM320 740l-110 170h170l60 -170h-120z" />
    <glyph glyph-name="Oacute" unicode="&#xd3;" horiz-adv-x="730" 
d="M510 510c0 40 -20 60 -60 60h-170c-40 0 -60 -20 -60 -60v-320c0 -40 20 -60 60 -60h170c40 0 60 20 60 60v320zM690 190c0 -70 -15.833 -120.833 -47.5 -152.5s-82.5 -47.5 -152.5 -47.5h-250c-70 0 -120.833 15.833 -152.5 47.5s-47.5 82.5 -47.5 152.5v320
c0 70 15.833 120.833 47.5 152.5s82.5 47.5 152.5 47.5h250c70 0 120.833 -15.833 152.5 -47.5s47.5 -82.5 47.5 -152.5v-320zM295 741l60 170h180l-110 -170h-130z" />
    <glyph glyph-name="Ocircumflex" unicode="&#xd4;" horiz-adv-x="730" 
d="M510 510c0 40 -20 60 -60 60h-170c-40 0 -60 -20 -60 -60v-320c0 -40 20 -60 60 -60h170c40 0 60 20 60 60v320zM690 190c0 -70 -15.833 -120.833 -47.5 -152.5s-82.5 -47.5 -152.5 -47.5h-250c-70 0 -120.833 15.833 -152.5 47.5s-47.5 82.5 -47.5 152.5v320
c0 70 15.833 120.833 47.5 152.5s82.5 47.5 152.5 47.5h250c70 0 120.833 -15.833 152.5 -47.5s47.5 -82.5 47.5 -152.5v-320zM175 741l120 170h140l120 -170h-125l-65 80l-65 -80h-125z" />
    <glyph glyph-name="Otilde" unicode="&#xd5;" horiz-adv-x="730" 
d="M510 510c0 40 -20 60 -60 60h-170c-40 0 -60 -20 -60 -60v-320c0 -40 20 -60 60 -60h170c40 0 60 20 60 60v320zM690 190c0 -70 -15.833 -120.833 -47.5 -152.5s-82.5 -47.5 -152.5 -47.5h-250c-70 0 -120.833 15.833 -152.5 47.5s-47.5 82.5 -47.5 152.5v320
c0 70 15.833 120.833 47.5 152.5s82.5 47.5 152.5 47.5h250c70 0 120.833 -15.833 152.5 -47.5s47.5 -82.5 47.5 -152.5v-320zM540 861c-6 -21.333 -14.0029 -40.666 -24.0029 -57.999c-9.33301 -14.667 -21.166 -27.834 -35.499 -39.501s-32.833 -17.5 -55.5 -17.5
c-14 0 -26.167 2.66699 -36.5 8s-20 11 -29 17l-26.5 17c-8.66699 5.33301 -18 8 -28 8c-9.33301 0 -17 -2 -23 -6s-11 -8.66699 -15 -14c-4.66699 -6 -8.66699 -12.667 -12 -20l-65 40c5.33301 20.667 13.333 39.667 24 57c8.66699 14.667 20.334 28 35.001 40
s33.334 18 56.001 18c14 0 26.167 -2.66699 36.5 -8s20 -11 29 -17l26.5 -17c8.66699 -5.33301 18 -8 28 -8c8.66699 0 16.167 2 22.5 6s11.5 8.66699 15.5 14c4.66699 6 8.66699 12.667 12 20z" />
    <glyph glyph-name="Odieresis" unicode="&#xd6;" horiz-adv-x="730" 
d="M510 510c0 40 -20 60 -60 60h-170c-40 0 -60 -20 -60 -60v-320c0 -40 20 -60 60 -60h170c40 0 60 20 60 60v320zM690 190c0 -70 -15.833 -120.833 -47.5 -152.5s-82.5 -47.5 -152.5 -47.5h-250c-70 0 -120.833 15.833 -152.5 47.5s-47.5 82.5 -47.5 152.5v320
c0 70 15.833 120.833 47.5 152.5s82.5 47.5 152.5 47.5h250c70 0 120.833 -15.833 152.5 -47.5s47.5 -82.5 47.5 -152.5v-320zM395 901h170v-140h-170v140zM165 901h170v-140h-170v140z" />
    <glyph glyph-name="multiply" unicode="&#xd7;" horiz-adv-x="540" 
d="M270 450l130 130l100 -100l-130 -130l130 -130l-100 -100l-130 130l-130 -130l-100 100l130 130l-130 130l100 100z" />
    <glyph glyph-name="Oslash" unicode="&#xd8;" horiz-adv-x="730" 
d="M25 50l31.001 34.001c-10.667 27.333 -16 62.666 -16 105.999v320c0 70 15.833 120.833 47.5 152.5s82.5 47.5 152.5 47.5h250c48 0 87.667 -8 119 -24l26 29l70 -65l-32 -35c11.333 -26.667 17 -61.667 17 -105v-320c0 -70 -15.833 -120.833 -47.5 -152.5
s-82.5 -47.5 -152.5 -47.5h-250c-48.667 0 -88.334 7.66699 -119.001 23l-26 -28zM220.001 262.001l271 296c-10 8 -23.667 12 -41 12h-170c-40 0 -60 -20 -60 -60v-248zM510.001 437.001l-272 -296c9.33301 -7.33301 23.333 -11 42 -11h170c40 0 60 20 60 60v247z" />
    <glyph glyph-name="Ugrave" unicode="&#xd9;" horiz-adv-x="750" 
d="M510 700h180v-510c0 -70 -15.833 -120.833 -47.5 -152.5s-82.5 -47.5 -152.5 -47.5h-230c-70 0 -120.833 15.833 -152.5 47.5s-47.5 82.5 -47.5 152.5v510h180v-510c0 -40 20 -60 60 -60h150c40 0 60 20 60 60v510zM330 721l-110 170h170l60 -170h-120z" />
    <glyph glyph-name="Uacute" unicode="&#xda;" horiz-adv-x="750" 
d="M510 700h180v-510c0 -70 -15.833 -120.833 -47.5 -152.5s-82.5 -47.5 -152.5 -47.5h-230c-70 0 -120.833 15.833 -152.5 47.5s-47.5 82.5 -47.5 152.5v510h180v-510c0 -40 20 -60 60 -60h150c40 0 60 20 60 60v510zM305 721l60 170h180l-110 -170h-130z" />
    <glyph glyph-name="Ucircumflex" unicode="&#xdb;" horiz-adv-x="750" 
d="M510 700h180v-510c0 -70 -15.833 -120.833 -47.5 -152.5s-82.5 -47.5 -152.5 -47.5h-230c-70 0 -120.833 15.833 -152.5 47.5s-47.5 82.5 -47.5 152.5v510h180v-510c0 -40 20 -60 60 -60h150c40 0 60 20 60 60v510zM185 731l120 170h140l120 -170h-125l-65 80l-65 -80
h-125z" />
    <glyph glyph-name="Udieresis" unicode="&#xdc;" horiz-adv-x="750" 
d="M510 700h180v-510c0 -70 -15.833 -120.833 -47.5 -152.5s-82.5 -47.5 -152.5 -47.5h-230c-70 0 -120.833 15.833 -152.5 47.5s-47.5 82.5 -47.5 152.5v510h180v-510c0 -40 20 -60 60 -60h150c40 0 60 20 60 60v510zM405 891h170v-140h-170v140zM175 891h170v-140h-170
v140z" />
    <glyph glyph-name="Yacute" unicode="&#xdd;" horiz-adv-x="670" 
d="M-20 700h190l165 -340l165 340h190l-265 -515v-185h-180v185zM255 721l60 170h180l-110 -170h-130z" />
    <glyph glyph-name="Thorn" unicode="&#xde;" horiz-adv-x="730" 
d="M700 270c0 -70 -15.833 -120.833 -47.5 -152.5s-82.5 -47.5 -152.5 -47.5h-260v-80h-180v720h180v-80h260c70 0 120.833 -15.833 152.5 -47.5s47.5 -82.5 47.5 -152.5v-160zM520 430c0 40 -20 60 -60 60h-220v-280h220c40 0 60 20 60 60v160z" />
    <glyph glyph-name="germandbls" unicode="&#xdf;" horiz-adv-x="620" 
d="M295 290l-0.00195312 134.998h10c26.667 0 40 13.333 40 40v70c0 26.667 -13.333 40 -40 40h-40c-26.667 0 -40 -13.333 -40 -40v-535h-175v550c0 50 14.167 89.167 42.5 117.5s67.5 42.5 117.5 42.5h150c50 0 89.167 -14.167 117.5 -42.5s42.5 -67.5 42.5 -117.5v-90
c0 -36.667 -10 -65 -30 -85c32.667 -7.33301 59.167 -22.166 79.5 -44.499s30.5 -52.5 30.5 -90.5v-100c0 -45.333 -13.667 -81.666 -41 -108.999s-63.666 -41 -108.999 -41c-15.333 0 -30.666 0.5 -45.999 1.5s-29.333 2.16699 -42 3.5c-14.667 1.33301 -28.667 3 -42 5
v125h70c10 0 18.333 3.33301 25 10s10 15 10 25v90c0 26.667 -13.333 40 -40 40h-90z" />
    <glyph glyph-name="agrave" unicode="&#xe0;" horiz-adv-x="595" 
d="M260 130c12.667 0 26 1 40 3s27 4.33301 39 7c14 2.66699 27.667 6 41 10v60h-145c-10 0 -18.333 -3.33301 -25 -10s-10 -15 -10 -25v-10c0 -10 3.33301 -18.333 10 -25s15 -10 25 -10h25zM175 -10c-45.333 0 -81.667 13.667 -109 41s-41 63.666 -41 108.999v45
c0 45.333 13.667 81.666 41 108.999s63.666 41 108.999 41h205v40c0 10 -3.33301 18.333 -10 25s-15 10 -25 10c-26.667 0 -55.5 -0.833008 -86.5 -2.5s-60.167 -3.5 -87.5 -5.5c-32 -2.66699 -64 -5 -96 -7v125c36.667 4 74 7.33301 112 10
c32.667 2.66699 68.334 5 107.001 7s75.667 3 111 3c45.333 0 81.666 -13.667 108.999 -41s41 -63.666 41 -108.999v-390h-155l-10 50c-17.333 -11.333 -36 -21.333 -56 -30c-17.333 -7.33301 -36.666 -14.166 -57.999 -20.499s-43.333 -9.5 -66 -9.5h-35zM261.999 570
l-110 170h170l60 -170h-120z" />
    <glyph glyph-name="aacute" unicode="&#xe1;" horiz-adv-x="595" 
d="M260 130c12.667 0 26 1 40 3s27 4.33301 39 7c14 2.66699 27.667 6 41 10v60h-145c-10 0 -18.333 -3.33301 -25 -10s-10 -15 -10 -25v-10c0 -10 3.33301 -18.333 10 -25s15 -10 25 -10h25zM175 -10c-45.333 0 -81.667 13.667 -109 41s-41 63.666 -41 108.999v45
c0 45.333 13.667 81.666 41 108.999s63.666 41 108.999 41h205v40c0 10 -3.33301 18.333 -10 25s-15 10 -25 10c-26.667 0 -55.5 -0.833008 -86.5 -2.5s-60.167 -3.5 -87.5 -5.5c-32 -2.66699 -64 -5 -96 -7v125c36.667 4 74 7.33301 112 10
c32.667 2.66699 68.334 5 107.001 7s75.667 3 111 3c45.333 0 81.666 -13.667 108.999 -41s41 -63.666 41 -108.999v-390h-155l-10 50c-17.333 -11.333 -36 -21.333 -56 -30c-17.333 -7.33301 -36.666 -14.166 -57.999 -20.499s-43.333 -9.5 -66 -9.5h-35zM218.999 571
l60 170h180l-110 -170h-130z" />
    <glyph glyph-name="acircumflex" unicode="&#xe2;" horiz-adv-x="595" 
d="M260 130c12.667 0 26 1 40 3s27 4.33301 39 7c14 2.66699 27.667 6 41 10v60h-145c-10 0 -18.333 -3.33301 -25 -10s-10 -15 -10 -25v-10c0 -10 3.33301 -18.333 10 -25s15 -10 25 -10h25zM175 -10c-45.333 0 -81.667 13.667 -109 41s-41 63.666 -41 108.999v45
c0 45.333 13.667 81.666 41 108.999s63.666 41 108.999 41h205v40c0 10 -3.33301 18.333 -10 25s-15 10 -25 10c-26.667 0 -55.5 -0.833008 -86.5 -2.5s-60.167 -3.5 -87.5 -5.5c-32 -2.66699 -64 -5 -96 -7v125c36.667 4 74 7.33301 112 10
c32.667 2.66699 68.334 5 107.001 7s75.667 3 111 3c45.333 0 81.666 -13.667 108.999 -41s41 -63.666 41 -108.999v-390h-155l-10 50c-17.333 -11.333 -36 -21.333 -56 -30c-17.333 -7.33301 -36.666 -14.166 -57.999 -20.499s-43.333 -9.5 -66 -9.5h-35zM129.999 571
l120 170h140l120 -170h-125l-65 80l-65 -80h-125z" />
    <glyph glyph-name="atilde" unicode="&#xe3;" horiz-adv-x="595" 
d="M260 130c12.667 0 26 1 40 3s27 4.33301 39 7c14 2.66699 27.667 6 41 10v60h-145c-10 0 -18.333 -3.33301 -25 -10s-10 -15 -10 -25v-10c0 -10 3.33301 -18.333 10 -25s15 -10 25 -10h25zM175 -10c-45.333 0 -81.667 13.667 -109 41s-41 63.666 -41 108.999v45
c0 45.333 13.667 81.666 41 108.999s63.666 41 108.999 41h205v40c0 10 -3.33301 18.333 -10 25s-15 10 -25 10c-26.667 0 -55.5 -0.833008 -86.5 -2.5s-60.167 -3.5 -87.5 -5.5c-32 -2.66699 -64 -5 -96 -7v125c36.667 4 74 7.33301 112 10
c32.667 2.66699 68.334 5 107.001 7s75.667 3 111 3c45.333 0 81.666 -13.667 108.999 -41s41 -63.666 41 -108.999v-390h-155l-10 50c-17.333 -11.333 -36 -21.333 -56 -30c-17.333 -7.33301 -36.666 -14.166 -57.999 -20.499s-43.333 -9.5 -66 -9.5h-35zM491.999 686
c-6 -21.333 -14.0029 -40.666 -24.0029 -57.999c-9.33301 -14.667 -21.166 -27.834 -35.499 -39.501s-32.833 -17.5 -55.5 -17.5c-14 0 -26.167 2.66699 -36.5 8s-20 11 -29 17l-26.5 17c-8.66699 5.33301 -18 8 -28 8c-9.33301 0 -17 -2 -23 -6s-11 -8.66699 -15 -14
c-4.66699 -6 -8.66699 -12.667 -12 -20l-65 40c5.33301 20.667 13.333 39.667 24 57c8.66699 14.667 20.334 28 35.001 40s33.334 18 56.001 18c14 0 26.167 -2.66699 36.5 -8s20 -11 29 -17l26.5 -17c8.66699 -5.33301 18 -8 28 -8c8.66699 0 16.167 2 22.5 6
s11.5 8.66699 15.5 14c4.66699 6 8.66699 12.667 12 20z" />
    <glyph glyph-name="adieresis" unicode="&#xe4;" horiz-adv-x="595" 
d="M260 130c12.667 0 26 1 40 3s27 4.33301 39 7c14 2.66699 27.667 6 41 10v60h-145c-10 0 -18.333 -3.33301 -25 -10s-10 -15 -10 -25v-10c0 -10 3.33301 -18.333 10 -25s15 -10 25 -10h25zM175 -10c-45.333 0 -81.667 13.667 -109 41s-41 63.666 -41 108.999v45
c0 45.333 13.667 81.666 41 108.999s63.666 41 108.999 41h205v40c0 10 -3.33301 18.333 -10 25s-15 10 -25 10c-26.667 0 -55.5 -0.833008 -86.5 -2.5s-60.167 -3.5 -87.5 -5.5c-32 -2.66699 -64 -5 -96 -7v125c36.667 4 74 7.33301 112 10
c32.667 2.66699 68.334 5 107.001 7s75.667 3 111 3c45.333 0 81.666 -13.667 108.999 -41s41 -63.666 41 -108.999v-390h-155l-10 50c-17.333 -11.333 -36 -21.333 -56 -30c-17.333 -7.33301 -36.666 -14.166 -57.999 -20.499s-43.333 -9.5 -66 -9.5h-35zM349.999 731h170
v-140h-170v140zM119.999 731h170v-140h-170v140z" />
    <glyph glyph-name="aring" unicode="&#xe5;" horiz-adv-x="595" 
d="M260 130c12.667 0 26 1 40 3s27 4.33301 39 7c14 2.66699 27.667 6 41 10v60h-145c-10 0 -18.333 -3.33301 -25 -10s-10 -15 -10 -25v-10c0 -10 3.33301 -18.333 10 -25s15 -10 25 -10h25zM175 -10c-45.333 0 -81.667 13.667 -109 41s-41 63.666 -41 108.999v45
c0 45.333 13.667 81.666 41 108.999s63.666 41 108.999 41h205v40c0 10 -3.33301 18.333 -10 25s-15 10 -25 10c-26.667 0 -55.5 -0.833008 -86.5 -2.5s-60.167 -3.5 -87.5 -5.5c-32 -2.66699 -64 -5 -96 -7v125c36.667 4 74 7.33301 112 10
c32.667 2.66699 68.334 5 107.001 7s75.667 3 111 3c45.333 0 81.666 -13.667 108.999 -41s41 -63.666 41 -108.999v-390h-155l-10 50c-17.333 -11.333 -36 -21.333 -56 -30c-17.333 -7.33301 -36.666 -14.166 -57.999 -20.499s-43.333 -9.5 -66 -9.5h-35zM336.999 765
c32.667 0 57.5 -8 74.5 -24s25.5 -38 25.5 -66v-15c0 -28 -8.5 -50 -25.5 -66s-41.833 -24 -74.5 -24h-60c-32.667 0 -57.5 8 -74.5 24s-25.5 38 -25.5 66v15c0 28 8.5 50 25.5 66s41.833 24 74.5 24h60zM351.999 670c0 20 -10 30 -30 30h-30c-20 0 -30 -10 -30 -30v-5
c0 -20 10 -30 30 -30h30c20 0 30 10 30 30v5z" />
    <glyph glyph-name="ae" unicode="&#xe6;" horiz-adv-x="920" 
d="M360 540c17.333 0 32.4971 -1.83203 45.4971 -5.49902s24.167 -7.83398 33.5 -12.501c10 -5.33301 18.667 -11 26 -17c6.66699 6 15.334 11.667 26.001 17c8.66699 4.66699 19.667 8.83398 33 12.501s28.666 5.5 45.999 5.5h150c50 0 89.167 -14.167 117.5 -42.5
s42.5 -67.5 42.5 -117.5v-175h-335v-55c0 -7.33301 3.33301 -14.166 10 -20.499s15 -9.5 25 -9.5c28.667 0 59.334 0.666992 92.001 2s63 3 91 5l97 8v-125c-37.333 -4 -75.333 -7.33301 -114 -10c-33.333 -2.66699 -69.833 -5 -109.5 -7s-78.5 -3 -116.5 -3
c-28 0 -50.333 3.33301 -67 10s-29.667 14 -39 22c-11.333 9.33301 -19.333 20.333 -24 33c-18 -12.667 -37.333 -23.667 -58 -33c-17.333 -8 -37.333 -15.333 -60 -22s-46.667 -10 -72 -10h-25c-45.333 0 -81.666 13.667 -108.999 41s-41 63.666 -41 108.999v45
c0 45.333 13.667 81.666 41 108.999s63.666 41 108.999 41h195v44c-1.33301 9.33301 -5.16602 16.833 -11.499 22.5s-14.166 8.5 -23.499 8.5c-26.667 0 -55 -0.833008 -85 -2.5s-58 -3.5 -84 -5.5l-91 -7v125c30.667 4 62 7.33301 94 10c28 2.66699 58.667 5 92 7
s66.333 3 99 3zM584.997 415.001c-26.667 0 -40 -13.333 -40 -40v-45h160v45c0 26.667 -13.333 40 -40 40h-80zM249.997 130.001c12.667 0 26 1 40 3s27 4.33301 39 7c14 2.66699 27.667 6 41 10v60h-135c-10 0 -18.333 -3.33301 -25 -10s-10 -15 -10 -25v-10
c0 -10 3.33301 -18.333 10 -25s15 -10 25 -10h15z" />
    <glyph glyph-name="ccedilla" unicode="&#xe7;" horiz-adv-x="550" 
d="M40 370c0 50 14.166 89.168 42.499 117.501s67.5 42.5 117.5 42.5h320v-135h-265c-26.667 0 -40 -13.333 -40 -40v-195c0 -10 3.33301 -18.333 10 -25s15 -10 25 -10c26 0 54.667 0.666992 86 2s60.666 3 87.999 5l96 8v-130c-37.333 -4 -75 -7.33301 -113 -10
c-32.667 -2.66699 -68.167 -5 -106.5 -7s-75.166 -3 -110.499 -3c-45.333 0 -81.666 13.667 -108.999 41s-41 63.666 -41 108.999v230zM314.999 20.001v-40h10c32.667 0 57.5 -8 74.5 -24s25.5 -38 25.5 -66s-8.5 -50 -25.5 -66s-41.833 -24 -74.5 -24h-120v65h100
c23.333 0 35 8.33301 35 25s-11.667 25 -35 25h-75v105h85z" />
    <glyph glyph-name="egrave" unicode="&#xe8;" horiz-adv-x="600" 
d="M255 415c-26.667 0 -40 -13.333 -40 -40v-55h170v55c0 26.667 -13.333 40 -40 40h-90zM40 380c0 50 14.167 89.168 42.5 117.501s67.5 42.5 117.5 42.5h200c50 0 89.167 -14.167 117.5 -42.5s42.5 -67.5 42.5 -117.5v-185h-345v-40c0 -10 3.33301 -18.333 10 -25
s15 -10 25 -10c28.667 0 59.834 0.666992 93.501 2s65.167 3 94.5 5l102 8v-125c-38.667 -4 -78.334 -7.33301 -119.001 -10c-34.667 -2.66699 -72.334 -5 -113.001 -7s-80 -3 -118 -3c-45.333 0 -81.666 13.667 -108.999 41s-41 63.666 -41 108.999v240zM255 570.001
l-110 170h170l60 -170h-120z" />
    <glyph glyph-name="eacute" unicode="&#xe9;" horiz-adv-x="600" 
d="M255 415c-26.667 0 -40 -13.333 -40 -40v-55h170v55c0 26.667 -13.333 40 -40 40h-90zM40 380c0 50 14.167 89.168 42.5 117.501s67.5 42.5 117.5 42.5h200c50 0 89.167 -14.167 117.5 -42.5s42.5 -67.5 42.5 -117.5v-185h-345v-40c0 -10 3.33301 -18.333 10 -25
s15 -10 25 -10c28.667 0 59.834 0.666992 93.501 2s65.167 3 94.5 5l102 8v-125c-38.667 -4 -78.334 -7.33301 -119.001 -10c-34.667 -2.66699 -72.334 -5 -113.001 -7s-80 -3 -118 -3c-45.333 0 -81.666 13.667 -108.999 41s-41 63.666 -41 108.999v240zM220 571.001
l60 170h180l-110 -170h-130z" />
    <glyph glyph-name="ecircumflex" unicode="&#xea;" horiz-adv-x="600" 
d="M255 415c-26.667 0 -40 -13.333 -40 -40v-55h170v55c0 26.667 -13.333 40 -40 40h-90zM40 380c0 50 14.167 89.168 42.5 117.501s67.5 42.5 117.5 42.5h200c50 0 89.167 -14.167 117.5 -42.5s42.5 -67.5 42.5 -117.5v-185h-345v-40c0 -10 3.33301 -18.333 10 -25
s15 -10 25 -10c28.667 0 59.834 0.666992 93.501 2s65.167 3 94.5 5l102 8v-125c-38.667 -4 -78.334 -7.33301 -119.001 -10c-34.667 -2.66699 -72.334 -5 -113.001 -7s-80 -3 -118 -3c-45.333 0 -81.666 13.667 -108.999 41s-41 63.666 -41 108.999v240zM110 571.001
l120 170h140l120 -170h-125l-65 80l-65 -80h-125z" />
    <glyph glyph-name="edieresis" unicode="&#xeb;" horiz-adv-x="600" 
d="M255 415c-26.667 0 -40 -13.333 -40 -40v-55h170v55c0 26.667 -13.333 40 -40 40h-90zM40 380c0 50 14.167 89.168 42.5 117.501s67.5 42.5 117.5 42.5h200c50 0 89.167 -14.167 117.5 -42.5s42.5 -67.5 42.5 -117.5v-185h-345v-40c0 -10 3.33301 -18.333 10 -25
s15 -10 25 -10c28.667 0 59.834 0.666992 93.501 2s65.167 3 94.5 5l102 8v-125c-38.667 -4 -78.334 -7.33301 -119.001 -10c-34.667 -2.66699 -72.334 -5 -113.001 -7s-80 -3 -118 -3c-45.333 0 -81.666 13.667 -108.999 41s-41 63.666 -41 108.999v240zM330 710.001h170
v-140h-170v140zM100 710.001h170v-140h-170v140z" />
    <glyph glyph-name="igrave" unicode="&#xec;" horiz-adv-x="320" 
d="M270 530v-530h-175v395h-75v135h250zM134 570l-110 170h170l60 -170h-120z" />
    <glyph glyph-name="iacute" unicode="&#xed;" horiz-adv-x="320" 
d="M270 530v-530h-175v395h-75v135h250zM100 571l60 170h180l-110 -170h-130z" />
    <glyph glyph-name="icircumflex" unicode="&#xee;" horiz-adv-x="320" 
d="M270 530v-530h-175v395h-75v135h250zM-25 569l120 170h140l120 -170h-125l-65 80l-65 -80h-125z" />
    <glyph glyph-name="idieresis" unicode="&#xef;" horiz-adv-x="320" 
d="M270 530v-530h-175v395h-75v135h250zM190 710h170v-140h-170v140zM-40 710h170v-140h-170v140z" />
    <glyph glyph-name="eth" unicode="&#xf0;" horiz-adv-x="610" 
d="M314 692l66.001 -7c30 -3.33301 57.333 -10.666 82 -21.999s45.667 -25.833 63 -43.5s30.833 -38 40.5 -61s14.5 -47.5 14.5 -73.5v-335c0 -50 -14.167 -89.167 -42.5 -117.5s-67.5 -42.5 -117.5 -42.5h-220c-50 0 -89.167 14.167 -117.5 42.5s-42.5 67.5 -42.5 117.5
v140c0 45.333 13.667 81.666 41 108.999s63.666 41 108.999 41h45c17.333 0 35.833 -1 55.5 -3s38.167 -4.33301 55.5 -7c20 -2.66699 39.667 -6 59 -10v65c0 17.333 -5.83301 31.333 -17.5 42s-27.5 17 -47.5 19l-40 4l-5 -55l-115 10l5 57l-80 8l15 140l79 -7l6 62
l115 -10zM365.001 125c26.667 0 40 13.333 40 40v130c-12.667 1.33301 -25.667 3 -39 5c-11.333 1.33301 -24.333 2.5 -39 3.5s-28.667 1.5 -42 1.5h-35c-10 0 -18.333 -3.33301 -25 -10s-10 -15 -10 -25v-105c0 -26.667 13.333 -40 40 -40h110z" />
    <glyph glyph-name="ntilde" unicode="&#xf1;" 
d="M205 530l10.002 -50c17.333 11.333 36 21.333 56 30c17.333 7.33301 36.666 14.166 57.999 20.499s43.333 9.5 66 9.5h45c45.333 0 81.666 -13.667 108.999 -41s41 -63.666 41 -108.999v-390h-175v360c0 10 -3.33301 18.333 -10 25s-15 10 -25 10h-35
c-12.667 0 -26 -1 -40 -3s-27 -4.33301 -39 -7c-14 -2.66699 -27.667 -6 -41 -10v-375h-175v530h155zM490.002 696c-6 -21.333 -14.0029 -40.666 -24.0029 -57.999c-9.33301 -14.667 -21.166 -27.834 -35.499 -39.501s-32.833 -17.5 -55.5 -17.5
c-14 0 -26.167 2.66699 -36.5 8s-20 11 -29 17l-26.5 17c-8.66699 5.33301 -18 8 -28 8c-9.33301 0 -17 -2 -23 -6s-11 -8.66699 -15 -14c-4.66699 -6 -8.66699 -12.667 -12 -20l-65 40c5.33301 20.667 13.333 39.667 24 57c8.66699 14.667 20.334 28 35.001 40
s33.334 18 56.001 18c14 0 26.167 -2.66699 36.5 -8s20 -11 29 -17l26.5 -17c8.66699 -5.33301 18 -8 28 -8c8.66699 0 16.167 2 22.5 6s11.5 8.66699 15.5 14c4.66699 6 8.66699 12.667 12 20z" />
    <glyph glyph-name="ograve" unicode="&#xf2;" 
d="M590 150c0 -50 -14.167 -89.167 -42.5 -117.5s-67.5 -42.5 -117.5 -42.5h-230c-50 0 -89.167 14.167 -117.5 42.5s-42.5 67.5 -42.5 117.5v230c0 50 14.167 89.167 42.5 117.5s67.5 42.5 117.5 42.5h230c50 0 89.167 -14.167 117.5 -42.5s42.5 -67.5 42.5 -117.5v-230z
M415 365c0 26.667 -13.333 40 -40 40h-120c-26.667 0 -40 -13.333 -40 -40v-200c0 -26.667 13.333 -40 40 -40h120c26.667 0 40 13.333 40 40v200zM260 570l-110 170h170l60 -170h-120z" />
    <glyph glyph-name="oacute" unicode="&#xf3;" 
d="M590 150c0 -50 -14.167 -89.167 -42.5 -117.5s-67.5 -42.5 -117.5 -42.5h-230c-50 0 -89.167 14.167 -117.5 42.5s-42.5 67.5 -42.5 117.5v230c0 50 14.167 89.167 42.5 117.5s67.5 42.5 117.5 42.5h230c50 0 89.167 -14.167 117.5 -42.5s42.5 -67.5 42.5 -117.5v-230z
M415 365c0 26.667 -13.333 40 -40 40h-120c-26.667 0 -40 -13.333 -40 -40v-200c0 -26.667 13.333 -40 40 -40h120c26.667 0 40 13.333 40 40v200zM245 570l60 170h180l-110 -170h-130z" />
    <glyph glyph-name="ocircumflex" unicode="&#xf4;" 
d="M590 150c0 -50 -14.167 -89.167 -42.5 -117.5s-67.5 -42.5 -117.5 -42.5h-230c-50 0 -89.167 14.167 -117.5 42.5s-42.5 67.5 -42.5 117.5v230c0 50 14.167 89.167 42.5 117.5s67.5 42.5 117.5 42.5h230c50 0 89.167 -14.167 117.5 -42.5s42.5 -67.5 42.5 -117.5v-230z
M415 365c0 26.667 -13.333 40 -40 40h-120c-26.667 0 -40 -13.333 -40 -40v-200c0 -26.667 13.333 -40 40 -40h120c26.667 0 40 13.333 40 40v200zM125 571l120 170h140l120 -170h-125l-65 80l-65 -80h-125z" />
    <glyph glyph-name="otilde" unicode="&#xf5;" 
d="M590 150c0 -50 -14.167 -89.167 -42.5 -117.5s-67.5 -42.5 -117.5 -42.5h-230c-50 0 -89.167 14.167 -117.5 42.5s-42.5 67.5 -42.5 117.5v230c0 50 14.167 89.167 42.5 117.5s67.5 42.5 117.5 42.5h230c50 0 89.167 -14.167 117.5 -42.5s42.5 -67.5 42.5 -117.5v-230z
M415 365c0 26.667 -13.333 40 -40 40h-120c-26.667 0 -40 -13.333 -40 -40v-200c0 -26.667 13.333 -40 40 -40h120c26.667 0 40 13.333 40 40v200zM490 686c-6 -21.333 -14.0029 -40.666 -24.0029 -57.999c-9.33301 -14.667 -21.166 -27.834 -35.499 -39.501
s-32.833 -17.5 -55.5 -17.5c-14 0 -26.167 2.66699 -36.5 8s-20 11 -29 17l-26.5 17c-8.66699 5.33301 -18 8 -28 8c-9.33301 0 -17 -2 -23 -6s-11 -8.66699 -15 -14c-4.66699 -6 -8.66699 -12.667 -12 -20l-65 40c5.33301 20.667 13.333 39.667 24 57
c8.66699 14.667 20.334 28 35.001 40s33.334 18 56.001 18c14 0 26.167 -2.66699 36.5 -8s20 -11 29 -17l26.5 -17c8.66699 -5.33301 18 -8 28 -8c8.66699 0 16.167 2 22.5 6s11.5 8.66699 15.5 14c4.66699 6 8.66699 12.667 12 20z" />
    <glyph glyph-name="odieresis" unicode="&#xf6;" 
d="M590 150c0 -50 -14.167 -89.167 -42.5 -117.5s-67.5 -42.5 -117.5 -42.5h-230c-50 0 -89.167 14.167 -117.5 42.5s-42.5 67.5 -42.5 117.5v230c0 50 14.167 89.167 42.5 117.5s67.5 42.5 117.5 42.5h230c50 0 89.167 -14.167 117.5 -42.5s42.5 -67.5 42.5 -117.5v-230z
M415 365c0 26.667 -13.333 40 -40 40h-120c-26.667 0 -40 -13.333 -40 -40v-200c0 -26.667 13.333 -40 40 -40h120c26.667 0 40 13.333 40 40v200zM345 730h170v-140h-170v140zM115 730h170v-140h-170v140z" />
    <glyph glyph-name="divide" unicode="&#xf7;" horiz-adv-x="540" 
d="M510 420v-140h-480v140h480zM190 230h160v-140h-160v140zM190 610h160v-140h-160v140z" />
    <glyph glyph-name="oslash" unicode="&#xf8;" 
d="M15 55l34.999 31c-6.66699 18 -10 39.333 -10 64v230c0 50 14.167 89.167 42.5 117.5s67.5 42.5 117.5 42.5h230c36.667 0 67.667 -8 93 -24l32 29l60 -70l-35 -32c3.33301 -9.33301 5.83301 -19.333 7.5 -30s2.5 -21.667 2.5 -33v-230
c0 -50 -14.167 -89.167 -42.5 -117.5s-67.5 -42.5 -117.5 -42.5h-230c-37.333 0 -68.666 7.66699 -93.999 23l-31 -28zM414.999 293l-180.001 -163c6.66699 -3.33301 13.334 -5 20.001 -5h120c26.667 0 40 13.333 40 40v128zM214.998 236l180.001 164
c-6.66699 3.33301 -13.334 5 -20.001 5h-120c-26.667 0 -40 -13.333 -40 -40v-129z" />
    <glyph glyph-name="ugrave" unicode="&#xf9;" horiz-adv-x="640" 
d="M435 0l-10.002 50c-17.333 -11.333 -36 -21.333 -56 -30c-17.333 -7.33301 -36.666 -14.166 -57.999 -20.499s-43.333 -9.5 -66 -9.5h-45c-45.333 0 -81.666 13.667 -108.999 41s-41 63.666 -41 108.999v390h175v-360c0 -10 3.33301 -18.333 10 -25s15 -10 25 -10h35
c12.667 0 26 1 40 3s27 4.33301 39 7c14 2.66699 27.667 6 41 10v375h175v-530h-155zM274.998 560l-110 170h170l60 -170h-120z" />
    <glyph glyph-name="uacute" unicode="&#xfa;" horiz-adv-x="640" 
d="M435 0l-10.002 50c-17.333 -11.333 -36 -21.333 -56 -30c-17.333 -7.33301 -36.666 -14.166 -57.999 -20.499s-43.333 -9.5 -66 -9.5h-45c-45.333 0 -81.666 13.667 -108.999 41s-41 63.666 -41 108.999v390h175v-360c0 -10 3.33301 -18.333 10 -25s15 -10 25 -10h35
c12.667 0 26 1 40 3s27 4.33301 39 7c14 2.66699 27.667 6 41 10v375h175v-530h-155zM239.998 560l60 170h180l-110 -170h-130z" />
    <glyph glyph-name="ucircumflex" unicode="&#xfb;" horiz-adv-x="640" 
d="M435 0l-10.002 50c-17.333 -11.333 -36 -21.333 -56 -30c-17.333 -7.33301 -36.666 -14.166 -57.999 -20.499s-43.333 -9.5 -66 -9.5h-45c-45.333 0 -81.666 13.667 -108.999 41s-41 63.666 -41 108.999v390h175v-360c0 -10 3.33301 -18.333 10 -25s15 -10 25 -10h35
c12.667 0 26 1 40 3s27 4.33301 39 7c14 2.66699 27.667 6 41 10v375h175v-530h-155zM129.998 570l120 170h140l120 -170h-125l-65 80l-65 -80h-125z" />
    <glyph glyph-name="udieresis" unicode="&#xfc;" horiz-adv-x="640" 
d="M435 0l-10.002 50c-17.333 -11.333 -36 -21.333 -56 -30c-17.333 -7.33301 -36.666 -14.166 -57.999 -20.499s-43.333 -9.5 -66 -9.5h-45c-45.333 0 -81.666 13.667 -108.999 41s-41 63.666 -41 108.999v390h175v-360c0 -10 3.33301 -18.333 10 -25s15 -10 25 -10h35
c12.667 0 26 1 40 3s27 4.33301 39 7c14 2.66699 27.667 6 41 10v375h175v-530h-155zM349.998 710h170v-140h-170v140zM119.998 710h170v-140h-170v140z" />
    <glyph glyph-name="yacute" unicode="&#xfd;" horiz-adv-x="570" 
d="M405 530h185l-200 -550c-19.333 -52.667 -44.333 -92.5 -75 -119.5s-72.334 -40.5 -125.001 -40.5c-12.667 0 -26.5 0.5 -41.5 1.5s-29.167 2.16699 -42.5 3.5c-15.333 1.33301 -30.666 3 -45.999 5v130h90c25.333 0 41.833 7 49.5 21s6.16699 33.667 -4.5 59l-205 490
h185l125 -340zM215 560l60 170h180l-110 -170h-130z" />
    <glyph glyph-name="thorn" unicode="&#xfe;" 
d="M430 530c50 0 89.167 -14.167 117.5 -42.5s42.5 -67.5 42.5 -117.5v-210c0 -50 -14.167 -89.167 -42.5 -117.5s-67.5 -42.5 -117.5 -42.5h-205v-170h-175v870h175v-170h205zM415 355c0 26.667 -13.333 40 -40 40h-150v-260h150c26.667 0 40 13.333 40 40v180z" />
    <glyph glyph-name="ydieresis" unicode="&#xff;" horiz-adv-x="570" 
d="M405 530h185l-200 -550c-19.333 -52.667 -44.333 -92.5 -75 -119.5s-72.334 -40.5 -125.001 -40.5c-12.667 0 -26.5 0.5 -41.5 1.5s-29.167 2.16699 -42.5 3.5c-15.333 1.33301 -30.666 3 -45.999 5v130h90c25.333 0 41.833 7 49.5 21s6.16699 33.667 -4.5 59l-205 490
h185l125 -340zM315 730h170v-140h-170v140zM85 730h170v-140h-170v140z" />
    <glyph glyph-name="Amacron" unicode="&#x100;" horiz-adv-x="710" 
d="M185 0h-195l265 700h200l265 -700h-195l-45 125h-250zM275 255h160l-80 235zM205 881h300v-120h-300v120z" />
    <glyph glyph-name="amacron" unicode="&#x101;" horiz-adv-x="595" 
d="M260 130c12.667 0 26 1 40 3s27 4.33301 39 7c14 2.66699 27.667 6 41 10v60h-145c-10 0 -18.333 -3.33301 -25 -10s-10 -15 -10 -25v-10c0 -10 3.33301 -18.333 10 -25s15 -10 25 -10h25zM175 -10c-45.333 0 -81.667 13.667 -109 41s-41 63.666 -41 108.999v45
c0 45.333 13.667 81.666 41 108.999s63.666 41 108.999 41h205v40c0 10 -3.33301 18.333 -10 25s-15 10 -25 10c-26.667 0 -55.5 -0.833008 -86.5 -2.5s-60.167 -3.5 -87.5 -5.5c-32 -2.66699 -64 -5 -96 -7v125c36.667 4 74 7.33301 112 10
c32.667 2.66699 68.334 5 107.001 7s75.667 3 111 3c45.333 0 81.666 -13.667 108.999 -41s41 -63.666 41 -108.999v-390h-155l-10 50c-17.333 -11.333 -36 -21.333 -56 -30c-17.333 -7.33301 -36.666 -14.166 -57.999 -20.499s-43.333 -9.5 -66 -9.5h-35zM166.999 711h300
v-120h-300v120z" />
    <glyph glyph-name="Abreve" unicode="&#x102;" horiz-adv-x="710" 
d="M185 0h-195l265 700h200l265 -700h-195l-45 125h-250zM275 255h160l-80 235zM305 751c-86.667 0 -130 43.333 -130 130v30h130v-25c0 -10 3.33301 -18.333 10 -25s15 -10 25 -10h30c10 0 18.333 3.33301 25 10s10 15 10 25v25h130v-30c0 -86.667 -43.333 -130 -130 -130
h-100z" />
    <glyph glyph-name="abreve" unicode="&#x103;" horiz-adv-x="595" 
d="M260 580c-86.667 0 -130 43.333 -130 130v30h130v-25c0 -10 3.33301 -18.333 10 -25s15 -10 25 -10h30c10 0 18.333 3.33301 25 10s10 15 10 25v25h130v-30c0 -86.667 -43.333 -130 -130 -130h-100zM260 130c12.667 0 26 1 40 3s27 4.33301 39 7
c14 2.66699 27.667 6 41 10v60h-145c-10 0 -18.333 -3.33301 -25 -10s-10 -15 -10 -25v-10c0 -10 3.33301 -18.333 10 -25s15 -10 25 -10h25zM175 -10c-45.333 0 -81.667 13.667 -109 41s-41 63.666 -41 108.999v45c0 45.333 13.667 81.666 41 108.999s63.666 41 108.999 41
h205v40c0 10 -3.33301 18.333 -10 25s-15 10 -25 10c-26.667 0 -55.5 -0.833008 -86.5 -2.5s-60.167 -3.5 -87.5 -5.5c-32 -2.66699 -64 -5 -96 -7v125c36.667 4 74 7.33301 112 10c32.667 2.66699 68.334 5 107.001 7s75.667 3 111 3c45.333 0 81.666 -13.667 108.999 -41
s41 -63.666 41 -108.999v-390h-155l-10 50c-17.333 -11.333 -36 -21.333 -56 -30c-17.333 -7.33301 -36.666 -14.166 -57.999 -20.499s-43.333 -9.5 -66 -9.5h-35z" />
    <glyph glyph-name="Aogonek" unicode="&#x104;" horiz-adv-x="710" 
d="M185 0h-195l265 700h200l265 -700h-195l-45 125h-250zM275 255h160l-80 235zM720 0c-22.667 -8.66699 -42.6699 -17.999 -60.0029 -27.999c-15.333 -9.33301 -29.166 -19.833 -41.499 -31.5s-18.5 -25.167 -18.5 -40.5c0 -16.667 10 -25 30 -25
c8.66699 0 17.667 0.5 27 1.5s18 2.16699 26 3.5c9.33301 1.33301 18.333 3 27 5v-75c-9.33301 -2 -19.666 -3.66699 -30.999 -5c-9.33301 -1.33301 -20 -2.5 -32 -3.5s-24.333 -1.5 -37 -1.5c-35.333 0 -61.666 7.83301 -78.999 23.5s-26 36.167 -26 61.5
c0 21.333 5.83301 39.166 17.5 53.499s24.834 26.166 39.501 35.499c17.333 10.667 36.666 19.334 57.999 26.001h100z" />
    <glyph glyph-name="aogonek" unicode="&#x105;" horiz-adv-x="595" 
d="M260 130c12.667 0 26 1 40 3s27 4.33301 39 7c14 2.66699 27.667 6 41 10v60h-145c-10 0 -18.333 -3.33301 -25 -10s-10 -15 -10 -25v-10c0 -10 3.33301 -18.333 10 -25s15 -10 25 -10h25zM175 -10c-45.333 0 -81.667 13.667 -109 41s-41 63.666 -41 108.999v45
c0 45.333 13.667 81.666 41 108.999s63.666 41 108.999 41h205v40c0 10 -3.33301 18.333 -10 25s-15 10 -25 10c-26.667 0 -55.5 -0.833008 -86.5 -2.5s-60.167 -3.5 -87.5 -5.5c-32 -2.66699 -64 -5 -96 -7v125c36.667 4 74 7.33301 112 10
c32.667 2.66699 68.334 5 107.001 7s75.667 3 111 3c45.333 0 81.666 -13.667 108.999 -41s41 -63.666 41 -108.999v-390h-155l-10 50c-17.333 -11.333 -36 -21.333 -56 -30c-17.333 -7.33301 -36.666 -14.166 -57.999 -20.499s-43.333 -9.5 -66 -9.5h-35zM554.999 0
c-22.667 -8.66699 -42.6699 -17.999 -60.0029 -27.999c-15.333 -9.33301 -29.166 -19.833 -41.499 -31.5s-18.5 -25.167 -18.5 -40.5c0 -16.667 10 -25 30 -25c8.66699 0 17.667 0.5 27 1.5s18 2.16699 26 3.5c9.33301 1.33301 18.333 3 27 5v-75
c-9.33301 -2 -19.666 -3.66699 -30.999 -5c-9.33301 -1.33301 -20 -2.5 -32 -3.5s-24.333 -1.5 -37 -1.5c-35.333 0 -61.666 7.83301 -78.999 23.5s-26 36.167 -26 61.5c0 21.333 5.83301 39.166 17.5 53.499s24.834 26.166 39.501 35.499
c17.333 10.667 36.666 19.334 57.999 26.001h100z" />
    <glyph glyph-name="Cacute" unicode="&#x106;" horiz-adv-x="620" 
d="M230 -10c-65.333 0 -113.334 15.333 -144.001 46s-46 78.667 -46 144v320c0 70 15.833 120.833 47.5 152.5s82.5 47.5 152.5 47.5h360v-140h-320c-40 0 -60 -20 -60 -60v-320c0 -15.333 4.5 -27.5 13.5 -36.5s21.167 -13.5 36.5 -13.5
c12.667 0 27.334 0.166992 44.001 0.5s34 0.833008 52 1.5l54.5 2c18.333 0.666992 36.166 1.66699 53.499 3l126 8v-135c-44.667 -4 -89 -7.33301 -133 -10c-38 -2.66699 -78.167 -5 -120.5 -7s-81.166 -3 -116.499 -3zM249.999 731l60 170h180l-110 -170h-130z" />
    <glyph glyph-name="cacute" unicode="&#x107;" horiz-adv-x="550" 
d="M40 370c0 50 14.166 89.168 42.499 117.501s67.5 42.5 117.5 42.5h320v-135h-265c-26.667 0 -40 -13.333 -40 -40v-195c0 -10 3.33301 -18.333 10 -25s15 -10 25 -10c26 0 54.667 0.666992 86 2s60.666 3 87.999 5l96 8v-130c-37.333 -4 -75 -7.33301 -113 -10
c-32.667 -2.66699 -68.167 -5 -106.5 -7s-75.166 -3 -110.499 -3c-45.333 0 -81.666 13.667 -108.999 41s-41 63.666 -41 108.999v230zM214.999 570.001l60 170h180l-110 -170h-130z" />
    <glyph glyph-name="Ccaron" unicode="&#x10c;" horiz-adv-x="620" 
d="M230 -10c-65.333 0 -113.334 15.333 -144.001 46s-46 78.667 -46 144v320c0 70 15.833 120.833 47.5 152.5s82.5 47.5 152.5 47.5h360v-140h-320c-40 0 -60 -20 -60 -60v-320c0 -15.333 4.5 -27.5 13.5 -36.5s21.167 -13.5 36.5 -13.5
c12.667 0 27.334 0.166992 44.001 0.5s34 0.833008 52 1.5l54.5 2c18.333 0.666992 36.166 1.66699 53.499 3l126 8v-135c-44.667 -4 -89 -7.33301 -133 -10c-38 -2.66699 -78.167 -5 -120.5 -7s-81.166 -3 -116.499 -3zM274.999 901l65 -80l65 80h125l-120 -170h-140
l-120 170h125z" />
    <glyph glyph-name="ccaron" unicode="&#x10d;" horiz-adv-x="550" 
d="M40 370c0 50 14.166 89.168 42.499 117.501s67.5 42.5 117.5 42.5h320v-135h-265c-26.667 0 -40 -13.333 -40 -40v-195c0 -10 3.33301 -18.333 10 -25s15 -10 25 -10c26 0 54.667 0.666992 86 2s60.666 3 87.999 5l96 8v-130c-37.333 -4 -75 -7.33301 -113 -10
c-32.667 -2.66699 -68.167 -5 -106.5 -7s-75.166 -3 -110.499 -3c-45.333 0 -81.666 13.667 -108.999 41s-41 63.666 -41 108.999v230zM229.999 740.001l65 -80l65 80h125l-120 -170h-140l-120 170h125z" />
    <glyph glyph-name="Dcaron" unicode="&#x10e;" horiz-adv-x="720" 
d="M450 700c75.333 0 132.5 -19.5 171.5 -58.5s58.5 -96.167 58.5 -171.5v-240c0 -75.333 -19.5 -132.5 -58.5 -171.5s-96.167 -58.5 -171.5 -58.5h-390v700h390zM500 470c0 60 -30 90 -90 90h-170v-420h170c60 0 90 30 90 90v240zM275 901l65 -80l65 80h125l-120 -170h-140
l-120 170h125z" />
    <glyph glyph-name="dcaron" unicode="&#x10f;" horiz-adv-x="820" 
d="M630 700h170v-130l-70 -110h-80l40 100h-60v140zM425 0l-10.002 50c-17.333 -11.333 -36 -21.333 -56 -30c-17.333 -7.33301 -36.666 -14.166 -57.999 -20.499s-43.333 -9.5 -66 -9.5h-45c-45.333 0 -81.666 13.667 -108.999 41s-41 63.666 -41 108.999v230
c0 50 14.167 89.167 42.5 117.5s67.5 42.5 117.5 42.5h205v170h175v-700h-155zM404.998 395h-150c-26.667 0 -40 -13.333 -40 -40v-185c0 -10 3.33301 -18.333 10 -25s15 -10 25 -10h35c12.667 0 26 1 40 3s27 4.33301 39 7c14 2.66699 27.667 6 41 10v240z" />
    <glyph glyph-name="Dcroat" unicode="&#x110;" horiz-adv-x="740" 
d="M80 420v280h390c75.333 0 132.5 -19.5 171.5 -58.5s58.5 -96.167 58.5 -171.5v-240c0 -75.333 -19.5 -132.5 -58.5 -171.5s-96.167 -58.5 -171.5 -58.5h-390v285h-60v135h60zM520 470c0 60 -30 90 -90 90h-170v-140h120v-135h-120v-145h170c60 0 90 30 90 90v240z" />
    <glyph glyph-name="dcroat" unicode="&#x111;" horiz-adv-x="660" 
d="M425 0l-10.002 50c-17.333 -11.333 -36 -21.333 -56 -30c-17.333 -7.33301 -36.666 -14.166 -57.999 -20.499s-43.333 -9.5 -66 -9.5h-45c-45.333 0 -81.666 13.667 -108.999 41s-41 63.666 -41 108.999v150c0 50 14.167 89.167 42.5 117.5s67.5 42.5 117.5 42.5h205v45
h-125v125h125v80h155l20 -80h60v-125h-60v-495h-155zM404.998 315h-150c-26.667 0 -40 -13.333 -40 -40v-105c0 -10 3.33301 -18.333 10 -25s15 -10 25 -10h35c12.667 0 26 1 40 3s27 4.33301 39 7c14 2.66699 27.667 6 41 10v160z" />
    <glyph glyph-name="Emacron" unicode="&#x112;" horiz-adv-x="635" 
d="M615 0h-555v700h555v-140h-375v-135h295v-140h-295v-145h375v-140zM167 881h300v-120h-300v120z" />
    <glyph glyph-name="emacron" unicode="&#x113;" horiz-adv-x="600" 
d="M255 415c-26.667 0 -40 -13.333 -40 -40v-55h170v55c0 26.667 -13.333 40 -40 40h-90zM40 380c0 50 14.167 89.168 42.5 117.501s67.5 42.5 117.5 42.5h200c50 0 89.167 -14.167 117.5 -42.5s42.5 -67.5 42.5 -117.5v-185h-345v-40c0 -10 3.33301 -18.333 10 -25
s15 -10 25 -10c28.667 0 59.834 0.666992 93.501 2s65.167 3 94.5 5l102 8v-125c-38.667 -4 -78.334 -7.33301 -119.001 -10c-34.667 -2.66699 -72.334 -5 -113.001 -7s-80 -3 -118 -3c-45.333 0 -81.666 13.667 -108.999 41s-41 63.666 -41 108.999v240zM150 711.001h300
v-120h-300v120z" />
    <glyph glyph-name="Edotaccent" unicode="&#x116;" horiz-adv-x="635" 
d="M615 0h-555v700h555v-140h-375v-135h295v-140h-295v-145h375v-140zM232 901h170v-140h-170v140z" />
    <glyph glyph-name="edotaccent" unicode="&#x117;" horiz-adv-x="600" 
d="M255 415c-26.667 0 -40 -13.333 -40 -40v-55h170v55c0 26.667 -13.333 40 -40 40h-90zM40 380c0 50 14.167 89.168 42.5 117.501s67.5 42.5 117.5 42.5h200c50 0 89.167 -14.167 117.5 -42.5s42.5 -67.5 42.5 -117.5v-185h-345v-40c0 -10 3.33301 -18.333 10 -25
s15 -10 25 -10c28.667 0 59.834 0.666992 93.501 2s65.167 3 94.5 5l102 8v-125c-38.667 -4 -78.334 -7.33301 -119.001 -10c-34.667 -2.66699 -72.334 -5 -113.001 -7s-80 -3 -118 -3c-45.333 0 -81.666 13.667 -108.999 41s-41 63.666 -41 108.999v240zM215 730.001h170
v-140h-170v140z" />
    <glyph glyph-name="Eogonek" unicode="&#x118;" horiz-adv-x="635" 
d="M615 0h-555v700h555v-140h-375v-135h295v-140h-295v-145h375v-140zM615 0c-22.667 -8.66699 -42.6699 -17.999 -60.0029 -27.999c-15.333 -9.33301 -29.166 -19.833 -41.499 -31.5s-18.5 -25.167 -18.5 -40.5c0 -16.667 10 -25 30 -25c8.66699 0 17.667 0.5 27 1.5
s18 2.16699 26 3.5c9.33301 1.33301 18.333 3 27 5v-75c-9.33301 -2 -19.666 -3.66699 -30.999 -5c-9.33301 -1.33301 -20 -2.5 -32 -3.5s-24.333 -1.5 -37 -1.5c-35.333 0 -61.666 7.83301 -78.999 23.5s-26 36.167 -26 61.5c0 21.333 5.83301 39.166 17.5 53.499
s24.834 26.166 39.501 35.499c17.333 10.667 36.666 19.334 57.999 26.001h100z" />
    <glyph glyph-name="eogonek" unicode="&#x119;" horiz-adv-x="600" 
d="M40 380c0 50 14.1611 89.167 42.4941 117.5s67.5 42.5 117.5 42.5h200c50 0 89.167 -14.167 117.5 -42.5s42.5 -67.5 42.5 -117.5v-185h-345v-40c0 -10 3.33301 -18.333 10 -25s15 -10 25 -10c28.667 0 59.834 0.666992 93.501 2s65.167 3 94.5 5l102 8v-125
c-22.667 -12 -42.667 -24 -60 -36c-15.333 -10.667 -29.166 -22.5 -41.499 -35.5s-18.5 -25.833 -18.5 -38.5c0 -16.667 10 -25 30 -25c8.66699 0 17.667 0.5 27 1.5s18 2.16699 26 3.5c9.33301 1.33301 18.333 3 27 5v-75c-9.33301 -2 -19.666 -3.66699 -30.999 -5
c-9.33301 -1.33301 -20 -2.5 -32 -3.5s-24.333 -1.5 -37 -1.5c-35.333 0 -61.666 7.83301 -78.999 23.5s-26 36.167 -26 61.5c0 20 5.33301 37.167 16 51.5s22.834 26 36.501 35s26.5 15.833 38.5 20.5s19.333 7.33398 22 8.00098c-2 0 -11.667 -0.5 -29 -1.5l-62.5 -3.5
c-24.333 -1.33301 -50.5 -2.5 -78.5 -3.5s-54 -1.5 -78 -1.5c-45.333 0 -81.666 13.667 -108.999 41s-41 63.666 -41 108.999v240zM254.994 415c-26.667 0 -40 -13.333 -40 -40v-55h170v55c0 26.667 -13.333 40 -40 40h-90z" />
    <glyph glyph-name="Ecaron" unicode="&#x11a;" horiz-adv-x="635" 
d="M615 0h-555v700h555v-140h-375v-135h295v-140h-295v-145h375v-140zM282 901l65 -80l65 80h125l-120 -170h-140l-120 170h125z" />
    <glyph glyph-name="ecaron" unicode="&#x11b;" horiz-adv-x="600" 
d="M255 415c-26.667 0 -40 -13.333 -40 -40v-55h170v55c0 26.667 -13.333 40 -40 40h-90zM40 380c0 50 14.167 89.168 42.5 117.501s67.5 42.5 117.5 42.5h200c50 0 89.167 -14.167 117.5 -42.5s42.5 -67.5 42.5 -117.5v-185h-345v-40c0 -10 3.33301 -18.333 10 -25
s15 -10 25 -10c28.667 0 59.834 0.666992 93.501 2s65.167 3 94.5 5l102 8v-125c-38.667 -4 -78.334 -7.33301 -119.001 -10c-34.667 -2.66699 -72.334 -5 -113.001 -7s-80 -3 -118 -3c-45.333 0 -81.666 13.667 -108.999 41s-41 63.666 -41 108.999v240zM235 740.001
l65 -80l65 80h125l-120 -170h-140l-120 170h125z" />
    <glyph glyph-name="Gbreve" unicode="&#x11e;" horiz-adv-x="700" 
d="M230 -10c-65.333 0 -113.332 15.3311 -143.999 45.998s-46 78.667 -46 144v320c0 70 15.833 120.833 47.5 152.5s82.5 47.5 152.5 47.5h360v-140h-320c-40 0 -60 -20 -60 -60v-320c0 -15.333 4.5 -27.5 13.5 -36.5s21.167 -13.5 36.5 -13.5
c20 0 42.167 0.166992 66.5 0.5s47.166 0.833008 68.499 1.5c24.667 0.666992 49.667 1.66699 75 3v145h-130v120h310v-385c-50 -5.33301 -100.333 -9.66602 -151 -12.999c-43.333 -3.33301 -90 -6.16602 -140 -8.49902s-96.333 -3.5 -139 -3.5zM300.001 739.998
c-86.667 0 -130 43.333 -130 130v30h130v-25c0 -10 3.33301 -18.333 10 -25s15 -10 25 -10h30c10 0 18.333 3.33301 25 10s10 15 10 25v25h130v-30c0 -86.667 -43.333 -130 -130 -130h-100z" />
    <glyph glyph-name="gbreve" unicode="&#x11f;" horiz-adv-x="620" 
d="M270 570c-86.667 0 -130 43.333 -130 130v30h130v-25c0 -10 3.33301 -18.333 10 -25s15 -10 25 -10h30c10 0 18.333 3.33301 25 10s10 15 10 25v25h130v-30c0 -86.667 -43.333 -130 -130 -130h-100zM40 370c0 50 14.1689 89.167 42.502 117.5s67.5 42.5 117.5 42.5h370
v-560c0 -45.333 -13.667 -81.666 -41 -108.999s-63.666 -41 -108.999 -41c-38 0 -77.333 1 -118 3s-78.334 4.33301 -113.001 7c-40.667 2.66699 -80.334 6 -119.001 10v130l102 -8c29.333 -2 60.666 -3.66699 93.999 -5s64.666 -2 93.999 -2c10 0 18.333 3.33301 25 10
s10 15 10 25v50c-19.333 -4 -39 -7.33301 -59 -10c-17.333 -2.66699 -35.833 -5 -55.5 -7s-38.167 -3 -55.5 -3h-35c-45.333 0 -81.666 13.667 -108.999 41s-41 63.666 -41 108.999v200zM215.002 190c0 -10 3.33398 -18.333 10.001 -25s15 -10 25 -10h25
c16 0 31.167 0.5 45.5 1.5s27.166 2.16699 38.499 3.5c12.667 1.33301 24.667 3 36 5v230h-140c-26.667 0 -40 -13.333 -40 -40v-165z" />
    <glyph glyph-name="Gcommaaccent" unicode="&#x122;" horiz-adv-x="700" 
d="M230 -10c-65.333 0 -113.332 15.3311 -143.999 45.998s-46 78.667 -46 144v320c0 70 15.833 120.833 47.5 152.5s82.5 47.5 152.5 47.5h360v-140h-320c-40 0 -60 -20 -60 -60v-320c0 -15.333 4.5 -27.5 13.5 -36.5s21.167 -13.5 36.5 -13.5
c20 0 42.167 0.166992 66.5 0.5s47.166 0.833008 68.499 1.5c24.667 0.666992 49.667 1.66699 75 3v145h-130v120h310v-385c-50 -5.33301 -100.333 -9.66602 -151 -12.999c-43.333 -3.33301 -90 -6.16602 -140 -8.49902s-96.333 -3.5 -139 -3.5zM265.001 -39.002h170v-130
l-70 -110h-80l40 100h-60v140z" />
    <glyph glyph-name="gcommaaccent" unicode="&#x123;" horiz-adv-x="620" 
d="M400 580h-170v130l70 110h80l-40 -100h60v-140zM40 370c0 50 14.1689 89.167 42.502 117.5s67.5 42.5 117.5 42.5h370v-560c0 -45.333 -13.667 -81.666 -41 -108.999s-63.666 -41 -108.999 -41c-38 0 -77.333 1 -118 3s-78.334 4.33301 -113.001 7
c-40.667 2.66699 -80.334 6 -119.001 10v130l102 -8c29.333 -2 60.666 -3.66699 93.999 -5s64.666 -2 93.999 -2c10 0 18.333 3.33301 25 10s10 15 10 25v50c-19.333 -4 -39 -7.33301 -59 -10c-17.333 -2.66699 -35.833 -5 -55.5 -7s-38.167 -3 -55.5 -3h-35
c-45.333 0 -81.666 13.667 -108.999 41s-41 63.666 -41 108.999v200zM215.002 190c0 -10 3.33398 -18.333 10.001 -25s15 -10 25 -10h25c16 0 31.167 0.5 45.5 1.5s27.166 2.16699 38.499 3.5c12.667 1.33301 24.667 3 36 5v230h-140c-26.667 0 -40 -13.333 -40 -40v-165z
" />
    <glyph glyph-name="hbar" unicode="&#x127;" horiz-adv-x="660" 
d="M80 620l20 79.999h155v-80h125v-125h-125v-65c19.333 4 39 7.33301 59 10c17.333 2.66699 35.833 5 55.5 7s38.167 3 55.5 3h45c45.333 0 81.666 -13.667 108.999 -41s41 -63.666 41 -108.999v-300h-175v280c0 10 -3.33301 18.333 -10 25s-15 10 -25 10h-35
c-14 0 -28.167 -0.5 -42.5 -1.5s-27.166 -2.16699 -38.499 -3.5c-13.333 -2 -26.333 -3.66699 -39 -5v-305h-175v495h-60v125h60z" />
    <glyph glyph-name="Itilde" unicode="&#x128;" horiz-adv-x="420" 
d="M390 0h-360v140h90v420h-90v140h360v-140h-90v-420h90v-140zM385 861c-6 -21.333 -14.0029 -40.666 -24.0029 -57.999c-9.33301 -14.667 -21.166 -27.834 -35.499 -39.501s-32.833 -17.5 -55.5 -17.5c-14 0 -26.167 2.66699 -36.5 8s-20 11 -29 17l-26.5 17
c-8.66699 5.33301 -18 8 -28 8c-9.33301 0 -17 -2 -23 -6s-11 -8.66699 -15 -14c-4.66699 -6 -8.66699 -12.667 -12 -20l-65 40c5.33301 20.667 13.333 39.667 24 57c8.66699 14.667 20.334 28 35.001 40s33.334 18 56.001 18c14 0 26.167 -2.66699 36.5 -8s20 -11 29 -17
l26.5 -17c8.66699 -5.33301 18 -8 28 -8c8.66699 0 16.167 2 22.5 6s11.5 8.66699 15.5 14c4.66699 6 8.66699 12.667 12 20z" />
    <glyph glyph-name="itilde" unicode="&#x129;" horiz-adv-x="320" 
d="M270 530v-530h-175v395h-75v135h250zM335 695c-6 -21.333 -14.0029 -40.666 -24.0029 -57.999c-9.33301 -14.667 -21.166 -27.834 -35.499 -39.501s-32.833 -17.5 -55.5 -17.5c-14 0 -26.167 2.66699 -36.5 8s-20 11 -29 17l-26.5 17c-8.66699 5.33301 -18 8 -28 8
c-9.33301 0 -17 -2 -23 -6s-11 -8.66699 -15 -14c-4.66699 -6 -8.66699 -12.667 -12 -20l-65 40c5.33301 20.667 13.333 39.667 24 57c8.66699 14.667 20.334 28 35.001 40s33.334 18 56.001 18c14 0 26.167 -2.66699 36.5 -8s20 -11 29 -17l26.5 -17
c8.66699 -5.33301 18 -8 28 -8c8.66699 0 16.167 2 22.5 6s11.5 8.66699 15.5 14c4.66699 6 8.66699 12.667 12 20z" />
    <glyph glyph-name="Imacron" unicode="&#x12a;" horiz-adv-x="420" 
d="M390 0h-360v140h90v420h-90v140h360v-140h-90v-420h90v-140zM60 881h300v-120h-300v120z" />
    <glyph glyph-name="imacron" unicode="&#x12b;" horiz-adv-x="320" 
d="M270 510v-510h-175v375h-75v135h250zM10 700h300v-120h-300v120z" />
    <glyph glyph-name="Iogonek" unicode="&#x12e;" horiz-adv-x="420" 
d="M390 0h-360v140h90v420h-90v140h360v-140h-90v-420h90v-140zM300 0c-22.667 -8.66699 -42.6699 -17.999 -60.0029 -27.999c-15.333 -9.33301 -29.166 -19.833 -41.499 -31.5s-18.5 -25.167 -18.5 -40.5c0 -16.667 10 -25 30 -25c8.66699 0 17.667 0.5 27 1.5
s18 2.16699 26 3.5c9.33301 1.33301 18.333 3 27 5v-75c-9.33301 -2 -19.666 -3.66699 -30.999 -5c-9.33301 -1.33301 -20 -2.5 -32 -3.5s-24.333 -1.5 -37 -1.5c-35.333 0 -61.666 7.83301 -78.999 23.5s-26 36.167 -26 61.5c0 21.333 5.83301 39.166 17.5 53.499
s24.834 26.166 39.501 35.499c17.333 10.667 36.666 19.334 57.999 26.001h100z" />
    <glyph glyph-name="iogonek" unicode="&#x12f;" horiz-adv-x="320" 
d="M270 510v-510h-175v375h-75v135h250zM95 710h175v-140h-175v140zM267 0c-22.667 -8.66699 -42.6699 -17.999 -60.0029 -27.999c-15.333 -9.33301 -29.166 -19.833 -41.499 -31.5s-18.5 -25.167 -18.5 -40.5c0 -16.667 10 -25 30 -25c8.66699 0 17.667 0.5 27 1.5
s18 2.16699 26 3.5c9.33301 1.33301 18.333 3 27 5v-75c-9.33301 -2 -19.666 -3.66699 -30.999 -5c-9.33301 -1.33301 -20 -2.5 -32 -3.5s-24.333 -1.5 -37 -1.5c-35.333 0 -61.666 7.83301 -78.999 23.5s-26 36.167 -26 61.5c0 21.333 5.83301 39.166 17.5 53.499
s24.834 26.166 39.501 35.499c17.333 10.667 36.666 19.334 57.999 26.001h100z" />
    <glyph glyph-name="Idotaccent" unicode="&#x130;" horiz-adv-x="420" 
d="M390 0h-360v140h90v420h-90v140h360v-140h-90v-420h90v-140zM125 900h170v-140h-170v140z" />
    <glyph glyph-name="dotlessi" unicode="&#x131;" horiz-adv-x="320" 
d="M270 530v-530h-175v395h-75v135h250z" />
    <glyph glyph-name="ij" unicode="&#x133;" horiz-adv-x="610" 
d="M550 -30c0 -45.333 -13.668 -81.667 -41.001 -109s-63.666 -41 -108.999 -41c-22.667 0 -45.334 0.5 -68.001 1.5s-43 2.16699 -61 3.5c-21.333 1.33301 -41.666 3 -60.999 5v130h130c10 0 18.333 3.33301 25 10s10 15 10 25v390h-105v-385h-175v385h-75v135h530v-550z
M374.999 709.999h175v-140h-175v140zM94.999 709.999h175v-140h-175v140z" />
    <glyph glyph-name="Jcircumflex" unicode="&#x134;" horiz-adv-x="460" 
d="M10 135c20.667 -1.33301 41.001 -2.33301 61.001 -3c17.333 -0.666992 35 -1.16699 53 -1.5s33.333 -0.5 46 -0.5c15.333 0 27.5 4.5 36.5 13.5s13.5 21.167 13.5 36.5v380h-130v140h310v-520c0 -65.333 -15.333 -113.333 -46 -144s-78.667 -46 -144 -46
c-22.667 0 -45.834 0.5 -69.501 1.5s-45.167 2.16699 -64.5 3.5c-22.667 1.33301 -44.667 3 -66 5v135zM60.001 731l120 170h140l120 -170h-125l-65 80l-65 -80h-125z" />
    <glyph glyph-name="jcircumflex" unicode="&#x135;" horiz-adv-x="300" 
d="M250 -30c0 -45.333 -13.668 -81.667 -41.001 -109s-63.666 -41 -108.999 -41c-22.667 0 -45.334 0.5 -68.001 1.5s-43 2.16699 -61 3.5c-21.333 1.33301 -41.666 3 -60.999 5v130h130c10 0 18.333 3.33301 25 10s10 15 10 25v535h175v-560zM-30.001 569.999l120 170h140
l120 -170h-125l-65 80l-65 -80h-125z" />
    <glyph glyph-name="Kcommaaccent" unicode="&#x136;" horiz-adv-x="676" 
d="M240 0h-180v700h180v-275h90l156 275h190l-196 -345l195 -355h-190l-155 285h-90v-285zM253 -30h170v-130l-70 -110h-80l40 100h-60v140z" />
    <glyph glyph-name="kcommaaccent" unicode="&#x137;" horiz-adv-x="600" 
d="M225 210v-210h-175v700h175v-355h80l110 185h185l-150 -255l150 -275h-185l-115 210h-75zM215 -30h170v-130l-70 -110h-80l40 100h-60v140z" />
    <glyph glyph-name="kgreenlandic" unicode="&#x138;" horiz-adv-x="600" 
d="M300 200l-75 -0.000976562v-200h-175v530h175v-195h80l55 110c6 12.667 13.5 24.667 22.5 36s19.5 21.333 31.5 30s25.5 15.667 40.5 21s31.833 8 50.5 8c10 0 19.833 -0.5 29.5 -1.5s18.167 -2.16699 25.5 -3.5l25 -5v-135h-35c-12.667 0 -23.167 -3.16699 -31.5 -9.5
s-14.5 -13.166 -18.5 -20.499l-50 -100l150 -265h-190z" />
    <glyph glyph-name="Lacute" unicode="&#x139;" horiz-adv-x="615" 
d="M240 140h365v-140h-545v700h180v-560zM87 731l60 170h180l-110 -170h-130z" />
    <glyph glyph-name="lacute" unicode="&#x13a;" horiz-adv-x="340" 
d="M50 700l174.999 0.000976562v-535c0 -10 3.33301 -18.333 10 -25s15 -10 25 -10h60v-130c-13.333 -2 -27 -3.66699 -41 -5c-12 -1.33301 -25 -2.5 -39 -3.5s-27.333 -1.5 -40 -1.5c-45.333 0 -81.666 13.667 -108.999 41s-41 63.666 -41 108.999v560zM69.999 729.001
l60 170h180l-110 -170h-130z" />
    <glyph glyph-name="Lcommaaccent" unicode="&#x13b;" horiz-adv-x="615" 
d="M240 140h365v-140h-545v700h180v-560zM222 -30h170v-130l-70 -110h-80l40 100h-60v140z" />
    <glyph glyph-name="lcommaaccent" unicode="&#x13c;" horiz-adv-x="340" 
d="M50 700l174.999 0.000976562v-535c0 -10 3.33301 -18.333 10 -25s15 -10 25 -10h60v-130c-13.333 -2 -27 -3.66699 -41 -5c-12 -1.33301 -25 -2.5 -39 -3.5s-27.333 -1.5 -40 -1.5c-45.333 0 -81.666 13.667 -108.999 41s-41 63.666 -41 108.999v560zM84.999 -29.999h170
v-130l-70 -110h-80l40 100h-60v140z" />
    <glyph glyph-name="Lcaron" unicode="&#x13d;" horiz-adv-x="615" 
d="M300 700h170v-130l-70 -110h-80l40 100h-60v140zM240 140h365v-140h-545v700h180v-560z" />
    <glyph glyph-name="lcaron" unicode="&#x13e;" horiz-adv-x="465" 
d="M275 700h170v-130l-70 -110h-80l40 100h-60v140zM50 700l174.999 0.000976562v-535c0 -10 3.33301 -18.333 10 -25s15 -10 25 -10h60v-130c-13.333 -2 -27 -3.66699 -41 -5c-12 -1.33301 -25 -2.5 -39 -3.5s-27.333 -1.5 -40 -1.5c-45.333 0 -81.666 13.667 -108.999 41
s-41 63.666 -41 108.999v560z" />
    <glyph glyph-name="ldot" unicode="&#x140;" horiz-adv-x="490" 
d="M50 700l174.999 0.000976562v-535c0 -10 3.33301 -18.333 10 -25s15 -10 25 -10h60v-130c-13.333 -2 -27 -3.66699 -41 -5c-12 -1.33301 -25 -2.5 -39 -3.5s-27.333 -1.5 -40 -1.5c-45.333 0 -81.666 13.667 -108.999 41s-41 63.666 -41 108.999v560zM289.999 425.001
h180v-150h-180v150z" />
    <glyph glyph-name="Lslash" unicode="&#x141;" horiz-adv-x="635" 
d="M80 393v307h180v-206l90 51v-165l-90 -51v-189h365v-140h-545v228l-60 -33v165z" />
    <glyph glyph-name="lslash" unicode="&#x142;" horiz-adv-x="370" 
d="M80 228l-60.001 -32.999v165l60 33v307h175v-209l95 54v-165l-95 -54v-161c0 -10 3.33301 -18.333 10 -25s15 -10 25 -10h60v-130c-13.333 -2 -27 -3.66699 -41 -5c-12 -1.33301 -25 -2.5 -39 -3.5s-27.333 -1.5 -40 -1.5c-45.333 0 -81.666 13.667 -108.999 41
s-41 63.666 -41 108.999v88z" />
    <glyph glyph-name="Nacute" unicode="&#x143;" horiz-adv-x="730" 
d="M670 0h-190l-240 420v-420h-180v700h190l240 -420v420h180v-700zM295 721l60 170h180l-110 -170h-130z" />
    <glyph glyph-name="nacute" unicode="&#x144;" 
d="M205 530l10.002 -50c17.333 11.333 36 21.333 56 30c17.333 7.33301 36.666 14.166 57.999 20.499s43.333 9.5 66 9.5h45c45.333 0 81.666 -13.667 108.999 -41s41 -63.666 41 -108.999v-390h-175v360c0 10 -3.33301 18.333 -10 25s-15 10 -25 10h-35
c-12.667 0 -26 -1 -40 -3s-27 -4.33301 -39 -7c-14 -2.66699 -27.667 -6 -41 -10v-375h-175v530h155zM255.002 570l60 170h180l-110 -170h-130z" />
    <glyph glyph-name="Ncommaaccent" unicode="&#x145;" horiz-adv-x="730" 
d="M670 0h-190l-240 420v-420h-180v700h190l240 -420v420h180v-700zM280 -30h170v-130l-70 -110h-80l40 100h-60v140z" />
    <glyph glyph-name="ncommaaccent" unicode="&#x146;" 
d="M205 530l10.002 -50c17.333 11.333 36 21.333 56 30c17.333 7.33301 36.666 14.166 57.999 20.499s43.333 9.5 66 9.5h45c45.333 0 81.666 -13.667 108.999 -41s41 -63.666 41 -108.999v-390h-175v360c0 10 -3.33301 18.333 -10 25s-15 10 -25 10h-35
c-12.667 0 -26 -1 -40 -3s-27 -4.33301 -39 -7c-14 -2.66699 -27.667 -6 -41 -10v-375h-175v530h155zM230.002 -30h170v-130l-70 -110h-80l40 100h-60v140z" />
    <glyph glyph-name="Ncaron" unicode="&#x147;" horiz-adv-x="730" 
d="M670 0h-190l-240 420v-420h-180v700h190l240 -420v420h180v-700zM300 891l65 -80l65 80h125l-120 -170h-140l-120 170h125z" />
    <glyph glyph-name="ncaron" unicode="&#x148;" 
d="M205 530l10.002 -50c17.333 11.333 36 21.333 56 30c17.333 7.33301 36.666 14.166 57.999 20.499s43.333 9.5 66 9.5h45c45.333 0 81.666 -13.667 108.999 -41s41 -63.666 41 -108.999v-390h-175v360c0 10 -3.33301 18.333 -10 25s-15 10 -25 10h-35
c-12.667 0 -26 -1 -40 -3s-27 -4.33301 -39 -7c-14 -2.66699 -27.667 -6 -41 -10v-375h-175v530h155zM260.002 742l65 -80l65 80h125l-120 -170h-140l-120 170h125z" />
    <glyph glyph-name="Omacron" unicode="&#x14c;" horiz-adv-x="730" 
d="M510 510c0 40 -20 60 -60 60h-170c-40 0 -60 -20 -60 -60v-320c0 -40 20 -60 60 -60h170c40 0 60 20 60 60v320zM690 190c0 -70 -15.833 -120.833 -47.5 -152.5s-82.5 -47.5 -152.5 -47.5h-250c-70 0 -120.833 15.833 -152.5 47.5s-47.5 82.5 -47.5 152.5v320
c0 70 15.833 120.833 47.5 152.5s82.5 47.5 152.5 47.5h250c70 0 120.833 -15.833 152.5 -47.5s47.5 -82.5 47.5 -152.5v-320zM215 881h300v-120h-300v120z" />
    <glyph glyph-name="omacron" unicode="&#x14d;" 
d="M590 150c0 -50 -14.167 -89.167 -42.5 -117.5s-67.5 -42.5 -117.5 -42.5h-230c-50 0 -89.167 14.167 -117.5 42.5s-42.5 67.5 -42.5 117.5v230c0 50 14.167 89.167 42.5 117.5s67.5 42.5 117.5 42.5h230c50 0 89.167 -14.167 117.5 -42.5s42.5 -67.5 42.5 -117.5v-230z
M415 365c0 26.667 -13.333 40 -40 40h-120c-26.667 0 -40 -13.333 -40 -40v-200c0 -26.667 13.333 -40 40 -40h120c26.667 0 40 13.333 40 40v200zM165 710h300v-120h-300v120z" />
    <glyph glyph-name="Ohungarumlaut" unicode="&#x150;" horiz-adv-x="730" 
d="M510 510c0 40 -20 60 -60 60h-170c-40 0 -60 -20 -60 -60v-320c0 -40 20 -60 60 -60h170c40 0 60 20 60 60v320zM690 190c0 -70 -15.833 -120.833 -47.5 -152.5s-82.5 -47.5 -152.5 -47.5h-250c-70 0 -120.833 15.833 -152.5 47.5s-47.5 82.5 -47.5 152.5v320
c0 70 15.833 120.833 47.5 152.5s82.5 47.5 152.5 47.5h250c70 0 120.833 -15.833 152.5 -47.5s47.5 -82.5 47.5 -152.5v-320zM390 741l70 170h135l-100 -170h-105zM215 741l70 170h135l-100 -170h-105z" />
    <glyph glyph-name="ohungarumlaut" unicode="&#x151;" 
d="M590 150c0 -50 -14.167 -89.167 -42.5 -117.5s-67.5 -42.5 -117.5 -42.5h-230c-50 0 -89.167 14.167 -117.5 42.5s-42.5 67.5 -42.5 117.5v230c0 50 14.167 89.167 42.5 117.5s67.5 42.5 117.5 42.5h230c50 0 89.167 -14.167 117.5 -42.5s42.5 -67.5 42.5 -117.5v-230z
M415 365c0 26.667 -13.333 40 -40 40h-120c-26.667 0 -40 -13.333 -40 -40v-200c0 -26.667 13.333 -40 40 -40h120c26.667 0 40 13.333 40 40v200zM330 570l70 170h135l-100 -170h-105zM155 570l70 170h135l-100 -170h-105z" />
    <glyph glyph-name="OE" unicode="&#x152;" horiz-adv-x="995" 
d="M975 0h-735c-70 -0 -120.833 15.833 -152.5 47.5s-47.5 82.5 -47.5 152.5v300c0 70 15.833 120.833 47.5 152.5s82.5 47.5 152.5 47.5h735v-140h-335v-135h255v-140h-255v-145h335v-140zM460 140v420h-180c-40 0 -60 -20 -60 -60v-300c0 -40 20 -60 60 -60h180z" />
    <glyph glyph-name="oe" unicode="&#x153;" horiz-adv-x="945" 
d="M590 -10c-17.333 0 -32.667 1.66699 -46 5s-24.333 7.33301 -33 12c-10.667 5.33301 -19.334 11.333 -26.001 18c-7.33301 -6.66699 -16 -12.667 -26 -18c-9.33301 -4.66699 -20.5 -8.66699 -33.5 -12s-28.167 -5 -45.5 -5h-180c-50 0 -89.167 14.167 -117.5 42.5
s-42.5 67.5 -42.5 117.5v230c0 50 14.167 89.167 42.5 117.5s67.5 42.5 117.5 42.5h180c17.333 0 32.5 -1.83301 45.5 -5.5s24.167 -7.83398 33.5 -12.501c10 -5.33301 18.667 -11 26 -17c7.33301 6 16 11.667 26 17c8.66699 4.66699 19 8.83398 31 12.501
s26.333 5.5 43 5.5h160c50 0 89.167 -14.167 117.5 -42.5s42.5 -67.5 42.5 -117.5v-185h-335v-40c0 -10 3.33301 -18.333 10 -25s15 -10 25 -10c28.667 0 59.334 0.666992 92.001 2s63 3 91 5l97 8v-125c-28.667 -4 -59 -7.33301 -91 -10c-28 -2.66699 -59.5 -5 -94.5 -7
s-71.5 -3 -109.5 -3zM394.999 365c0 26.667 -13.333 40 -40 40h-100c-26.667 0 -40 -13.333 -40 -40v-200c0 -26.667 13.333 -40 40 -40h100c26.667 0 40 13.333 40 40v200zM609.999 415c-26.667 0 -40 -13.333 -40 -40v-55h160v55c0 26.667 -13.333 40 -40 40h-80z" />
    <glyph glyph-name="Racute" unicode="&#x154;" horiz-adv-x="720" 
d="M60 700h420c70 0 120.833 -15.833 152.5 -47.5s47.5 -82.5 47.5 -152.5v-90c0 -55.333 -9.16699 -98.333 -27.5 -129s-47.5 -51 -87.5 -61l125 -220h-195l-115 210h-140v-210h-180v700zM500 500c0 40 -20 60 -60 60h-200v-210h200c40 0 60 20 60 60v90zM270 731l60 170
h180l-110 -170h-130z" />
    <glyph glyph-name="racute" unicode="&#x155;" horiz-adv-x="460" 
d="M205 530l9.99902 -65c15.333 13.333 32.333 25.666 51 36.999c16 9.33301 34.833 18 56.5 26s45.834 12 72.501 12h45v-155h-85c-17.333 0 -33.833 -1.66699 -49.5 -5s-29.5 -6.66602 -41.5 -9.99902c-14 -4.66699 -27 -9.66699 -39 -15v-355h-175v530h155zM154.999 571
l60 170h180l-110 -170h-130z" />
    <glyph glyph-name="Rcommaaccent" unicode="&#x156;" horiz-adv-x="720" 
d="M60 700h420c70 0 120.833 -15.833 152.5 -47.5s47.5 -82.5 47.5 -152.5v-90c0 -55.333 -9.16699 -98.333 -27.5 -129s-47.5 -51 -87.5 -61l125 -220h-195l-115 210h-140v-210h-180v700zM500 500c0 40 -20 60 -60 60h-200v-210h200c40 0 60 20 60 60v90zM275 -30h170v-130
l-70 -110h-80l40 100h-60v140z" />
    <glyph glyph-name="rcommaaccent" unicode="&#x157;" horiz-adv-x="460" 
d="M205 530l9.99902 -65c15.333 13.333 32.333 25.666 51 36.999c16 9.33301 34.833 18 56.5 26s45.834 12 72.501 12h45v-155h-85c-17.333 0 -33.833 -1.66699 -49.5 -5s-29.5 -6.66602 -41.5 -9.99902c-14 -4.66699 -27 -9.66699 -39 -15v-355h-175v530h155zM54.999 -30
h170v-130l-70 -110h-80l40 100h-60v140z" />
    <glyph glyph-name="Rcaron" unicode="&#x158;" horiz-adv-x="720" 
d="M60 700h420c70 0 120.833 -15.833 152.5 -47.5s47.5 -82.5 47.5 -152.5v-90c0 -55.333 -9.16699 -98.333 -27.5 -129s-47.5 -51 -87.5 -61l125 -220h-195l-115 210h-140v-210h-180v700zM500 500c0 40 -20 60 -60 60h-200v-210h200c40 0 60 20 60 60v90zM285 901l65 -80
l65 80h125l-120 -170h-140l-120 170h125z" />
    <glyph glyph-name="rcaron" unicode="&#x159;" horiz-adv-x="460" 
d="M205 530l9.99902 -65c15.333 13.333 32.333 25.666 51 36.999c16 9.33301 34.833 18 56.5 26s45.834 12 72.501 12h45v-155h-85c-17.333 0 -33.833 -1.66699 -49.5 -5s-29.5 -6.66602 -41.5 -9.99902c-14 -4.66699 -27 -9.66699 -39 -15v-355h-175v530h155zM174.999 740
l65 -80l65 80h125l-120 -170h-140l-120 170h125z" />
    <glyph glyph-name="Sacute" unicode="&#x15a;" horiz-adv-x="670" 
d="M210 480c0 -40 20 -60 60 -60h180c65.333 0 113.333 -15.333 144 -46s46 -78.667 46 -144v-50c0 -65.333 -15.333 -113.333 -46 -144s-78.667 -46 -144 -46c-20 0 -41.167 0.333008 -63.5 1s-45 1.5 -68 2.5l-69 3c-23 1 -44.833 2.16699 -65.5 3.5
c-48.667 2.66699 -97 6 -145 10v135l142 -8c39.333 -2 80 -3.66699 122 -5s77.667 -2 107 -2c15.333 0 27.5 4.5 36.5 13.5s13.5 21.167 13.5 36.5v90h-230c-70 0 -120.833 15.833 -152.5 47.5s-47.5 82.5 -47.5 152.5v30c0 70 15.833 120.833 47.5 152.5
s82.5 47.5 152.5 47.5h351v-140h-311c-40 0 -60 -20 -60 -60v-20zM255 731l60 170h180l-110 -170h-130z" />
    <glyph glyph-name="sacute" unicode="&#x15b;" horiz-adv-x="580" 
d="M195 365c0 -10 3.33398 -18.333 10.001 -25s15 -10 25 -10h180c45.333 0 81.666 -13.667 108.999 -41s41 -63.666 41 -108.999v-40c0 -45.333 -13.667 -81.666 -41 -108.999s-63.666 -41 -108.999 -41c-42.667 0 -86.334 1 -131.001 3s-85.667 4.33301 -123 7
c-43.333 2.66699 -85.333 6 -126 10v130l109 -8c32 -2 66.667 -3.66699 104 -5s73 -2 107 -2c10 0 18.333 3.33301 25 10s10 15 10 25v35h-215c-45.333 0 -81.666 13.667 -108.999 41s-41 63.666 -41 108.999v35c0 45.333 13.667 81.666 41 108.999s63.666 41 108.999 41
h340v-130h-280c-10 0 -18.333 -3.33301 -25 -10s-10 -15 -10 -25zM210.001 571l60 170h180l-110 -170h-130z" />
    <glyph glyph-name="Scedilla" unicode="&#x15e;" horiz-adv-x="670" 
d="M210 480c0 -40 20 -60 60 -60h180c65.333 0 113.333 -15.333 144 -46s46 -78.667 46 -144v-50c0 -65.333 -15.333 -113.333 -46 -144s-78.667 -46 -144 -46c-20 0 -41.167 0.333008 -63.5 1s-45 1.5 -68 2.5l-69 3c-23 1 -44.833 2.16699 -65.5 3.5
c-48.667 2.66699 -97 6 -145 10v135l142 -8c39.333 -2 80 -3.66699 122 -5s77.667 -2 107 -2c15.333 0 27.5 4.5 36.5 13.5s13.5 21.167 13.5 36.5v90h-230c-70 0 -120.833 15.833 -152.5 47.5s-47.5 82.5 -47.5 152.5v30c0 70 15.833 120.833 47.5 152.5
s82.5 47.5 152.5 47.5h351v-140h-311c-40 0 -60 -20 -60 -60v-20zM345 11v-40h10c32.667 0 57.5 -8 74.5 -24s25.5 -38 25.5 -66s-8.5 -50 -25.5 -66s-41.833 -24 -74.5 -24h-120v65h100c23.333 0 35 8.33301 35 25s-11.667 25 -35 25h-75v105h85z" />
    <glyph glyph-name="scedilla" unicode="&#x15f;" horiz-adv-x="580" 
d="M195 365c0 -10 3.33496 -18.333 10.002 -25s15 -10 25 -10h180c45.333 0 81.666 -13.667 108.999 -41s41 -63.666 41 -108.999v-40c0 -45.333 -13.667 -81.666 -41 -108.999s-63.666 -41 -108.999 -41c-16.667 0 -33.334 0.166992 -50.001 0.5
s-33.334 0.833008 -50.001 1.5v-22h10c32.667 0 57.5 -8 74.5 -24s25.5 -38 25.5 -66s-8.5 -50 -25.5 -66s-41.833 -24 -74.5 -24h-120v65h100c23.333 0 35 8.33301 35 25s-11.667 25 -35 25h-75v91c-27.333 1.33301 -52.833 2.83301 -76.5 4.5s-44.167 3.16699 -61.5 4.5
c-20.667 2 -39.667 3.66699 -57 5v130l109 -8c32 -2 66.667 -3.66699 104 -5s73 -2 107 -2c10 0 18.333 3.33301 25 10s10 15 10 25v35h-215c-45.333 0 -81.666 13.667 -108.999 41s-41 63.666 -41 108.999v35c0 45.333 13.667 81.666 41 108.999s63.666 41 108.999 41h340
v-130h-280c-10 0 -18.333 -3.33301 -25 -10s-10 -15 -10 -25z" />
    <glyph glyph-name="Scaron" unicode="&#x160;" horiz-adv-x="670" 
d="M210 480c0 -40 20 -60 60 -60h180c65.333 0 113.333 -15.333 144 -46s46 -78.667 46 -144v-50c0 -65.333 -15.333 -113.333 -46 -144s-78.667 -46 -144 -46c-20 0 -41.167 0.333008 -63.5 1s-45 1.5 -68 2.5l-69 3c-23 1 -44.833 2.16699 -65.5 3.5
c-48.667 2.66699 -97 6 -145 10v135l142 -8c39.333 -2 80 -3.66699 122 -5s77.667 -2 107 -2c15.333 0 27.5 4.5 36.5 13.5s13.5 21.167 13.5 36.5v90h-230c-70 0 -120.833 15.833 -152.5 47.5s-47.5 82.5 -47.5 152.5v30c0 70 15.833 120.833 47.5 152.5
s82.5 47.5 152.5 47.5h351v-140h-311c-40 0 -60 -20 -60 -60v-20zM270 901l65 -80l65 80h125l-120 -170h-140l-120 170h125z" />
    <glyph glyph-name="scaron" unicode="&#x161;" horiz-adv-x="580" 
d="M195 365c0 -10 3.33398 -18.333 10.001 -25s15 -10 25 -10h180c45.333 0 81.666 -13.667 108.999 -41s41 -63.666 41 -108.999v-40c0 -45.333 -13.667 -81.666 -41 -108.999s-63.666 -41 -108.999 -41c-42.667 0 -86.334 1 -131.001 3s-85.667 4.33301 -123 7
c-43.333 2.66699 -85.333 6 -126 10v130l109 -8c32 -2 66.667 -3.66699 104 -5s73 -2 107 -2c10 0 18.333 3.33301 25 10s10 15 10 25v35h-215c-45.333 0 -81.666 13.667 -108.999 41s-41 63.666 -41 108.999v35c0 45.333 13.667 81.666 41 108.999s63.666 41 108.999 41
h340v-130h-280c-10 0 -18.333 -3.33301 -25 -10s-10 -15 -10 -25zM220.001 741l65 -80l65 80h125l-120 -170h-140l-120 170h125z" />
    <glyph glyph-name="Tcommaaccent" unicode="&#x162;" horiz-adv-x="620" 
d="M400 0h-180v560h-210v140h600v-140h-210v-560zM225 -30h170v-130l-70 -110h-80l40 100h-60v140z" />
    <glyph glyph-name="tcommaaccent" unicode="&#x163;" horiz-adv-x="440" 
d="M255 530l124.999 0.000976562v-135h-125v-230c0 -10 3.33301 -18.333 10 -25s15 -10 25 -10h130v-130c-19.333 -2 -39.666 -3.66699 -60.999 -5c-18 -1.33301 -38.333 -2.5 -61 -3.5s-45.334 -1.5 -68.001 -1.5c-45.333 0 -81.666 13.667 -108.999 41
s-41 63.666 -41 108.999v255h-60v135h60l20 120h155v-120zM164.999 -38.999h170v-130l-70 -110h-80l40 100h-60v140z" />
    <glyph glyph-name="Tcaron" unicode="&#x164;" horiz-adv-x="620" 
d="M400 0h-180v560h-210v140h600v-140h-210v-560zM245 901l65 -80l65 80h125l-120 -170h-140l-120 170h125z" />
    <glyph glyph-name="tcaron" unicode="&#x165;" horiz-adv-x="600" 
d="M410 700h170v-130l-70 -110h-80l40 100h-60v140zM255 530l124.999 0.000976562v-135h-125v-230c0 -10 3.33301 -18.333 10 -25s15 -10 25 -10h130v-130c-19.333 -2 -39.666 -3.66699 -60.999 -5c-18 -1.33301 -38.333 -2.5 -61 -3.5s-45.334 -1.5 -68.001 -1.5
c-45.333 0 -81.666 13.667 -108.999 41s-41 63.666 -41 108.999v255h-60v135h60l20 120h155v-120z" />
    <glyph glyph-name="Umacron" unicode="&#x16a;" horiz-adv-x="750" 
d="M510 700h180v-510c0 -70 -15.833 -120.833 -47.5 -152.5s-82.5 -47.5 -152.5 -47.5h-230c-70 0 -120.833 15.833 -152.5 47.5s-47.5 82.5 -47.5 152.5v510h180v-510c0 -40 20 -60 60 -60h150c40 0 60 20 60 60v510zM225 871h300v-120h-300v120z" />
    <glyph glyph-name="umacron" unicode="&#x16b;" horiz-adv-x="640" 
d="M435 0l-10.002 50c-17.333 -11.333 -36 -21.333 -56 -30c-17.333 -7.33301 -36.666 -14.166 -57.999 -20.499s-43.333 -9.5 -66 -9.5h-45c-45.333 0 -81.666 13.667 -108.999 41s-41 63.666 -41 108.999v390h175v-360c0 -10 3.33301 -18.333 10 -25s15 -10 25 -10h35
c12.667 0 26 1 40 3s27 4.33301 39 7c14 2.66699 27.667 6 41 10v375h175v-530h-155zM169.998 710h300v-120h-300v120z" />
    <glyph glyph-name="Uring" unicode="&#x16e;" horiz-adv-x="750" 
d="M510 700h180v-510c0 -70 -15.833 -120.833 -47.5 -152.5s-82.5 -47.5 -152.5 -47.5h-230c-70 0 -120.833 15.833 -152.5 47.5s-47.5 82.5 -47.5 152.5v510h180v-510c0 -40 20 -60 60 -60h150c40 0 60 20 60 60v510zM405 916c32.667 0 57.5 -8 74.5 -24s25.5 -38 25.5 -66
v-15c0 -28 -8.5 -50 -25.5 -66s-41.833 -24 -74.5 -24h-60c-32.667 0 -57.5 8 -74.5 24s-25.5 38 -25.5 66v15c0 28 8.5 50 25.5 66s41.833 24 74.5 24h60zM420 821c0 20 -10 30 -30 30h-30c-20 0 -30 -10 -30 -30v-5c0 -20 10 -30 30 -30h30c20 0 30 10 30 30v5z" />
    <glyph glyph-name="uring" unicode="&#x16f;" horiz-adv-x="640" 
d="M435 0l-10.002 50c-17.333 -11.333 -36 -21.333 -56 -30c-17.333 -7.33301 -36.666 -14.166 -57.999 -20.499s-43.333 -9.5 -66 -9.5h-45c-45.333 0 -81.666 13.667 -108.999 41s-41 63.666 -41 108.999v390h175v-360c0 -10 3.33301 -18.333 10 -25s15 -10 25 -10h35
c12.667 0 26 1 40 3s27 4.33301 39 7c14 2.66699 27.667 6 41 10v375h175v-530h-155zM349.998 755c32.667 0 57.5 -8 74.5 -24s25.5 -38 25.5 -66v-15c0 -28 -8.5 -50 -25.5 -66s-41.833 -24 -74.5 -24h-60c-32.667 0 -57.5 8 -74.5 24s-25.5 38 -25.5 66v15
c0 28 8.5 50 25.5 66s41.833 24 74.5 24h60zM364.998 660c0 20 -10 30 -30 30h-30c-20 0 -30 -10 -30 -30v-5c0 -20 10 -30 30 -30h30c20 0 30 10 30 30v5z" />
    <glyph glyph-name="Uhungarumlaut" unicode="&#x170;" horiz-adv-x="750" 
d="M510 700h180v-510c0 -70 -15.833 -120.833 -47.5 -152.5s-82.5 -47.5 -152.5 -47.5h-230c-70 0 -120.833 15.833 -152.5 47.5s-47.5 82.5 -47.5 152.5v510h180v-510c0 -40 20 -60 60 -60h150c40 0 60 20 60 60v510zM400 721l70 170h135l-100 -170h-105zM225 721l70 170
h135l-100 -170h-105z" />
    <glyph glyph-name="uhungarumlaut" unicode="&#x171;" horiz-adv-x="640" 
d="M435 0l-10.002 50c-17.333 -11.333 -36 -21.333 -56 -30c-17.333 -7.33301 -36.666 -14.166 -57.999 -20.499s-43.333 -9.5 -66 -9.5h-45c-45.333 0 -81.666 13.667 -108.999 41s-41 63.666 -41 108.999v390h175v-360c0 -10 3.33301 -18.333 10 -25s15 -10 25 -10h35
c12.667 0 26 1 40 3s27 4.33301 39 7c14 2.66699 27.667 6 41 10v375h175v-530h-155zM344.998 570l70 170h135l-100 -170h-105zM169.998 570l70 170h135l-100 -170h-105z" />
    <glyph glyph-name="Uogonek" unicode="&#x172;" horiz-adv-x="750" 
d="M510 700h180v-510c0 -70 -15.833 -120.833 -47.5 -152.5s-82.5 -47.5 -152.5 -47.5h-230c-70 0 -120.833 15.833 -152.5 47.5s-47.5 82.5 -47.5 152.5v510h180v-510c0 -40 20 -60 60 -60h150c40 0 60 20 60 60v510zM490 0
c-22.667 -8.66699 -42.6699 -17.999 -60.0029 -27.999c-15.333 -9.33301 -29.166 -19.833 -41.499 -31.5s-18.5 -25.167 -18.5 -40.5c0 -16.667 10 -25 30 -25c8.66699 0 17.667 0.5 27 1.5s18 2.16699 26 3.5c9.33301 1.33301 18.333 3 27 5v-75
c-9.33301 -2 -19.666 -3.66699 -30.999 -5c-9.33301 -1.33301 -20 -2.5 -32 -3.5s-24.333 -1.5 -37 -1.5c-35.333 0 -61.666 7.83301 -78.999 23.5s-26 36.167 -26 61.5c0 21.333 5.83301 39.166 17.5 53.499s24.834 26.166 39.501 35.499
c17.333 10.667 36.666 19.334 57.999 26.001h100z" />
    <glyph glyph-name="uogonek" unicode="&#x173;" horiz-adv-x="640" 
d="M435 0l-10.002 50c-17.333 -11.333 -36 -21.333 -56 -30c-17.333 -7.33301 -36.666 -14.166 -57.999 -20.499s-43.333 -9.5 -66 -9.5h-45c-45.333 0 -81.666 13.667 -108.999 41s-41 63.666 -41 108.999v390h175v-360c0 -10 3.33301 -18.333 10 -25s15 -10 25 -10h35
c12.667 0 26 1 40 3s27 4.33301 39 7c14 2.66699 27.667 6 41 10v375h175v-530h-155zM589.998 0c-22.667 -8.66699 -42.6699 -17.999 -60.0029 -27.999c-15.333 -9.33301 -29.166 -19.833 -41.499 -31.5s-18.5 -25.167 -18.5 -40.5c0 -16.667 10 -25 30 -25
c8.66699 0 17.667 0.5 27 1.5s18 2.16699 26 3.5c9.33301 1.33301 18.333 3 27 5v-75c-9.33301 -2 -19.666 -3.66699 -30.999 -5c-9.33301 -1.33301 -20 -2.5 -32 -3.5s-24.333 -1.5 -37 -1.5c-35.333 0 -61.666 7.83301 -78.999 23.5s-26 36.167 -26 61.5
c0 21.333 5.83301 39.166 17.5 53.499s24.834 26.166 39.501 35.499c17.333 10.667 36.666 19.334 57.999 26.001h100z" />
    <glyph glyph-name="Ydieresis" unicode="&#x178;" horiz-adv-x="670" 
d="M-20 700h190l165 -340l165 340h190l-265 -515v-185h-180v185zM365 871h170v-140h-170v140zM135 871h170v-140h-170v140z" />
    <glyph glyph-name="Zacute" unicode="&#x179;" horiz-adv-x="610" 
d="M590 560l-350 -420h350v-140h-570v140l350 420h-350v140h570v-140zM225 731l60 170h180l-110 -170h-130z" />
    <glyph glyph-name="zacute" unicode="&#x17a;" horiz-adv-x="535" 
d="M515 395l-275 -260h275v-135h-495v135l275 260h-275v135h495v-135zM180 571l60 170h180l-110 -170h-130z" />
    <glyph glyph-name="Zdotaccent" unicode="&#x17b;" horiz-adv-x="610" 
d="M590 560l-350 -420h350v-140h-570v140l350 420h-350v140h570v-140zM220 901h170v-140h-170v140z" />
    <glyph glyph-name="zdotaccent" unicode="&#x17c;" horiz-adv-x="535" 
d="M515 395l-275 -260h275v-135h-495v135l275 260h-275v135h495v-135zM192 730h170v-140h-170v140z" />
    <glyph glyph-name="Zcaron" unicode="&#x17d;" horiz-adv-x="610" 
d="M590 560l-350 -420h350v-140h-570v140l350 420h-350v140h570v-140zM240 901l65 -80l65 80h125l-120 -170h-140l-120 170h125z" />
    <glyph glyph-name="zcaron" unicode="&#x17e;" horiz-adv-x="535" 
d="M515 395l-275 -260h275v-135h-495v135l275 260h-275v135h495v-135zM205 741l65 -80l65 80h125l-120 -170h-140l-120 170h125z" />
    <glyph glyph-name="florin" unicode="&#x192;" horiz-adv-x="460" 
d="M340 575c-10 0 -18.8311 -3.33301 -26.498 -10s-12.167 -15 -13.5 -25l-5 -50h155l-20 -135h-165l-55 -385c-3.33301 -21.333 -10 -41.166 -20 -59.499s-22.833 -34.166 -38.5 -47.499s-33.334 -23.833 -53.001 -31.5s-40.834 -11.5 -63.501 -11.5
c-21.333 0 -41.833 0.5 -61.5 1.5s-37.167 2.16699 -52.5 3.5c-18 1.33301 -35 3 -51 5l20 130h110c10 0 18.833 3.33301 26.5 10s12.167 15 13.5 25l50 360h-70l20 135h80l10 70c2.66699 21.333 9 41.166 19 59.499s22.5 34.166 37.5 47.499s32.5 23.833 52.5 31.5
s42 11.5 66 11.5c22.667 0 47.5 -0.5 74.5 -1.5s52.5 -2.16699 76.5 -3.5c27.333 -2 55.333 -3.66699 84 -5l-20 -125h-180v0z" />
    <glyph glyph-name="Scommaaccent" unicode="&#x218;" horiz-adv-x="670" 
d="M210 480c0 -40 20 -60 60 -60h180c65.333 0 113.333 -15.333 144 -46s46 -78.667 46 -144v-50c0 -65.333 -15.333 -113.333 -46 -144s-78.667 -46 -144 -46c-20 0 -41.167 0.333008 -63.5 1s-45 1.5 -68 2.5l-69 3c-23 1 -44.833 2.16699 -65.5 3.5
c-48.667 2.66699 -97 6 -145 10v135l142 -8c39.333 -2 80 -3.66699 122 -5s77.667 -2 107 -2c15.333 0 27.5 4.5 36.5 13.5s13.5 21.167 13.5 36.5v90h-230c-70 0 -120.833 15.833 -152.5 47.5s-47.5 82.5 -47.5 152.5v30c0 70 15.833 120.833 47.5 152.5
s82.5 47.5 152.5 47.5h351v-140h-311c-40 0 -60 -20 -60 -60v-20zM255 -39h170v-130l-70 -110h-80l40 100h-60v140z" />
    <glyph glyph-name="scommaaccent" unicode="&#x219;" horiz-adv-x="580" 
d="M195 365c0 -10 3.33398 -18.333 10.001 -25s15 -10 25 -10h180c45.333 0 81.666 -13.667 108.999 -41s41 -63.666 41 -108.999v-40c0 -45.333 -13.667 -81.666 -41 -108.999s-63.666 -41 -108.999 -41c-42.667 0 -86.334 1 -131.001 3s-85.667 4.33301 -123 7
c-43.333 2.66699 -85.333 6 -126 10v130l109 -8c32 -2 66.667 -3.66699 104 -5s73 -2 107 -2c10 0 18.333 3.33301 25 10s10 15 10 25v35h-215c-45.333 0 -81.666 13.667 -108.999 41s-41 63.666 -41 108.999v35c0 45.333 13.667 81.666 41 108.999s63.666 41 108.999 41
h340v-130h-280c-10 0 -18.333 -3.33301 -25 -10s-10 -15 -10 -25zM205.001 -39h170v-130l-70 -110h-80l40 100h-60v140z" />
    <glyph glyph-name="circumflex" unicode="&#x2c6;" horiz-adv-x="380" 
d="M0 635l120 170h140l120 -170h-125l-65 80l-65 -80h-125z" />
    <glyph glyph-name="caron" unicode="&#x2c7;" horiz-adv-x="380" 
d="M125 805l65 -80l65 80h125l-120 -170h-140l-120 170h125z" />
    <glyph glyph-name="breve" unicode="&#x2d8;" horiz-adv-x="360" 
d="M130 655c-86.667 0 -130 43.333 -130 130v30h130v-25c0 -10 3.33301 -18.333 10 -25s15 -10 25 -10h30c10 0 18.333 3.33301 25 10s10 15 10 25v25h130v-30c0 -86.667 -43.333 -130 -130 -130h-100z" />
    <glyph glyph-name="dotaccent" unicode="&#x2d9;" horiz-adv-x="170" 
d="M0 805h170v-140h-170v140z" />
    <glyph glyph-name="ring" unicode="&#x2da;" horiz-adv-x="-260" 
d="M-100 830c32.667 0 57.5 -8 74.5 -24s25.5 -38 25.5 -66v-15c0 -28 -8.5 -50 -25.5 -66s-41.833 -24 -74.5 -24h-60c-32.667 0 -57.5 8 -74.5 24s-25.5 38 -25.5 66v15c0 28 8.5 50 25.5 66s41.833 24 74.5 24h60zM-85 735c0 20 -10 30 -30 30h-30c-20 0 -30 -10 -30 -30
v-5c0 -20 10 -30 30 -30h30c20 0 30 10 30 30v5z" />
    <glyph glyph-name="ogonek" unicode="&#x2db;" horiz-adv-x="205" 
d="M215 0c-22.667 -8.66699 -42.6699 -17.999 -60.0029 -27.999c-15.333 -9.33301 -29.166 -19.833 -41.499 -31.5s-18.5 -25.167 -18.5 -40.5c0 -16.667 10 -25 30 -25c8.66699 0 17.667 0.5 27 1.5s18 2.16699 26 3.5c9.33301 1.33301 18.333 3 27 5v-75
c-9.33301 -2 -19.666 -3.66699 -30.999 -5c-9.33301 -1.33301 -20 -2.5 -32 -3.5s-24.333 -1.5 -37 -1.5c-35.333 0 -61.666 7.83301 -78.999 23.5s-26 36.167 -26 61.5c-0 21.333 5.83301 39.166 17.5 53.499s24.834 26.166 39.501 35.499
c17.333 10.667 36.666 19.334 57.999 26.001h100z" />
    <glyph glyph-name="tilde" unicode="&#x2dc;" horiz-adv-x="350" 
d="M350 765c-6 -21.333 -14.0029 -40.666 -24.0029 -57.999c-9.33301 -14.667 -21.166 -27.834 -35.499 -39.501s-32.833 -17.5 -55.5 -17.5c-14 0 -26.167 2.66699 -36.5 8s-20 11 -29 17l-26.5 17c-8.66699 5.33301 -18 8 -28 8c-9.33301 0 -17 -2 -23 -6
s-11 -8.66699 -15 -14c-4.66699 -6 -8.66699 -12.667 -12 -20l-65 40c5.33301 20.667 13.333 39.667 24 57c8.66699 14.667 20.334 28 35.001 40s33.334 18 56.001 18c14 0 26.167 -2.66699 36.5 -8s20 -11 29 -17l26.5 -17c8.66699 -5.33301 18 -8 28 -8
c8.66699 0 16.167 2 22.5 6s11.5 8.66699 15.5 14c4.66699 6 8.66699 12.667 12 20z" />
    <glyph glyph-name="hungarumlaut" unicode="&#x2dd;" horiz-adv-x="380" 
d="M175 635l70 170h135l-100 -170h-105zM0 635l70 170h135l-100 -170h-105z" />
    <glyph glyph-name="afii10023" unicode="&#x401;" horiz-adv-x="635" 
d="M615 0h-555v700h555v-140h-375v-135h295v-140h-295v-145h375v-140zM140 900h170v-140h-170v140zM370 900h170v-140h-170v140z" />
    <glyph glyph-name="afii10051" unicode="&#x402;" horiz-adv-x="790" 
d="M760 140c0 -45.333 -13.6689 -81.667 -41.002 -109s-63.666 -41 -108.999 -41c-20 0 -39.5 0.5 -58.5 1.5s-36.167 2.16699 -51.5 3.5c-17.333 1.33301 -34 3 -50 5v135h95c10 0 18.333 3.33301 25 10s10 15 10 25v100c0 15.333 -4.5 27.5 -13.5 36.5
s-21.167 13.5 -36.5 13.5c-20 0 -41.667 -0.5 -65 -1.5s-45 -2.16699 -65 -3.5c-23.333 -2 -46.666 -3.66699 -69.999 -5v-310h-180v560h-140v140h500v-140h-180v-110c26 1.33301 52.333 3 79 5c23.333 1.33301 49 2.5 77 3.5s56 1.5 84 1.5
c65.333 0 113.333 -15.333 144 -46s46 -78.667 46 -144v-130z" />
    <glyph glyph-name="afii10052" unicode="&#x403;" horiz-adv-x="615" 
d="M240 0h-180v700h545v-140h-365v-560zM260 730l60 170h180l-110 -170h-130z" />
    <glyph glyph-name="afii10053" unicode="&#x404;" horiz-adv-x="620" 
d="M230 -10c-65.333 0 -113.334 15.333 -144.001 46s-46 78.667 -46 144v320c0 70 15.833 120.833 47.5 152.5s82.5 47.5 152.5 47.5h360v-140h-320c-40 0 -60 -20 -60 -60v-85h266v-140h-266v-95c0 -15.333 4.5 -27.5 13.5 -36.5s21.167 -13.5 36.5 -13.5
c12.667 0 27.334 0.166992 44.001 0.5s34 0.833008 52 1.5l54.5 2c18.333 0.666992 36.166 1.66699 53.499 3l126 8v-135c-44.667 -4 -89 -7.33301 -133 -10c-38 -2.66699 -78.167 -5 -120.5 -7s-81.166 -3 -116.499 -3z" />
    <glyph glyph-name="afii10054" unicode="&#x405;" horiz-adv-x="670" 
d="M210 480c0 -40 20 -60 60 -60h180c65.333 0 113.333 -15.333 144 -46s46 -78.667 46 -144v-50c0 -65.333 -15.333 -113.333 -46 -144s-78.667 -46 -144 -46c-20 0 -41.167 0.333008 -63.5 1s-45 1.5 -68 2.5l-69 3c-23 1 -44.833 2.16699 -65.5 3.5
c-48.667 2.66699 -97 6 -145 10v135l142 -8c39.333 -2 80 -3.66699 122 -5s77.667 -2 107 -2c15.333 0 27.5 4.5 36.5 13.5s13.5 21.167 13.5 36.5v90h-230c-70 0 -120.833 15.833 -152.5 47.5s-47.5 82.5 -47.5 152.5v30c0 70 15.833 120.833 47.5 152.5
s82.5 47.5 152.5 47.5h351v-140h-311c-40 0 -60 -20 -60 -60v-20z" />
    <glyph glyph-name="afii10055" unicode="&#x406;" horiz-adv-x="420" 
d="M390 0h-360v140h90v420h-90v140h360v-140h-90v-420h90v-140z" />
    <glyph glyph-name="afii10056" unicode="&#x407;" horiz-adv-x="420" 
d="M390 0h-360v140h90v420h-90v140h360v-140h-90v-420h90v-140zM10 890h170v-140h-170v140zM240 890h170v-140h-170v140z" />
    <glyph glyph-name="afii10057" unicode="&#x408;" horiz-adv-x="460" 
d="M10 135c20.667 -1.33301 41.001 -2.33301 61.001 -3c17.333 -0.666992 35 -1.16699 53 -1.5s33.333 -0.5 46 -0.5c15.333 0 27.5 4.5 36.5 13.5s13.5 21.167 13.5 36.5v380h-130v140h310v-520c0 -65.333 -15.333 -113.333 -46 -144s-78.667 -46 -144 -46
c-22.667 0 -45.834 0.5 -69.501 1.5s-45.167 2.16699 -64.5 3.5c-22.667 1.33301 -44.667 3 -66 5v135z" />
    <glyph glyph-name="afii10058" unicode="&#x409;" horiz-adv-x="1095" 
d="M270 145c-3.33301 -48 -18.668 -85.834 -46.001 -113.501s-63.666 -41.5 -108.999 -41.5c-12.667 0 -25.167 0.5 -37.5 1.5s-23.5 2.16699 -33.5 3.5c-12 1.33301 -23.333 3 -34 5v135h45c12.667 0 23.167 4.33301 31.5 13s12.833 19.334 13.5 32.001l30 520h520v-240
h215c70 0 120.833 -15.833 152.5 -47.5s47.5 -82.5 47.5 -152.5v-60c0 -70 -15.833 -120.833 -47.5 -152.5s-82.5 -47.5 -152.5 -47.5h-385v560h-185zM884.998 259.999c0 40 -20 60 -60 60h-175v-180h175c40 0 60 20 60 60v60z" />
    <glyph glyph-name="afii10059" unicode="&#x40a;" horiz-adv-x="1080" 
d="M635 440h215c70 0 120.833 -15.833 152.5 -47.5s47.5 -82.5 47.5 -152.5v-40c0 -70 -15.833 -120.833 -47.5 -152.5s-82.5 -47.5 -152.5 -47.5h-385v300h-225v-300h-180v700h180v-260h225v260h170v-260zM870 240c0 40 -20 60 -60 60h-175v-160h175c40 0 60 20 60 60v40z
" />
    <glyph glyph-name="afii10060" unicode="&#x40b;" horiz-adv-x="790" 
d="M750 0h-180.001v270c0 15.333 -4.5 27.5 -13.5 36.5s-21.167 13.5 -36.5 13.5c-20 0 -41.667 -0.5 -65 -1.5s-45 -2.16699 -65 -3.5c-23.333 -2 -46.666 -3.66699 -69.999 -5v-310h-180v560h-140v140h500v-140h-180v-110c26 1.33301 52.333 3 79 5
c23.333 1.33301 49 2.5 77 3.5s56 1.5 84 1.5c65.333 0 113.333 -15.333 144 -46s46 -78.667 46 -144v-270z" />
    <glyph glyph-name="afii10061" unicode="&#x40c;" horiz-adv-x="675" 
d="M280 710l60 170h180l-110 -170h-130zM480 355l194.998 -355.001h-190l-155 285h-90v-285h-180v700h180v-275h90l100 190c14.667 28 32.834 50.833 54.501 68.5s50.167 26.5 85.5 26.5c11.333 0 22.333 -0.5 33 -1.5s20.334 -2.16699 29.001 -3.5
c10 -2 19.333 -3.66699 28 -5v-135h-40c-10 0 -19 -3.16699 -27 -9.5s-14 -13.166 -18 -20.499z" />
    <glyph glyph-name="afii10062" unicode="&#x40e;" horiz-adv-x="690" 
d="M-20 700h199.999l180 -355l150 355h200l-255 -550c-11.333 -25.333 -23.833 -47.833 -37.5 -67.5s-29.167 -36.334 -46.5 -50.001s-37.166 -24.167 -59.499 -31.5s-47.833 -11 -76.5 -11c-14 0 -27.5 0.5 -40.5 1.5s-24.833 2.16699 -35.5 3.5
c-12 1.33301 -23.333 3 -34 5v135h90c10 0 18.333 2.16699 25 6.5s11.667 9.83301 15 16.5s5 13.834 5 21.501s-1.66699 14.5 -5 20.5zM299.999 730c-86.667 0 -130 43.333 -130 130v30h130v-25c0 -10 3.33301 -18.333 10 -25s15 -10 25 -10h30c10 0 18.333 3.33301 25 10
s10 15 10 25v25h130v-30c0 -86.667 -43.333 -130 -130 -130h-100z" />
    <glyph glyph-name="afii10145" unicode="&#x40f;" horiz-adv-x="730" 
d="M60 0v700h180v-560h250v560h180v-700h-215l-10 -130h-160l-10 130h-215z" />
    <glyph glyph-name="afii10017" unicode="&#x410;" horiz-adv-x="710" 
d="M185 0h-195l265 700h200l265 -700h-195l-45 125h-250zM275 255h160l-80 235z" />
    <glyph glyph-name="afii10018" unicode="&#x411;" horiz-adv-x="710" 
d="M240 430h240c70 0 120.833 -15.833 152.5 -47.5s47.5 -82.5 47.5 -152.5v-30c0 -70 -15.833 -120.833 -47.5 -152.5s-82.5 -47.5 -152.5 -47.5h-420v700h555v-140h-375v-130zM500 230c0 40 -20 60 -60 60h-200v-150h200c40 0 60 20 60 60v30z" />
    <glyph glyph-name="afii10019" unicode="&#x412;" horiz-adv-x="710" 
d="M60 700l399.998 0.00195312c65.333 0 113.333 -14.833 144 -44.5s46 -74.834 46 -135.501c0 -40 -8.66699 -72.5 -26 -97.5s-38.666 -42.5 -63.999 -52.5c14.667 -4 29.334 -10.333 44.001 -19s27.5 -20.334 38.5 -35.001s20 -32.5 27 -53.5s10.5 -45.167 10.5 -72.5
c0 -65.333 -15.333 -113.333 -46 -144s-78.667 -46 -144 -46h-430v700zM499.998 220.002c0 40 -20 60 -60 60h-200v-140h200c40 0 60 20 60 60v20zM469.998 500.002c0 40 -20 60 -60 60h-170v-140h170c40 0 60 20 60 60v20z" />
    <glyph glyph-name="afii10020" unicode="&#x413;" horiz-adv-x="615" 
d="M240 0h-180v700h545v-140h-365v-560z" />
    <glyph glyph-name="afii10021" unicode="&#x414;" horiz-adv-x="780" 
d="M160 700l525.002 0.000976562v-560h75v-270h-170l-10 130h-390l-10 -130h-170v270h65c10.667 12 20 25.667 28 41c7.33301 13.333 14.166 29.166 20.499 47.499s10.166 38.833 11.499 61.5zM505.002 140.001l-0.000976562 420h-185l-15 -250
c-1.33301 -25.333 -5 -48.333 -11 -69s-12.333 -38.667 -19 -54c-7.33301 -17.333 -15.666 -33 -24.999 -47h255z" />
    <glyph glyph-name="afii10022" unicode="&#x415;" horiz-adv-x="635" 
d="M615 0h-555v700h555v-140h-375v-135h295v-140h-295v-145h375v-140z" />
    <glyph glyph-name="afii10024" unicode="&#x416;" horiz-adv-x="1010" 
d="M100 535c-4 7.33301 -10.0039 14.166 -18.0039 20.499s-17 9.5 -27 9.5h-40v135c8.66699 1.33301 18 3 28 5c8.66699 1.33301 18.334 2.5 29.001 3.5s21.667 1.5 33 1.5c35.333 0 63.833 -8.83301 85.5 -26.5s39.834 -40.5 54.501 -68.5l100 -190h70v275h180v-275h70
l100 190c14.667 28 32.834 50.833 54.501 68.5s50.167 26.5 85.5 26.5c11.333 0 22.333 -0.5 33 -1.5s20.334 -2.16699 29.001 -3.5c10 -2 19.333 -3.66699 28 -5v-135h-40c-10 0 -19 -3.16699 -27 -9.5s-14 -13.166 -18 -20.499l-95 -180l195 -355h-190l-155 285h-70v-285
h-180v285h-70l-155 -285h-190l195 355z" />
    <glyph glyph-name="afii10025" unicode="&#x417;" horiz-adv-x="640" 
d="M610 180c0 -65.333 -15.333 -113.331 -46 -143.998s-78.667 -46 -144 -46c-40 0 -83.333 1 -130 3s-90 4.33301 -130 7c-46.667 2.66699 -93.334 6 -140.001 10v135l133 -8c37.333 -2 76.5 -3.66699 117.5 -5s77.5 -2 109.5 -2c15.333 0 27.5 4.5 36.5 13.5
s13.5 21.167 13.5 36.5v40c0 40 -20 60 -60 60h-240v140h220c40 0 60 20 60 60v20c0 40 -20 60 -60 60h-320v140h370c65.333 0 113.333 -14.833 144 -44.5s46 -74.834 46 -135.501c0 -40 -9.16699 -72.5 -27.5 -97.5s-42.5 -42.5 -72.5 -52.5
c14.667 -4 29.334 -10.333 44.001 -19s27.5 -20.334 38.5 -35.001s20 -32.5 27 -53.5s10.5 -45.167 10.5 -72.5v-10z" />
    <glyph glyph-name="afii10026" unicode="&#x418;" horiz-adv-x="730" 
d="M670 0h-180v430l-240 -430h-190v700h180v-430l240 430h190v-700z" />
    <glyph glyph-name="afii10027" unicode="&#x419;" horiz-adv-x="730" 
d="M490 0v430l-240 -430h-190v700h180v-430l240 430h190v-700h-180zM310 750c-86.667 0 -130 43.333 -130 130v30h130v-25c0 -10 3.33301 -18.333 10 -25s15 -10 25 -10h30c10 0 18.333 3.33301 25 10s10 15 10 25v25h130v-30c0 -86.667 -43.333 -130 -130 -130h-100z" />
    <glyph glyph-name="afii10028" unicode="&#x41a;" horiz-adv-x="675" 
d="M480 355l194.998 -355.001h-190l-155 285h-90v-285h-180v700h180v-275h90l100 190c14.667 28 32.834 50.833 54.501 68.5s50.167 26.5 85.5 26.5c11.333 0 22.333 -0.5 33 -1.5s20.334 -2.16699 29.001 -3.5c10 -2 19.333 -3.66699 28 -5v-135h-40
c-10 0 -19 -3.16699 -27 -9.5s-14 -13.166 -18 -20.499z" />
    <glyph glyph-name="afii10029" unicode="&#x41b;" horiz-adv-x="745" 
d="M270 145c-3.33301 -48 -18.668 -85.834 -46.001 -113.501s-63.666 -41.5 -108.999 -41.5c-12.667 0 -25.167 0.5 -37.5 1.5s-23.5 2.16699 -33.5 3.5c-12 1.33301 -23.333 3 -34 5v135h45c12.667 0 23.167 4.33301 31.5 13s12.833 19.334 13.5 32.001l30 520h555v-700
h-180v560h-210z" />
    <glyph glyph-name="afii10030" unicode="&#x41c;" horiz-adv-x="900" 
d="M660 390l-140 -250h-140l-140 250v-390h-180v700h190l200 -370l200 370h190v-700h-180v390z" />
    <glyph glyph-name="afii10031" unicode="&#x41d;" horiz-adv-x="730" 
d="M670 0h-180v285h-250v-285h-180v700h180v-275h250v275h180v-700z" />
    <glyph glyph-name="afii10032" unicode="&#x41e;" horiz-adv-x="730" 
d="M510 510c0 40 -20 60 -60 60h-170c-40 0 -60 -20 -60 -60v-320c0 -40 20 -60 60 -60h170c40 0 60 20 60 60v320zM690 190c0 -70 -15.833 -120.833 -47.5 -152.5s-82.5 -47.5 -152.5 -47.5h-250c-70 0 -120.833 15.833 -152.5 47.5s-47.5 82.5 -47.5 152.5v320
c0 70 15.833 120.833 47.5 152.5s82.5 47.5 152.5 47.5h250c70 0 120.833 -15.833 152.5 -47.5s47.5 -82.5 47.5 -152.5v-320z" />
    <glyph glyph-name="afii10033" unicode="&#x41f;" horiz-adv-x="730" 
d="M670 0h-180v560h-250v-560h-180v700h610v-700z" />
    <glyph glyph-name="afii10034" unicode="&#x420;" horiz-adv-x="710" 
d="M60 700h420c70 0 120.833 -15.833 152.5 -47.5s47.5 -82.5 47.5 -152.5v-100c0 -70 -15.833 -120.833 -47.5 -152.5s-82.5 -47.5 -152.5 -47.5h-240v-200h-180v700zM500 500c0 40 -20 60 -60 60h-200v-220h200c40 0 60 20 60 60v100z" />
    <glyph glyph-name="afii10035" unicode="&#x421;" horiz-adv-x="620" 
d="M230 -10c-65.333 0 -113.334 15.333 -144.001 46s-46 78.667 -46 144v320c0 70 15.833 120.833 47.5 152.5s82.5 47.5 152.5 47.5h360v-140h-320c-40 0 -60 -20 -60 -60v-320c0 -15.333 4.5 -27.5 13.5 -36.5s21.167 -13.5 36.5 -13.5
c12.667 0 27.334 0.166992 44.001 0.5s34 0.833008 52 1.5l54.5 2c18.333 0.666992 36.166 1.66699 53.499 3l126 8v-135c-44.667 -4 -89 -7.33301 -133 -10c-38 -2.66699 -78.167 -5 -120.5 -7s-81.166 -3 -116.499 -3z" />
    <glyph glyph-name="afii10036" unicode="&#x422;" horiz-adv-x="620" 
d="M400 0h-180v560h-210v140h600v-140h-210v-560z" />
    <glyph glyph-name="afii10037" unicode="&#x423;" horiz-adv-x="690" 
d="M-20 700h199.999l180 -355l150 355h200l-255 -550c-11.333 -25.333 -23.833 -47.833 -37.5 -67.5s-29.167 -36.334 -46.5 -50.001s-37.166 -24.167 -59.499 -31.5s-47.833 -11 -76.5 -11c-14 0 -27.5 0.5 -40.5 1.5s-24.833 2.16699 -35.5 3.5
c-12 1.33301 -23.333 3 -34 5v135h90c10 0 18.333 2.16699 25 6.5s11.667 9.83301 15 16.5s5 13.834 5 21.501s-1.66699 14.5 -5 20.5z" />
    <glyph glyph-name="afii10038" unicode="&#x424;" horiz-adv-x="880" 
d="M850 250c0 -70 -15.833 -120.833 -47.5 -152.5s-82.5 -47.5 -152.5 -47.5h-120v-70h-180v70h-120c-70 0 -120.833 15.833 -152.5 47.5s-47.5 82.5 -47.5 152.5v200c0 70 15.833 120.833 47.5 152.5s82.5 47.5 152.5 47.5h120v70h180v-70h120
c70 0 120.833 -15.833 152.5 -47.5s47.5 -82.5 47.5 -152.5v-200zM670 450c0 40 -20 60 -60 60h-90v-320h90c40 0 60 20 60 60v200zM210 250c0 -40 20 -60 60 -60h90v320h-90c-40 0 -60 -20 -60 -60v-200z" />
    <glyph glyph-name="afii10039" unicode="&#x425;" horiz-adv-x="660" 
d="M465 700h200l-225 -350l230 -350h-200l-140 220l-140 -220h-200l230 350l-225 350h199l136 -220z" />
    <glyph glyph-name="afii10040" unicode="&#x426;" horiz-adv-x="765" 
d="M60 0v700h180v-560h250v560h180v-560h75v-270h-170l-10 130h-505z" />
    <glyph glyph-name="afii10041" unicode="&#x427;" horiz-adv-x="705" 
d="M220 410c0 -15.333 4.5 -27.5 13.5 -36.5s21.167 -13.5 36.5 -13.5c20 0 41.333 0.5 64 1.5s43.667 2.16699 63 3.5c22.667 1.33301 45.334 3 68.001 5v330h180v-700h-180v230c-24 -2 -49.333 -3.66699 -76 -5c-22.667 -1.33301 -47.834 -2.5 -75.501 -3.5
s-55.5 -1.5 -83.5 -1.5c-65.333 0 -113.333 15.333 -144 46s-46 78.667 -46 144v290h180v-290z" />
    <glyph glyph-name="afii10042" unicode="&#x428;" horiz-adv-x="1000" 
d="M940 0h-880v700h180v-560h170v560h180v-560h170v560h180v-700z" />
    <glyph glyph-name="afii10043" unicode="&#x429;" horiz-adv-x="1035" 
d="M60 0v700h180v-560h170v560h180v-560h170v560h180v-560h75v-270h-170l-10 130h-775z" />
    <glyph glyph-name="afii10044" unicode="&#x42a;" horiz-adv-x="800" 
d="M330 700v-240h240c70 0 120.833 -15.833 152.5 -47.5s47.5 -82.5 47.5 -152.5v-60c0 -70 -15.833 -120.833 -47.5 -152.5s-82.5 -47.5 -152.5 -47.5h-420v560h-140v140h320zM590 260c0 40 -20 60 -60 60h-200v-180h200c40 0 60 20 60 60v60z" />
    <glyph glyph-name="afii10045" unicode="&#x42b;" horiz-adv-x="990" 
d="M240 460h230c70 0 120.833 -15.833 152.5 -47.5s47.5 -82.5 47.5 -152.5v-60c0 -70 -15.833 -120.833 -47.5 -152.5s-82.5 -47.5 -152.5 -47.5h-410v700h180v-240zM930 0h-180v700h180v-700zM490 260c0 40 -20 60 -60 60h-190v-180h190c40 0 60 20 60 60v60z" />
    <glyph glyph-name="afii10046" unicode="&#x42c;" horiz-adv-x="710" 
d="M240 460h240c70 0 120.833 -15.833 152.5 -47.5s47.5 -82.5 47.5 -152.5v-60c0 -70 -15.833 -120.833 -47.5 -152.5s-82.5 -47.5 -152.5 -47.5h-420v700h180v-240zM500 260c0 40 -20 60 -60 60h-200v-180h200c40 0 60 20 60 60v60z" />
    <glyph glyph-name="afii10047" unicode="&#x42d;" horiz-adv-x="620" 
d="M390 -10c-35.333 0 -74.333 1 -117 3s-83 4.33301 -121 7c-44 2.66699 -88 6 -132 10v135l126 -8c34.667 -2 70.667 -3.66699 108 -5s69.333 -2 96 -2c15.333 0 27.5 4.5 36.5 13.5s13.5 21.167 13.5 36.5v95h-266v140h266v85c0 40 -20 60 -60 60h-310v140h350
c70 0 120.833 -15.833 152.5 -47.5s47.5 -82.5 47.5 -152.5v-320c0 -65.333 -15.333 -113.333 -46 -144s-78.667 -46 -144 -46z" />
    <glyph glyph-name="afii10048" unicode="&#x42e;" horiz-adv-x="970" 
d="M930 190c0 -70 -15.833 -120.833 -47.5 -152.5s-82.5 -47.5 -152.5 -47.5h-200c-70 0 -120.833 15.833 -152.5 47.5s-47.5 82.5 -47.5 152.5v95h-90v-285h-180v700h180v-275h90v85c0 70 15.833 120.833 47.5 152.5s82.5 47.5 152.5 47.5h200
c70 0 120.833 -15.833 152.5 -47.5s47.5 -82.5 47.5 -152.5v-320zM750 510c0 40 -20 60 -60 60h-120c-40 0 -60 -20 -60 -60v-320c0 -40 20 -60 60 -60h120c40 0 60 20 60 60v320z" />
    <glyph glyph-name="afii10049" unicode="&#x42f;" horiz-adv-x="720" 
d="M660 0h-179.999v230h-135l-125 -230h-190l130 240c-42.667 10 -73.334 30.333 -92.001 61s-28 73.667 -28 129v70c0 70 15.833 120.833 47.5 152.5s82.5 47.5 152.5 47.5h420v-700zM220.001 430c0 -40 20 -60 60 -60h200v190h-200c-40 0 -60 -20 -60 -60v-70z" />
    <glyph glyph-name="afii10065" unicode="&#x430;" horiz-adv-x="595" 
d="M260 130c12.667 0 26 1 40 3s27 4.33301 39 7c14 2.66699 27.667 6 41 10v60h-145c-10 0 -18.333 -3.33301 -25 -10s-10 -15 -10 -25v-10c0 -10 3.33301 -18.333 10 -25s15 -10 25 -10h25zM175 -10c-45.333 0 -81.667 13.667 -109 41s-41 63.666 -41 108.999v45
c0 45.333 13.667 81.666 41 108.999s63.666 41 108.999 41h205v40c0 10 -3.33301 18.333 -10 25s-15 10 -25 10c-26.667 0 -55.5 -0.833008 -86.5 -2.5s-60.167 -3.5 -87.5 -5.5c-32 -2.66699 -64 -5 -96 -7v125c36.667 4 74 7.33301 112 10
c32.667 2.66699 68.334 5 107.001 7s75.667 3 111 3c45.333 0 81.666 -13.667 108.999 -41s41 -63.666 41 -108.999v-390h-155l-10 50c-17.333 -11.333 -36 -21.333 -56 -30c-17.333 -7.33301 -36.666 -14.166 -57.999 -20.499s-43.333 -9.5 -66 -9.5h-35z" />
    <glyph glyph-name="afii10066" unicode="&#x431;" horiz-adv-x="610" 
d="M560 725l15.002 -140.002l-310 -35c-33.333 -4 -50 -20.667 -50 -50v-60c19.333 4 39 7.33301 59 10c17.333 2.66699 35.833 5 55.5 7s38.167 3 55.5 3h45c45.333 0 81.666 -13.667 108.999 -41s41 -63.666 41 -108.999v-160c0 -50 -14.167 -89.167 -42.5 -117.5
s-67.5 -42.5 -117.5 -42.5h-220c-50 0 -89.167 14.167 -117.5 42.5s-42.5 67.5 -42.5 117.5v355c0 48 16.167 88.333 48.5 121s76.166 52.334 131.499 59.001zM365.002 124.998c26.667 0 39.999 13.333 39.999 40v125c0 10 -3.33301 18.333 -10 25s-15 10 -25 10h-35
c-14 0 -28.167 -0.5 -42.5 -1.5s-27.166 -2.16699 -38.499 -3.5c-13.333 -2 -26.333 -3.66699 -39 -5v-150c0 -26.667 13.333 -40 40 -40h110z" />
    <glyph glyph-name="afii10067" unicode="&#x432;" horiz-adv-x="600" 
d="M580 140c0 -20 -3.66699 -38.501 -11 -55.501s-17.5 -31.833 -30.5 -44.5s-28.667 -22.5 -47 -29.5s-38.833 -10.5 -61.5 -10.5h-380v530h350c22.667 0 43.167 -3.5 61.5 -10.5s34 -16.667 47 -29s23.167 -26.666 30.5 -42.999s11 -33.833 11 -52.5
c0 -28 -7 -52.333 -21 -73s-33.667 -34.667 -59 -42c30 -5.33301 55.833 -20 77.5 -44s32.5 -56 32.5 -96zM405 169.999c0 10 -3.33301 18.333 -10 25s-15 10 -25 10h-145v-85h145c10 0 18.333 3.33301 25 10s10 15 10 25v15zM375 374.999c0 10 -3.33301 18.333 -10 25
s-15 10 -25 10h-115v-90h115c10 0 18.333 3.33301 25 10s10 15 10 25v20z" />
    <glyph glyph-name="afii10068" unicode="&#x433;" horiz-adv-x="490" 
d="M480 530v-135h-255v-395h-175v530h430z" />
    <glyph glyph-name="afii10069" unicode="&#x434;" horiz-adv-x="690" 
d="M285 250c-1.33301 -17.333 -4.16699 -33.167 -8.5 -47.5s-8.83301 -26.5 -13.5 -36.5c-5.33301 -12 -11.333 -22.333 -18 -31h175v260h-125zM594.999 529.999v-395h75v-255h-166l-10 120h-308l-10 -120h-166v255h65c7.33301 8.66699 14.333 18.667 21 30
c5.33301 9.33301 10.333 20.333 15 33s7.66699 26.667 9 42l20 290h455z" />
    <glyph glyph-name="afii10070" unicode="&#x435;" horiz-adv-x="600" 
d="M255 415c-26.667 0 -40 -13.333 -40 -40v-55h170v55c0 26.667 -13.333 40 -40 40h-90zM40 380c0 50 14.167 89.168 42.5 117.501s67.5 42.5 117.5 42.5h200c50 0 89.167 -14.167 117.5 -42.5s42.5 -67.5 42.5 -117.5v-185h-345v-40c0 -10 3.33301 -18.333 10 -25
s15 -10 25 -10c28.667 0 59.834 0.666992 93.501 2s65.167 3 94.5 5l102 8v-125c-38.667 -4 -78.334 -7.33301 -119.001 -10c-34.667 -2.66699 -72.334 -5 -113.001 -7s-80 -3 -118 -3c-45.333 0 -81.666 13.667 -108.999 41s-41 63.666 -41 108.999v240z" />
    <glyph glyph-name="afii10072" unicode="&#x436;" horiz-adv-x="875" 
d="M190 0h-190l150 265l-50 100c-4 7.33301 -10.167 14.166 -18.5 20.499s-18.833 9.5 -31.5 9.5h-35v135l25 5c7.33301 1.33301 15.833 2.5 25.5 3.5s19.5 1.5 29.5 1.5c18.667 0 35.5 -2.66699 50.5 -8s28.5 -12.333 40.5 -21s22.5 -18.667 31.5 -30
s16.5 -23.333 22.5 -36l55 -110h55v195h175v-195h55l55 110c6 12.667 13.5 24.667 22.5 36s19.5 21.333 31.5 30s25.5 15.667 40.5 21s31.833 8 50.5 8c10 0 19.833 -0.5 29.5 -1.5s18.167 -2.16699 25.5 -3.5l25 -5v-135h-35c-12.667 0 -23.167 -3.16699 -31.5 -9.5
s-14.5 -13.166 -18.5 -20.499l-50 -100l150 -265h-190l-110 200h-50v-200h-175v200h-50z" />
    <glyph glyph-name="afii10073" unicode="&#x437;" horiz-adv-x="550" 
d="M100 200l-0.00195312 124.998h200c10 0 18.333 3.33301 25 10s10 15 10 25v10c0 10 -3.33301 18.333 -10 25s-15 10 -25 10h-270v125h330c22.667 0 43.167 -3.5 61.5 -10.5s34 -16.667 47 -29s23.167 -26.666 30.5 -42.999s11 -33.833 11 -52.5
c0 -28 -7.5 -52.333 -22.5 -73s-37.5 -34.667 -67.5 -42c30 -5.33301 55.833 -20 77.5 -44s32.5 -56 32.5 -96c0 -45.333 -13.667 -81.666 -41 -108.999s-63.666 -41 -108.999 -41c-40 0 -81.167 1 -123.5 3s-81.166 4.33301 -116.499 7c-41.333 2.66699 -81.333 6 -120 10
v120l103 -8c30 -2 62.333 -3.66699 97 -5s68 -2 100 -2c10 0 18.333 3.33301 25 10s10 15 10 25v15c0 10 -3.33301 18.333 -10 25s-15 10 -25 10h-220z" />
    <glyph glyph-name="afii10074" unicode="&#x438;" 
d="M395 530h185v-530h-175v290l-170 -290h-185v530h175v-290z" />
    <glyph glyph-name="afii10075" unicode="&#x439;" 
d="M260 580c-86.667 0 -130 43.333 -130 130v30h130v-25c0 -10 3.33301 -18.333 10 -25s15 -10 25 -10h30c10 0 18.333 3.33301 25 10s10 15 10 25v25h130v-30c0 -86.667 -43.333 -130 -130 -130h-100zM395 530h185v-530h-175v290l-170 -290h-185v530h175v-290z" />
    <glyph glyph-name="afii10076" unicode="&#x43a;" horiz-adv-x="600" 
d="M300 200l-75 -0.000976562v-200h-175v530h175v-195h80l55 110c6 12.667 13.5 24.667 22.5 36s19.5 21.333 31.5 30s25.5 15.667 40.5 21s31.833 8 50.5 8c10 0 19.833 -0.5 29.5 -1.5s18.167 -2.16699 25.5 -3.5l25 -5v-135h-35c-12.667 0 -23.167 -3.16699 -31.5 -9.5
s-14.5 -13.166 -18.5 -20.499l-50 -100l150 -265h-190z" />
    <glyph glyph-name="afii10077" unicode="&#x43b;" horiz-adv-x="640" 
d="M590 530l0.000976562 -530.001h-175v395h-140l-15 -255c-2.66699 -45.333 -17.667 -81.666 -45 -108.999s-62.333 -41 -105 -41c-10 0 -20.833 0.5 -32.5 1.5s-22.5 2.16699 -32.5 3.5c-12 1.33301 -23.667 3 -35 5v130h40c25.333 0 38.666 13.333 39.999 40l20 360h480z
" />
    <glyph glyph-name="afii10078" unicode="&#x43c;" horiz-adv-x="780" 
d="M455 90h-130l-100 180v-270h-175v530h185l155 -280l155 280h185v-530h-175v270z" />
    <glyph glyph-name="afii10079" unicode="&#x43d;" 
d="M405 335v195h175v-530h-175v200h-180v-200h-175v530h175v-195h180z" />
    <glyph glyph-name="afii10080" unicode="&#x43e;" 
d="M590 150c0 -50 -14.167 -89.167 -42.5 -117.5s-67.5 -42.5 -117.5 -42.5h-230c-50 0 -89.167 14.167 -117.5 42.5s-42.5 67.5 -42.5 117.5v230c0 50 14.167 89.167 42.5 117.5s67.5 42.5 117.5 42.5h230c50 0 89.167 -14.167 117.5 -42.5s42.5 -67.5 42.5 -117.5v-230z
M415 365c0 26.667 -13.333 40 -40 40h-120c-26.667 0 -40 -13.333 -40 -40v-200c0 -26.667 13.333 -40 40 -40h120c26.667 0 40 13.333 40 40v200z" />
    <glyph glyph-name="afii10081" unicode="&#x43f;" 
d="M580 530v-530h-175v395h-180v-395h-175v530h530z" />
    <glyph glyph-name="afii10082" unicode="&#x440;" 
d="M225 135h150c26.667 0 40 13.333 40 40v185c0 10 -3.33301 18.333 -10 25s-15 10 -25 10h-35c-12.667 0 -26 -1 -40 -3s-27 -4.33301 -39 -7c-14 -2.66699 -27.667 -6 -41 -10v-240zM225 0l0.00195312 -170h-175v700h155l10 -50c17.333 11.333 36 21.333 56 30
c17.333 7.33301 36.666 14.166 57.999 20.499s43.333 9.5 66 9.5h45c45.333 0 81.666 -13.667 108.999 -41s41 -63.666 41 -108.999v-230c0 -50 -14.167 -89.167 -42.5 -117.5s-67.5 -42.5 -117.5 -42.5h-205z" />
    <glyph glyph-name="afii10083" unicode="&#x441;" horiz-adv-x="550" 
d="M40 370c0 50 14.166 89.168 42.499 117.501s67.5 42.5 117.5 42.5h320v-135h-265c-26.667 0 -40 -13.333 -40 -40v-195c0 -10 3.33301 -18.333 10 -25s15 -10 25 -10c26 0 54.667 0.666992 86 2s60.666 3 87.999 5l96 8v-130c-37.333 -4 -75 -7.33301 -113 -10
c-32.667 -2.66699 -68.167 -5 -106.5 -7s-75.166 -3 -110.499 -3c-45.333 0 -81.666 13.667 -108.999 41s-41 63.666 -41 108.999v230z" />
    <glyph glyph-name="afii10084" unicode="&#x442;" horiz-adv-x="525" 
d="M350 395v-395h-175v395h-165v135h505v-135h-165z" />
    <glyph glyph-name="afii10085" unicode="&#x443;" horiz-adv-x="570" 
d="M405 530h185l-200 -550c-19.333 -52.667 -44.333 -92.5 -75 -119.5s-72.334 -40.5 -125.001 -40.5c-12.667 0 -26.5 0.5 -41.5 1.5s-29.167 2.16699 -42.5 3.5c-15.333 1.33301 -30.666 3 -45.999 5v130h90c25.333 0 41.833 7 49.5 21s6.16699 33.667 -4.5 59l-205 490
h185l125 -340z" />
    <glyph glyph-name="afii10086" unicode="&#x444;" horiz-adv-x="795" 
d="M755 160c0 -50 -14.167 -89.167 -42.5 -117.5s-67.5 -42.5 -117.5 -42.5h-110v-170h-175v170h-110c-50 0 -89.167 14.167 -117.5 42.5s-42.5 67.5 -42.5 117.5v210c0 50 14.167 89.167 42.5 117.5s67.5 42.5 117.5 42.5h110v170h175v-170h110
c50 0 89.167 -14.167 117.5 -42.5s42.5 -67.5 42.5 -117.5v-210zM215 175c0 -26.667 13.333 -40 40 -40h70v260h-70c-26.667 0 -40 -13.333 -40 -40v-180zM580 355c0 26.667 -13.333 40 -40 40h-60v-260h60c26.667 0 40 13.333 40 40v180z" />
    <glyph glyph-name="afii10087" unicode="&#x445;" horiz-adv-x="570" 
d="M380 530h195l-170 -265l175 -265h-195l-100 160l-100 -160h-195l175 265l-170 265h195l95 -160z" />
    <glyph glyph-name="afii10088" unicode="&#x446;" horiz-adv-x="675" 
d="M480 0h-430v530h175v-395h180v395h175v-395h75v-255h-165z" />
    <glyph glyph-name="afii10089" unicode="&#x447;" horiz-adv-x="615" 
d="M390 160c-21.333 -2 -43.333 -3.66602 -66 -4.99902c-19.333 -1.33301 -40.833 -2.5 -64.5 -3.5s-46.834 -1.5 -69.501 -1.5c-45.333 0 -81.666 13.667 -108.999 41s-41 63.666 -41 108.999v230h175v-210c0 -10 3.33301 -18.333 10 -25s15 -10 25 -10
c16 0 32.333 0.166992 49 0.5s31.667 0.833008 45 1.5c16 0.666992 31.333 1.66699 46 3v240h175v-530h-175v160z" />
    <glyph glyph-name="afii10090" unicode="&#x448;" horiz-adv-x="855" 
d="M50 0v530h175v-395h115v395h175v-395h115v395h175v-530h-755z" />
    <glyph glyph-name="afii10091" unicode="&#x449;" horiz-adv-x="900" 
d="M705 0h-655v530h175v-395h115v395h175v-395h115v395h175v-395h75v-255h-165z" />
    <glyph glyph-name="afii10092" unicode="&#x44a;" horiz-adv-x="700" 
d="M325 530v-165.002h205c45.333 0 81.666 -13.667 108.999 -41s41 -63.666 41 -108.999v-65c0 -45.333 -13.667 -81.666 -41 -108.999s-63.666 -41 -108.999 -41h-380v395h-140v135h315zM470 124.998c10 0 18.333 3.33301 25 10s10 15 10 25v45
c0 10 -3.33301 18.333 -10 25s-15 10 -25 10h-145v-115h145z" />
    <glyph glyph-name="afii10093" unicode="&#x44b;" horiz-adv-x="860" 
d="M50 0v529.998h175v-165h195c45.333 0 81.666 -13.667 108.999 -41s41 -63.666 41 -108.999v-65c0 -45.333 -13.667 -81.666 -41 -108.999s-63.666 -41 -108.999 -41h-370zM360 124.998c10 0 18.333 3.33301 25 10s10 15 10 25v44c0 10 -3.33301 18.333 -10 25
s-15 10 -25 10h-135v-114h135zM810 -0.00195312h-175v530h175v-530z" />
    <glyph glyph-name="afii10094" unicode="&#x44c;" horiz-adv-x="600" 
d="M50 0v529.998h175v-165h205c45.333 0 81.666 -13.667 108.999 -41s41 -63.666 41 -108.999v-65c0 -45.333 -13.667 -81.666 -41 -108.999s-63.666 -41 -108.999 -41h-380zM370 124.998c10 0 18.333 3.33301 25 10s10 15 10 25v45c0 10 -3.33301 18.333 -10 25
s-15 10 -25 10h-145v-115h145z" />
    <glyph glyph-name="afii10095" unicode="&#x44d;" horiz-adv-x="550" 
d="M510 140c0 -45.333 -13.667 -81.667 -41 -109s-63.666 -41 -108.999 -41c-35.333 0 -72.333 1 -111 3s-74.334 4.33301 -107.001 7c-38 2.66699 -75.333 6 -112 10v120l96 -8c27.333 -2 56.5 -3.66699 87.5 -5s59.833 -2 86.5 -2c10 0 18.333 3.33301 25 10s10 15 10 25
v50h-225v125h225v40c0 26.667 -13.333 40 -40 40h-255v125h310c50 0 89.167 -14.167 117.5 -42.5s42.5 -67.5 42.5 -117.5v-230z" />
    <glyph glyph-name="afii10096" unicode="&#x44e;" horiz-adv-x="850" 
d="M300 335v45c0 50 14.167 89.167 42.5 117.5s67.5 42.5 117.5 42.5h190c50 0 89.167 -14.167 117.5 -42.5s42.5 -67.5 42.5 -117.5v-230c0 -50 -14.167 -89.167 -42.5 -117.5s-67.5 -42.5 -117.5 -42.5h-190c-50 0 -89.167 14.167 -117.5 42.5s-42.5 67.5 -42.5 117.5v50
h-75v-200h-175v530h175v-195h75zM635 365c0 26.667 -13.333 40 -40 40h-80c-26.667 0 -40 -13.333 -40 -40v-200c0 -26.667 13.333 -40 40 -40h80c26.667 0 40 13.333 40 40v200z" />
    <glyph glyph-name="afii10097" unicode="&#x44f;" horiz-adv-x="620" 
d="M570 530l0.000976562 -529.999h-175v165h-85l-95 -165h-185l100 175c-28 10 -50 27 -66 51s-24 53.667 -24 89v65c0 45.333 13.667 81.666 41 108.999s63.666 41 108.999 41h380zM250.001 405.001c-10 0 -18.333 -3.33301 -25 -10s-10 -15 -10 -25v-45
c0 -10 3.33301 -18.333 10 -25s15 -10 25 -10h145v115h-145z" />
    <glyph glyph-name="afii10071" unicode="&#x451;" horiz-adv-x="600" 
d="M100 730h170v-140h-170v140zM330 730h170v-140h-170v140zM255 415c-26.667 0 -40 -13.333 -40 -40v-55h170v55c0 26.667 -13.333 40 -40 40h-90zM40 380c0 50 14.167 89.168 42.5 117.501s67.5 42.5 117.5 42.5h200c50 0 89.167 -14.167 117.5 -42.5
s42.5 -67.5 42.5 -117.5v-185h-345v-40c0 -10 3.33301 -18.333 10 -25s15 -10 25 -10c28.667 0 59.834 0.666992 93.501 2s65.167 3 94.5 5l102 8v-125c-38.667 -4 -78.334 -7.33301 -119.001 -10c-34.667 -2.66699 -72.334 -5 -113.001 -7s-80 -3 -118 -3
c-45.333 0 -81.666 13.667 -108.999 41s-41 63.666 -41 108.999v240z" />
    <glyph glyph-name="afii10099" unicode="&#x452;" horiz-adv-x="650" 
d="M620 140c0 -45.333 -13.6689 -81.668 -41.002 -109.001s-63.666 -41 -108.999 -41c-15.333 0 -30.666 0.5 -45.999 1.5s-29.333 2.16699 -42 3.5c-14.667 1.33301 -28.667 3 -42 5v130h70c10 0 18.333 3.33301 25 10s10 15 10 25v115c0 10 -3.33301 18.333 -10 25
s-15 10 -25 10h-35c-14 0 -28.167 -0.5 -42.5 -1.5s-27.166 -2.16699 -38.499 -3.5c-13.333 -2 -26.333 -3.66699 -39 -5v-305h-175v495h-60v125h60l20 80h155v-80h125v-125h-125v-65c19.333 4 39 7.33301 59 10c17.333 2.66699 35.833 5 55.5 7s38.167 3 55.5 3h45
c45.333 0 81.666 -13.667 108.999 -41s41 -63.666 41 -108.999v-160z" />
    <glyph glyph-name="afii10100" unicode="&#x453;" horiz-adv-x="490" 
d="M480 530v-135h-255v-395h-175v530h430zM170 570l60 170h180l-110 -170h-130z" />
    <glyph glyph-name="afii10101" unicode="&#x454;" horiz-adv-x="550" 
d="M40 370c0 50 14.166 89.168 42.499 117.501s67.5 42.5 117.5 42.5h310v-125h-255c-26.667 0 -40 -13.333 -40 -40v-40h225v-125h-225v-50c0 -10 3.33301 -18.333 10 -25s15 -10 25 -10c26 0 54.667 0.666992 86 2s60.666 3 87.999 5l96 8v-120
c-37.333 -4 -75 -7.33301 -113 -10c-32.667 -2.66699 -68.167 -5 -106.5 -7s-75.166 -3 -110.499 -3c-45.333 0 -81.666 13.667 -108.999 41s-41 63.666 -41 108.999v230z" />
    <glyph glyph-name="afii10102" unicode="&#x455;" horiz-adv-x="580" 
d="M195 365c0 -10 3.33398 -18.333 10.001 -25s15 -10 25 -10h180c45.333 0 81.666 -13.667 108.999 -41s41 -63.666 41 -108.999v-40c0 -45.333 -13.667 -81.666 -41 -108.999s-63.666 -41 -108.999 -41c-42.667 0 -86.334 1 -131.001 3s-85.667 4.33301 -123 7
c-43.333 2.66699 -85.333 6 -126 10v130l109 -8c32 -2 66.667 -3.66699 104 -5s73 -2 107 -2c10 0 18.333 3.33301 25 10s10 15 10 25v35h-215c-45.333 0 -81.666 13.667 -108.999 41s-41 63.666 -41 108.999v35c0 45.333 13.667 81.666 41 108.999s63.666 41 108.999 41
h340v-130h-280c-10 0 -18.333 -3.33301 -25 -10s-10 -15 -10 -25z" />
    <glyph glyph-name="afii10103" unicode="&#x456;" horiz-adv-x="320" 
d="M270 510v-510h-175v375h-75v135h250zM95 710h175v-140h-175v140z" />
    <glyph glyph-name="afii10104" unicode="&#x457;" horiz-adv-x="340" 
d="M-30 710h170v-140h-170v140zM200 710h170v-140h-170v140zM284 510v-510h-175v375h-75v135h250z" />
    <glyph glyph-name="afii10105" unicode="&#x458;" horiz-adv-x="300" 
d="M250 -30c0 -45.333 -13.668 -81.667 -41.001 -109s-63.666 -41 -108.999 -41c-22.667 0 -45.334 0.5 -68.001 1.5s-43 2.16699 -61 3.5c-21.333 1.33301 -41.666 3 -60.999 5v130h130c10 0 18.333 3.33301 25 10s10 15 10 25v515h175v-540zM74.999 709.999h175v-140h-175
v140z" />
    <glyph glyph-name="afii10106" unicode="&#x459;" horiz-adv-x="905" 
d="M555 530l0.000976562 -175.003h180c45.333 0 81.666 -13.667 108.999 -41s41 -63.666 41 -108.999v-55c0 -45.333 -13.667 -81.666 -41 -108.999s-63.666 -41 -108.999 -41h-345v395h-115l-15 -255c-2.66699 -45.333 -17.667 -81.666 -45 -108.999s-62.333 -41 -105 -41
c-10 0 -20.833 0.5 -32.5 1.5s-22.5 2.16699 -32.5 3.5c-12 1.33301 -23.667 3 -35 5v130h40c25.333 0 38.666 13.333 39.999 40l20 360h445zM675.001 119.997c10 0 18.333 3.33301 25 10s10 15 10 25v35c0 10 -3.33301 18.333 -10 25s-15 10 -25 10h-120v-105h120z" />
    <glyph glyph-name="afii10107" unicode="&#x45a;" horiz-adv-x="895" 
d="M380 0v224.998h-155v-225h-175v530h175v-175h155v175h165v-175h180c45.333 0 81.666 -13.667 108.999 -41s41 -63.666 41 -108.999v-55c0 -45.333 -13.667 -81.666 -41 -108.999s-63.666 -41 -108.999 -41h-345zM665 129.998c10 0 18.333 3.33301 25 10s10 15 10 25v25
c0 10 -3.33301 18.333 -10 25s-15 10 -25 10h-120v-95h120z" />
    <glyph glyph-name="afii10108" unicode="&#x45b;" horiz-adv-x="660" 
d="M80 620l20 79.999h155v-80h125v-125h-125v-65c19.333 4 39 7.33301 59 10c17.333 2.66699 35.833 5 55.5 7s38.167 3 55.5 3h45c45.333 0 81.666 -13.667 108.999 -41s41 -63.666 41 -108.999v-300h-175v280c0 10 -3.33301 18.333 -10 25s-15 10 -25 10h-35
c-14 0 -28.167 -0.5 -42.5 -1.5s-27.166 -2.16699 -38.499 -3.5c-13.333 -2 -26.333 -3.66699 -39 -5v-305h-175v495h-60v125h60z" />
    <glyph glyph-name="afii10109" unicode="&#x45c;" horiz-adv-x="600" 
d="M240 570l60 170h180l-110 -170h-130zM300 200l-75 -0.000976562v-200h-175v530h175v-195h80l55 110c6 12.667 13.5 24.667 22.5 36s19.5 21.333 31.5 30s25.5 15.667 40.5 21s31.833 8 50.5 8c10 0 19.833 -0.5 29.5 -1.5s18.167 -2.16699 25.5 -3.5l25 -5v-135h-35
c-12.667 0 -23.167 -3.16699 -31.5 -9.5s-14.5 -13.166 -18.5 -20.499l-50 -100l150 -265h-190z" />
    <glyph glyph-name="afii10110" unicode="&#x45e;" horiz-adv-x="570" 
d="M240 570c-86.667 0 -130 43.333 -130 130v30h130v-25c0 -10 3.33301 -18.333 10 -25s15 -10 25 -10h30c10 0 18.333 3.33301 25 10s10 15 10 25v25h130v-30c0 -86.667 -43.333 -130 -130 -130h-100zM405 530h185l-200 -550c-19.333 -52.667 -44.333 -92.5 -75 -119.5
s-72.334 -40.5 -125.001 -40.5c-12.667 0 -26.5 0.5 -41.5 1.5s-29.167 2.16699 -42.5 3.5c-15.333 1.33301 -30.666 3 -45.999 5v130h90c25.333 0 41.833 7 49.5 21s6.16699 33.667 -4.5 59l-205 490h185l125 -340z" />
    <glyph glyph-name="afii10193" unicode="&#x45f;" 
d="M50 0v530h175v-395h180v395h175v-530h-175l-10 -120h-160l-10 120h-175z" />
    <glyph glyph-name="afii10050" unicode="&#x490;" horiz-adv-x="615" 
d="M240 560v-560h-180v700h375l10 100h160v-240h-365z" />
    <glyph glyph-name="afii10098" unicode="&#x491;" horiz-adv-x="490" 
d="M315 530l10 90h155v-225h-254v-395h-176v530h265z" />
    <glyph glyph-name="endash" unicode="&#x2013;" 
d="M30 285v130h570v-130h-570z" />
    <glyph glyph-name="emdash" unicode="&#x2014;" horiz-adv-x="800" 
d="M30 285v130h740v-130h-740z" />
    <glyph glyph-name="quoteleft" unicode="&#x2018;" horiz-adv-x="240" 
d="M210 450h-180v140l70 110h90l-40 -100h60v-150z" />
    <glyph glyph-name="quoteright" unicode="&#x2019;" horiz-adv-x="240" 
d="M30 700h180v-140l-70 -110h-90l40 100h-60v150z" />
    <glyph glyph-name="quotesinglbase" unicode="&#x201a;" horiz-adv-x="240" 
d="M30 150h180v-140l-70 -110h-90l40 100h-60v150z" />
    <glyph glyph-name="quotedblleft" unicode="&#x201c;" horiz-adv-x="460" 
d="M430 450h-180v140l70 110h90l-40 -100h60v-150zM210 450h-180v140l70 110h90l-40 -100h60v-150z" />
    <glyph glyph-name="quotedblright" unicode="&#x201d;" horiz-adv-x="460" 
d="M30 700h180v-140l-70 -110h-90l40 100h-60v150zM250 700h180v-140l-70 -110h-90l40 100h-60v150z" />
    <glyph glyph-name="quotedblbase" unicode="&#x201e;" horiz-adv-x="460" 
d="M30 150h180v-140l-70 -110h-90l40 100h-60v150zM250 150h180v-140l-70 -110h-90l40 100h-60v150z" />
    <glyph glyph-name="dagger" unicode="&#x2020;" horiz-adv-x="590" 
d="M570 480v-140h-180v-510h-180v510h-190v140h190v220h180v-220h180z" />
    <glyph glyph-name="daggerdbl" unicode="&#x2021;" horiz-adv-x="570" 
d="M380 10v-180h-180v180h-180v140h180v230h-180v140h180v180h180v-180h170v-140h-170v-230h170v-140h-170z" />
    <glyph glyph-name="bullet" unicode="&#x2022;" horiz-adv-x="360" 
d="M200 480c32.667 0 59.167 -10.167 79.5 -30.5s30.5 -46.833 30.5 -79.5v-40c0 -32.667 -10.167 -59.167 -30.5 -79.5s-46.833 -30.5 -79.5 -30.5h-40c-32.667 0 -59.167 10.167 -79.5 30.5s-30.5 46.833 -30.5 79.5v40c0 32.667 10.167 59.167 30.5 79.5
s46.833 30.5 79.5 30.5h40z" />
    <glyph glyph-name="ellipsis" unicode="&#x2026;" horiz-adv-x="720" 
d="M30 150h180v-150h-180v150zM270 150h180v-150h-180v150zM510 150h180v-150h-180v150z" />
    <glyph glyph-name="perthousand" unicode="&#x2030;" horiz-adv-x="1230" 
d="M150 0l400 700h150l-390 -700h-160zM360 465c0 -40 -10.833 -70.833 -32.5 -92.5s-52.5 -32.5 -92.5 -32.5h-90c-40 0 -70.833 10.833 -92.5 32.5s-32.5 52.5 -32.5 92.5v120c0 40 10.833 70.833 32.5 92.5s52.5 32.5 92.5 32.5h90c40 0 70.833 -10.833 92.5 -32.5
s32.5 -52.5 32.5 -92.5v-120zM240 585c0 23.333 -11.667 35 -35 35h-30c-23.333 0 -35 -11.667 -35 -35v-120c0 -23.333 11.667 -35 35 -35h30c23.333 0 35 11.667 35 35v120zM840 115c0 -40 -10.833 -70.833 -32.5 -92.5s-52.5 -32.5 -92.5 -32.5h-90
c-40 0 -70.833 10.833 -92.5 32.5s-32.5 52.5 -32.5 92.5v120c0 40 10.833 70.833 32.5 92.5s52.5 32.5 92.5 32.5h90c40 0 70.833 -10.833 92.5 -32.5s32.5 -52.5 32.5 -92.5v-120zM720 235c0 23.333 -11.667 35 -35 35h-30c-23.333 0 -35 -11.667 -35 -35v-120
c0 -23.333 11.667 -35 35 -35h30c23.333 0 35 11.667 35 35v120zM1210 115c0 -40 -10.833 -70.833 -32.5 -92.5s-52.5 -32.5 -92.5 -32.5h-90c-40 0 -70.833 10.833 -92.5 32.5s-32.5 52.5 -32.5 92.5v120c0 40 10.833 70.833 32.5 92.5s52.5 32.5 92.5 32.5h90
c40 0 70.833 -10.833 92.5 -32.5s32.5 -52.5 32.5 -92.5v-120zM1090 235c0 23.333 -11.667 35 -35 35h-30c-23.333 0 -35 -11.667 -35 -35v-120c0 -23.333 11.667 -35 35 -35h30c23.333 0 35 11.667 35 35v120z" />
    <glyph glyph-name="guilsinglleft" unicode="&#x2039;" horiz-adv-x="361" 
d="M341 90l-101 -90l-230 265l230 265l101 -89l-152 -176z" />
    <glyph glyph-name="guilsinglright" unicode="&#x203a;" horiz-adv-x="361" 
d="M172 265l-152 176l101 89l230 -265l-230 -265l-101 90z" />
    <glyph glyph-name="zerosuperior" unicode="&#x2070;" horiz-adv-x="380" 
d="M360 465c0 -40 -10.833 -70.833 -32.5 -92.5s-52.5 -32.5 -92.5 -32.5h-90c-40 0 -70.833 10.833 -92.5 32.5s-32.5 52.5 -32.5 92.5v120c0 40 10.833 70.833 32.5 92.5s52.5 32.5 92.5 32.5h90c40 0 70.833 -10.833 92.5 -32.5s32.5 -52.5 32.5 -92.5v-120zM240 585
c0 23.333 -11.667 35 -35 35h-30c-23.333 0 -35 -11.667 -35 -35v-120c0 -23.333 11.667 -35 35 -35h30c23.333 0 35 11.667 35 35v120z" />
    <glyph glyph-name="foursuperior" unicode="&#x2074;" horiz-adv-x="360" 
d="M205 415h-195v90l115 205h125l-115 -205h70v65h110v-65h35v-90h-35v-75h-110v75z" />
    <glyph glyph-name="Euro" unicode="&#x20ac;" horiz-adv-x="660" 
d="M20 325h59.999v40h-70l10 105h60v30c0 70 15.833 120.833 47.5 152.5s82.5 47.5 152.5 47.5h360v-140h-320c-40 0 -60 -20 -60 -60v-30h240v-105h-240v-40h240v-105h-240v-40c0 -15.333 4.5 -27.5 13.5 -36.5s21.167 -13.5 36.5 -13.5
c12.667 0 27.334 0.166992 44.001 0.5s34 0.833008 52 1.5l54.5 2c18.333 0.666992 36.166 1.66699 53.499 3l126 8v-135c-44.667 -4 -89 -7.33301 -133 -10c-38 -2.66699 -78.167 -5 -120.5 -7s-81.166 -3 -116.499 -3c-65.333 0 -113.333 15.333 -144 46
s-46 78.667 -46 144v40h-70z" />
    <glyph glyph-name="afii61352" unicode="&#x2116;" horiz-adv-x="1110" 
d="M750 300h300v-100h-300v100zM670 0h-190l-240 420v-420h-180v700h190l240 -420v420h180v-700zM1070 465c0 -40 -10.833 -70.833 -32.5 -92.5s-52.5 -32.5 -92.5 -32.5h-90c-40 0 -70.833 10.833 -92.5 32.5s-32.5 52.5 -32.5 92.5v120c0 40 10.833 70.833 32.5 92.5
s52.5 32.5 92.5 32.5h90c40 0 70.833 -10.833 92.5 -32.5s32.5 -52.5 32.5 -92.5v-120zM950 585c0 23.333 -11.667 35 -35 35h-30c-23.333 0 -35 -11.667 -35 -35v-120c0 -23.333 11.667 -35 35 -35h30c23.333 0 35 11.667 35 35v120z" />
    <glyph glyph-name="trademark" unicode="&#x2122;" horiz-adv-x="930" 
d="M260 610v-280h-130v280h-120v90h370v-90h-120zM600 400l-60 110v-180h-130v370h130l110 -200l110 200h130v-370h-130v180l-60 -110h-100z" />
    <glyph glyph-name=".null" horiz-adv-x="0" 
 />
    <glyph glyph-name="nonmarkingreturn" horiz-adv-x="300" 
 />
    <glyph glyph-name="commaaccent" horiz-adv-x="170" 
d="M0 -30h170v-130l-70 -110h-80l40 100h-60v140z" />
    <glyph glyph-name=".ttfautohint" horiz-adv-x="620" 
d="M0 0z" />
    </font>
</defs>
</svg>
